<?xml version="1.0" encoding="UTF-8"?>
<!DOCTYPE svg PUBLIC "-//W3C//DTD SVG 1.1//EN" "http://www.w3.org/Graphics/SVG/1.1/DTD/svg11.dtd">
<!-- Creator: CorelDRAW -->
<svg xmlns="http://www.w3.org/2000/svg" xml:space="preserve" width="99.8022mm" height="99.8022mm" style="shape-rendering:geometricPrecision; text-rendering:geometricPrecision; image-rendering:optimizeQuality; fill-rule:evenodd; clip-rule:evenodd"
viewBox="0 0 99.8022 99.8022"
 xmlns:xlink="http://www.w3.org/1999/xlink">
 <defs>
  <style type="text/css">
   <![CDATA[
    .str0 {stroke:white;stroke-width:0.0762}
    .str2 {stroke:#0A0B0C;stroke-width:1.4111}
    .str3 {stroke:#0A0B0C;stroke-width:1.4111;stroke-linecap:round;stroke-linejoin:round}
    .str1 {stroke:#1F1A17;stroke-width:1.4111}
    .fil0 {fill:none}
    .fil9 {fill:#0F0E10}
    .fil2 {fill:#121112}
    .fil10 {fill:#171516}
    .fil16 {fill:#1A1718}
    .fil3 {fill:#1D1A1A}
    .fil11 {fill:#242020}
    .fil4 {fill:#2B2726}
    .fil12 {fill:#342F2E}
    .fil5 {fill:#3C3836}
    .fil13 {fill:#474241}
    .fil8 {fill:#4D4948}
    .fil6 {fill:#504C4A}
    .fil17 {fill:#565251}
    .fil14 {fill:#5C5857}
    .fil7 {fill:#676462}
    .fil15 {fill:#72706F}
    .fil18 {fill:#838281}
    .fil1 {fill:#0A0B0C}
   ]]>
  </style>
 </defs>
 <g id="Layer_x0020_1">
  <metadata id="CorelCorpID_0Corel-Layer"/>
  <rect class="fil0 str0" x="0.0381" y="0.0381" width="99.726" height="99.726"/>
  <g id="_41237112">
   <path id="_57019280" class="fil1" d="M86.9295 42.5384c-1.8927,-3.0758 -4.9686,-5.206 -9.2275,-6.1523 -2.8398,-0.7097 -5.9156,-0.7097 -8.7547,0 -4.7325,0.7102 -8.7546,3.0765 -12.0672,7.0986l-4.0222 5.2054 -2.8391 4.0221 -7.5715 -9.2275c-1.8928,-2.8397 -5.6789,-5.2053 -11.1209,-7.0986 -3.3126,-0.9464 -7.0981,-0.9464 -11.357,0 -3.7861,0.9463 -6.3884,3.0765 -7.8083,6.1523 -1.1831,3.0758 -1.656,6.3884 -0.9464,10.1738 0.7096,3.0759 2.3663,6.1517 4.7325,9.2276 1.4192,1.4198 4.0222,3.3125 8.2811,5.9155 7.3348,-3.5493 15.8527,-5.2053 25.7905,-5.2053 7.3348,0.2361 15.8527,1.8927 25.3169,5.2053 2.8391,-1.8927 5.6789,-3.7861 8.2812,-6.1516 2.3662,-2.1295 4.0222,-5.206 4.9685,-9.2282 0.4735,-3.3126 0,-6.6252 -1.6559,-9.9371z"/>
   <path id="_40867656" class="fil2" d="M17.4515 60.6148c0.8235,0.807 1.806,1.546 2.7372,2.214 1.6402,1.1766 3.3607,2.2676 5.0826,3.32l0.0709 0.0433 0.0671 0.0491c0.2896,0.2119 0.5783,0.4416 0.8656,0.6857 6.8613,-2.9106 14.7169,-4.2769 23.7439,-4.2769 6.77,0.2179 14.5476,1.6458 23.1473,4.4692 0.2795,-0.2585 0.5622,-0.5135 0.8479,-0.765l0.1007 -0.0886 0.1116 -0.0744c2.7824,-1.8549 5.5662,-3.7139 8.0509,-5.9724 2.3392,-2.1053 3.6219,-5.1055 4.3406,-8.1136 0.414,-3.0166 -0.0873,-5.8569 -1.4374,-8.5924 -1.7994,-2.8729 -4.6456,-4.4485 -7.9122,-5.1743l-0.0256 -0.0057 -0.0255 -0.0064c-2.5226,-0.6304 -5.2622,-0.6306 -7.7848,0l-0.0932 0.0233 -0.095 0.0143c-4.4391,0.6661 -7.9578,2.9258 -10.8008,6.3687l-3.9764 5.1461 -4.3285 6.1321 -9.3002 -11.3343 -0.0551 -0.0826c-2.0552,-3.0834 -6.6806,-5.1199 -10.0594,-6.3 -3.3487,-0.9434 -6.9316,-0.7057 -10.2943,0.0387 -2.87,0.7229 -5.1487,2.2677 -6.4255,4.9861 -1.1249,2.9548 -1.408,5.8677 -0.8311,8.9839 0.7065,3.0227 2.4088,5.8639 4.2787,8.3121z"/>
   <path id="_55542328" class="fil3" d="M18.9532 59.2855c1.939,1.8646 5.1241,3.7896 7.3611,5.1568l0.1418 0.0867 0.1342 0.0982c0.5972,0.437 1.1861,0.9376 1.763,1.4766 6.3582,-2.3458 13.5369,-3.4538 21.6655,-3.4538 6.1933,0.1994 13.2299,1.4113 20.9676,3.7779 0.5568,-0.5376 1.1251,-1.0633 1.706,-1.5747l0.2013 -0.1773 0.2232 -0.1488c2.6944,-1.7962 5.4074,-3.5998 7.8095,-5.7833l0.0147 -0.0133c1.995,-1.7954 3.0847,-4.4306 3.708,-6.9932 0.3317,-2.5503 -0.0919,-4.928 -1.2167,-7.2465 -1.5128,-2.3557 -3.8977,-3.5999 -6.598,-4.1999l-0.0513 -0.0114 -0.0509 -0.0127c-2.2043,-0.5509 -4.6106,-0.5511 -6.8149,-0.0001l-0.1864 0.0466 -0.19 0.0285c-3.9378,0.5909 -7.012,2.5934 -9.5353,5.6399l-3.9297 5.0857 -5.8179 8.2422 -11.0289 -13.4411 -0.1102 -0.1653c-1.7462,-2.6197 -6.1117,-4.4884 -8.9953,-5.5002 -2.993,-0.8285 -6.2326,-0.5852 -9.2332,0.076 -2.2454,0.5711 -4.0253,1.7076 -5.0449,3.8242 -0.966,2.5718 -1.2088,5.0772 -0.7146,7.7892 0.634,2.6674 2.1752,5.2187 3.8223,7.3931z"/>
   <path id="_57679832" class="fil4" d="M20.4513 57.9503c1.8226,1.7108 4.8639,3.5374 6.906,4.7855l0.2128 0.13 0.2012 0.1473c0.9314,0.6815 1.8342,1.4939 2.7032,2.3635 5.8226,-1.8482 12.307,-2.7266 19.5443,-2.7266 5.6025,0.1803 11.8952,1.1893 18.7727,3.1322 0.8341,-0.8367 1.6925,-1.6494 2.5792,-2.4301l0.302 -0.2659 0.3348 -0.2232c2.606,-1.7373 5.2508,-3.4877 7.5736,-5.5991l0.0221 -0.02c1.644,-1.4796 2.5499,-3.7553 3.076,-5.8711 0.2511,-2.0814 -0.0938,-3.9996 -0.9929,-5.8978 -1.2242,-1.8349 -3.1553,-2.7584 -5.2857,-3.2317l-0.0769 -0.0171 -0.0764 -0.0191c-1.886,-0.4713 -3.959,-0.4715 -5.8449,-0.0001l-0.2796 0.0699 -0.2851 0.0428c-3.436,0.5156 -6.0681,2.262 -8.2706,4.9123l-3.8821 5.0241 -7.3074 10.3522 -12.7576 -15.5479 -0.1653 -0.2479c-1.4227,-2.1345 -5.5395,-3.8555 -7.9284,-4.6994 -2.6362,-0.7131 -5.5367,-0.4659 -8.1735,0.1121 -1.6193,0.4166 -2.9096,1.1597 -3.668,2.67 -0.8051,2.1842 -1.0068,4.2821 -0.5958,6.5858 0.5608,2.3085 1.9367,4.5687 3.3623,6.4693z"/>
   <path id="_57023440" class="fil5" d="M21.9459 56.609c1.7104,1.5615 4.6075,3.2915 6.4544,4.4203l0.2837 0.1734 0.2683 0.1963c1.238,0.9059 2.4729,2.0512 3.7103,3.3367 4.6426,-1.2484 9.6899,-1.9202 15.1843,-2.0586l-11.8361 -14.4248 -0.2203 -0.3305c-1.0794,-1.6195 -4.9483,-3.2144 -6.8593,-3.8975 -2.2784,-0.5965 -4.8446,-0.3477 -7.1157,0.147 -0.9876,0.2569 -1.8066,0.6384 -2.2969,1.5333 -0.6395,1.7874 -0.7985,3.4763 -0.4715,5.3635 0.4871,1.9463 1.6919,3.9127 2.8988,5.5409zm44.6321 8.575c1.1132,-1.1555 2.2667,-2.2726 3.471,-3.3329l0.4027 -0.3546 0.4465 -0.2976c2.5171,-1.6781 5.0944,-3.3759 7.3376,-5.415l0.0295 -0.0267c1.2829,-1.1545 2.0148,-3.0733 2.442,-4.7442 0.173,-1.6074 -0.0913,-3.0695 -0.7632,-4.5415 -0.9341,-1.3096 -2.4239,-1.9307 -3.9773,-2.2759l-0.1026 -0.0227 -0.1018 -0.0255c-1.5677,-0.3918 -3.3074,-0.392 -4.875,-0.0001l-0.3728 0.0932 -0.38 0.057c-2.9334,0.4402 -5.1268,1.9321 -7.0072,4.1861l-3.8334 4.9612 -6.6006 9.3508c4.2776,0.325 8.9198,1.1072 13.8846,2.3884z"/>
   <path id="_56410072" class="fil6" d="M23.4372 55.2612c1.6029,1.4171 4.3549,3.0524 6.0061,4.0616l0.3546 0.2167 0.3354 0.2455c1.5299,1.1194 3.1062,2.6658 4.7108,4.4133 3.2983,-0.741 6.7934,-1.2093 10.4993,-1.4193l-10.9417 -13.3348 -0.2714 -0.4073c-0.8273,-1.1315 -4.2462,-2.5373 -5.792,-3.0999 -1.9284,-0.4804 -4.1775,-0.2288 -6.0861,0.186 -0.3351,0.0844 -0.7116,0.1946 -0.9214,0.4598 -0.4557,1.3599 -0.5649,2.6269 -0.3256,4.0702 0.413,1.5814 1.4389,3.2486 2.432,4.6082zm40.9049 9.3741c1.3957,-1.494 2.8505,-2.934 4.3852,-4.2853l0.5034 -0.4432 0.5581 -0.372c2.4279,-1.6187 4.9385,-3.2644 7.1017,-5.2308l0.0369 -0.0334c0.9058,-0.8152 1.4757,-2.3725 1.805,-3.611 0.0988,-1.122 -0.0809,-2.1299 -0.5213,-3.162 -0.6462,-0.7824 -1.7183,-1.1363 -2.6781,-1.3496l-0.1282 -0.0284 -0.1274 -0.0319c-1.2493,-0.3122 -2.6557,-0.3124 -3.905,-0.0001l-0.466 0.1165 -0.475 0.0713c-2.4283,0.3644 -4.189,1.6046 -5.7447,3.4613l-3.7837 4.8967 -5.9129 8.3767c2.9602,0.3276 6.0818,0.8653 9.352,1.6252z"/>
   <path id="_56981816" class="fil7" d="M24.9256 53.9063c1.5007,1.2786 4.1065,2.8212 5.5607,3.71l0.4255 0.2601 0.4025 0.2945c1.7922,1.3113 3.7416,3.3214 5.7526,5.5746 1.8827,-0.3451 3.8273,-0.6069 5.836,-0.7879l-10.1103 -12.3216 -0.246 -0.369c-0.871,-0.8733 -3.421,-1.9139 -4.7824,-2.4112 -1.4738,-0.3422 -3.266,-0.1473 -4.7546,0.152 -0.1533,0.7248 -0.1685,1.4316 -0.046,2.2268 0.3388,1.2165 1.175,2.5742 1.962,3.6717zm37.1542 10.2338c0.2047,-0.2258 0.4111,-0.4505 0.6189,-0.6744 1.4955,-1.6116 3.0565,-3.1636 4.707,-4.6168l0.604 -0.5318 0.6697 -0.4465c2.3383,-1.5588 4.7829,-3.1532 6.8659,-5.0466l0.0442 -0.04c0.5069,-0.4562 0.9214,-1.6208 1.1628,-2.4725 0.0314,-0.5988 -0.0534,-1.139 -0.2483,-1.6909 -0.3844,-0.2764 -1.0904,-0.4503 -1.4048,-0.5202l-0.1538 -0.0342 -0.1529 -0.0381c-0.931,-0.2327 -2.0041,-0.2329 -2.9351,-0.0002l-0.5592 0.1398 -0.57 0.0855c-1.9193,0.288 -3.256,1.2803 -4.4834,2.7381l-3.7328 4.8308 -5.2749 7.4728c1.5724,0.224 3.1875,0.5054 4.8427,0.8452z"/>
   <path id="_56013640" class="fil8 str1" d="M50.0188 89.3868c6.8613,0 12.5401,-0.4735 17.0358,-1.6566 4.7318,-0.9464 7.3348,-2.1295 7.8076,-3.5493 0,-0.2361 0,-0.2361 0,-0.4729 0,-1.4199 -2.6023,-2.8391 -7.8076,-4.0222 -4.9692,-1.1831 -10.6474,-1.6566 -17.0358,-1.6566 -7.3348,0 -13.7232,0.4735 -18.9292,1.6566 -3.7854,0.9464 -6.1517,1.8927 -6.8613,3.0759l-0.4735 0.9463c0.2368,1.656 2.8398,3.0758 7.3348,4.0222 4.7325,1.1831 11.1209,1.6566 18.9292,1.6566z"/>
   <path id="_57019808" class="fil0 str2" d="M50.0188 89.3868c6.8613,0 12.5401,-0.4735 17.0358,-1.6566 4.7318,-0.9464 7.3348,-2.1295 7.8076,-3.5493 0,-0.2361 0,-0.2361 0,-0.4729 0,-1.4199 -2.6023,-2.8391 -7.8076,-4.0222 -4.9692,-1.1831 -10.6474,-1.6566 -17.0358,-1.6566 -7.3348,0 -13.7232,0.4735 -18.9292,1.6566 -3.7854,0.9464 -6.1517,1.8927 -6.8613,3.0759l-0.4735 0.9463c0.2368,1.656 2.8398,3.0758 7.3348,4.0222 4.7325,1.1831 11.1209,1.6566 18.9292,1.6566z"/>
   <g>
    <path id="_57646272" class="fil1" d="M74.8622 84.1809l1.4199 -1.1825 0 -2.603 -3.5494 -3.5493 2.603 -8.9908c-9.4642,-3.3126 -17.9821,-4.9692 -25.3169,-5.2053 -9.9378,0 -18.4557,1.656 -25.7905,5.2053l0.7626 2.496 0.0114 0.0359 1.8284 5.986 -2.3656 2.3663c-1.8934,1.8927 -2.1295,3.5486 -0.7103,4.7318l0.4735 -0.7096c0.7096,-1.1832 3.0759,-2.1295 6.8613,-3.0759 5.206,-1.1831 11.5944,-1.6566 18.9292,-1.6566 6.3884,0 12.0666,0.4735 17.0358,1.6566 5.2053,1.1831 7.8076,2.6023 7.8076,4.0222 0,0.2368 0,0.2368 0,0.4729z"/>
    <g>
     <path id="_55509760" class="fil9" d="M73.9964 82.2992l0.2857 -0.2379 0 -0.8375 -3.8046 -3.8044 3.0141 -10.1923c-8.7289,-2.8945 -16.6176,-4.3564 -23.4728,-4.5771 -9.1333,0 -17.0669,1.3992 -23.9854,4.3809l0.8817 2.7721 2.1792 7.1347 -3.2151 3.2162c-0.115,0.1149 -0.422,0.4507 -0.6729,0.7932 0.2473,0.1269 0.4535,0.3025 0.6192,0.5117 1.1988,-0.626 2.9708,-1.1996 5.2641,-1.773 5.206,-1.1831 11.5944,-1.6566 18.9292,-1.6566 6.3884,0 12.0666,0.4735 17.0358,1.6566 3.4725,0.7893 5.7859,1.6839 6.9418,2.6134z"/>
     <path id="_56884824" class="fil2" d="M71.0391 80.8093l-2.8167 -2.8166 3.3648 -11.3784c-7.9745,-2.489 -15.2152,-3.7598 -21.5684,-3.9643 -8.3258,0 -15.6545,1.1629 -22.1264,3.6272l0.9287 2.9195 2.5369 8.3056 -2.9235 2.9244c0.7869,-0.2496 1.673,-0.4954 2.6551,-0.7409 5.206,-1.1831 11.5944,-1.6566 18.9292,-1.6566 6.3884,0 12.0666,0.4735 17.0358,1.6566 1.5631,0.3553 2.8908,0.732 3.9845,1.1235z"/>
     <path id="_56981648" class="fil10" d="M67.0968 79.6955l-1.1296 -1.1295 3.7055 -12.5304c-7.2219,-2.1086 -13.813,-3.1976 -19.6539,-3.3856 -7.5278,0 -14.2404,0.9508 -20.2416,2.9543l0.9533 2.9971 2.8911 9.4654 -1.3707 1.3711c4.9844,-1.0015 10.9695,-1.4087 17.7679,-1.4087 6.3884,0 12.0666,0.4735 17.0358,1.6566l0.0422 0.0097z"/>
     <path id="_56889944" class="fil3" d="M63.7478 79.0186l3.9996 -13.5248c-6.4712,-1.7542 -12.4109,-2.6726 -17.7286,-2.8438 -6.7393,0 -12.825,0.7622 -18.3322,2.3593l0.9533 2.9969 3.2454 10.6251 -0.2345 0.2346c4.2323,-0.5875 9.0514,-0.8367 14.368,-0.8367 5.0135,0 9.5897,0.292 13.729,0.9894z"/>
     <path id="_40482368" class="fil11" d="M61.7511 78.7177l4.0597 -13.7281c-5.7232,-1.4272 -11.0092,-2.1856 -15.792,-2.3396 -5.9602,0 -11.4092,0.5963 -16.399,1.8388l0.9295 2.9221 3.4128 11.1733c3.6495,-0.3865 7.6848,-0.555 12.0567,-0.555 4.2205,0 8.1314,0.2071 11.7323,0.6885z"/>
     <path id="_41733248" class="fil4" d="M59.7359 78.4798l4.1265 -13.9542c-4.9787,-1.1289 -9.6083,-1.7393 -13.8436,-1.8756 -5.1906,0 -9.9935,0.4524 -14.4431,1.3897l0.883 2.7759 3.5366 11.5787c3.0982,-0.2523 6.4483,-0.3651 10.0235,-0.3651 3.4455,0 6.6846,0.1381 9.7171,0.4506z"/>
     <path id="_57120920" class="fil12" d="M57.7038 78.2985l4.1977 -14.1948c-4.2379,-0.8607 -8.2087,-1.3354 -11.8827,-1.4537 -4.4306,0 -8.5784,0.3297 -12.4655,1.009l0.8148 2.5614 3.6743 12.0295c2.5121,-0.1513 5.175,-0.2207 7.9764,-0.2207 2.6872,0 5.249,0.0842 7.685,0.2693z"/>
     <path id="_41777024" class="fil5" d="M55.6569 78.1679l4.2703 -14.4405c-3.502,-0.6242 -6.8106,-0.9777 -9.9084,-1.0774 -3.6798,0 -7.1645,0.2276 -10.467,0.6937l0.7257 2.2814 3.8242 12.5202c1.8953,-0.079 3.8692,-0.1161 5.9171,-0.1161 1.9451,0 3.8246,0.0442 5.6381,0.1387z"/>
     <path id="_57122648" class="fil13" d="M53.5964 78.0827l4.3423 -14.6838c-2.7717,-0.4214 -5.4147,-0.6683 -7.9199,-0.7489 -2.9385,0 -5.7523,0.1451 -8.4487,0.4408l0.6168 1.939 3.985 13.0466c1.2512,-0.0317 2.5337,-0.0472 3.8469,-0.0472 1.2183,0 2.4109,0.0174 3.5776,0.0535z"/>
     <path id="_58281968" class="fil6" d="M51.524 78.0385l4.4111 -14.9167c-2.0483,-0.2546 -4.0218,-0.4108 -5.9163,-0.4718 -2.2064,0 -4.3423,0.082 -6.4113,0.2479l0.4888 1.5367 4.1554 13.6043c0.5829,-0.0064 1.1717,-0.0097 1.7671,-0.0097 0.5061,0 1.008,0.0033 1.5052,0.0093z"/>
     <path id="_57120944" class="fil14" d="M53.915 62.9001c-1.3331,-0.1262 -2.6321,-0.2094 -3.8962,-0.2501 -1.4835,0 -2.9348,0.0374 -4.3558,0.112l0.3427 1.0773 3.8775 12.6947 4.0318 -13.6339z"/>
     <path id="_56411936" class="fil7" d="M49.8522 69.5861l2.0247 -6.8469c-0.6276,-0.0396 -1.2469,-0.0695 -1.8581,-0.0892 -0.7696,0 -1.5304,0.0102 -2.2831,0.0302l0.1794 0.5639 1.9371 6.342z"/>
    </g>
   </g>
   <path id="_41439168" class="fil0 str2" d="M74.8622 83.708c0,0.2368 0,0.2368 0,0.4729l1.4199 -1.1825 0 -2.603 -3.5494 -3.5493 2.603 -8.9908c-9.4642,-3.3126 -17.9821,-4.9692 -25.3169,-5.2053 -9.9378,0 -18.4557,1.656 -25.7905,5.2053l2.6024 8.5179 -2.3656 2.3663c-1.8934,1.8927 -2.1295,3.5486 -0.7103,4.7318l0.4735 -0.7096c0.7096,-1.1832 3.0759,-2.1295 6.8613,-3.0759 5.206,-1.1831 11.5944,-1.6566 18.9292,-1.6566 6.3884,0 12.0666,0.4735 17.0358,1.6566 5.2053,1.1831 7.8076,2.6023 7.8076,4.0222z"/>
   <path id="_39428496" class="fil0 str2" d="M50.0188 62.65l0 -9.9378 -7.5715 -9.2275c-1.8928,-2.8397 -5.6789,-5.2053 -11.1209,-7.0986 -3.3126,-0.9464 -7.0981,-0.9464 -11.357,0 -3.7861,0.9463 -6.3884,3.0765 -7.8083,6.1523 -1.1831,3.0758 -1.656,6.3884 -0.9464,10.1738 0.7096,3.0759 2.3663,6.1517 4.7325,9.2276 1.4192,1.4198 4.0222,3.3125 8.2811,5.9155 7.3348,-3.5493 15.8527,-5.2053 25.7905,-5.2053z"/>
   <path id="_56467440" class="fil15" d="M26.395 52.5197c1.4533,1.1886 3.734,2.5342 5.1343,3.3901l0.4965 0.3034 0.4696 0.3436c2.4865,1.8194 4.7934,4.2439 7.0197,6.7916 0.335,-0.0475 0.6717,-0.0925 1.0105,-0.1351l-9.3421 -11.3854 -0.143 -0.2144c-0.8486,-0.6678 -2.6812,-1.4104 -3.833,-1.8326 -0.6848,-0.1411 -1.5011,-0.1286 -2.2939,-0.0461 0.003,0.0254 0.0063,0.051 0.0097,0.0768 0.2626,0.8497 0.8857,1.8688 1.4717,2.7081zm33.3931 11.1825c0.4742,-0.5372 0.9553,-1.0697 1.4446,-1.597 1.5413,-1.6608 3.1504,-3.2597 4.8513,-4.7573l0.7047 -0.6205 0.7813 -0.5209c2.2476,-1.4983 4.6266,-3.0417 6.6286,-4.8611 0.1986,-0.2649 0.3932,-0.7925 0.5412,-1.2756 -0.0266,-0.0063 -0.0516,-0.0119 -0.0745,-0.017l-0.1794 -0.0399 -0.1783 -0.0445c-0.6127,-0.1531 -1.3525,-0.1534 -1.9651,-0.0002l-0.6525 0.1631 -0.665 0.0998c-1.4018,0.2103 -2.3301,0.9604 -3.2227,2.0155l-3.6813 4.7642 -4.6805 6.6308 0.3476 0.0606z"/>
   <path id="_56981672" class="fil0" d="M52.8579 48.6901c2.3662,-3.5494 4.2589,-7.3348 4.7324,-11.1209 0.7096,-4.0222 0,-6.3885 -2.1294,-7.5716 -1.8934,-1.4192 -3.7861,-1.8927 -5.6789,-1.8927"/>
   <path id="_56888144" class="fil1" d="M52.8579 48.6901c2.3662,-3.5494 4.2589,-7.3348 4.7324,-11.1209 0.7096,-4.0222 0,-6.3885 -2.1294,-7.5716 -1.8934,-1.4192 -3.7861,-1.8927 -5.6789,-1.8927 -2.603,0 -4.4957,0.7103 -5.9155,2.3662 -1.8928,1.8928 -2.6024,3.7855 -2.3656,5.6789 0,2.6023 2.8391,8.2811 8.5179,16.5622l2.8391 -4.0221z"/>
   <g>
    <path id="_57017640" class="fil16" d="M51.2084 47.5587c2.002,-3.0064 3.9435,-6.6084 4.3974,-10.2377l0.0062 -0.0498 0.0087 -0.0495c0.242,-1.3715 0.5482,-3.8273 -0.4931,-4.9803 -0.1827,-0.2023 -0.4004,-0.3635 -0.638,-0.4955l-0.1192 -0.0662 -0.109 -0.0818c-1.3631,-1.0217 -2.7796,-1.493 -4.4794,-1.493 -1.7214,0 -3.2425,0.3213 -4.3972,1.668l-0.0499 0.0582 -0.0542 0.0542c-1.0808,1.0808 -1.9948,2.4212 -1.7953,4.0165l0.0155 0.1236 0 0.1246c0,1.3688 1.2985,4.0433 1.9106,5.242 1.3575,2.6585 2.9728,5.2757 4.6442,7.7999l1.1527 -1.6332z"/>
    <path id="_56980280" class="fil12" d="M50.1086 45.5815c1.618,-2.5529 3.1439,-5.5607 3.5126,-8.5087l0.0125 -0.0996 0.0174 -0.099c0.0873,-0.4948 0.4963,-3.0304 -0.1329,-3.38l-0.2383 -0.1324 -0.2181 -0.1635c-1.0168,-0.7622 -2.0127,-1.0934 -3.2798,-1.0934 -1.0876,0 -2.1385,0.1063 -2.8789,0.9698l-0.0998 0.1164 -0.1084 0.1084c-0.5807,0.5807 -1.3368,1.4593 -1.2249,2.3541l0.0309 0.2472 0 0.2456c0.0333,1.0027 1.2961,3.5674 1.754,4.4573 0.8649,1.6808 1.8339,3.3446 2.8537,4.9778z"/>
    <path id="_55510616" class="fil17" d="M50.0652 41.6104c0.7688,-1.558 1.3731,-3.1999 1.5715,-4.7858l0.0187 -0.1495 0.0261 -0.1483c0.0658,-0.3725 0.1854,-1.1605 0.1811,-1.7279l-0.0003 -0.0003c-0.6704,-0.5025 -1.2462,-0.6937 -2.0803,-0.6937 -0.3228,0 -1.1095,-0.0212 -1.3606,0.2717l-0.1497 0.1745 -0.1626 0.1626c-0.1587,0.1588 -0.519,0.5467 -0.6413,0.7982l0.0331 0.2644 0 0.2461c0.1944,1.2052 1.2676,3.3429 2.5643,5.588z"/>
    <path id="_56889256" class="fil18" d="M49.6779 36.3725l0.0341 -0.1932c0.0041,-0.0236 0.0085,-0.0484 0.013,-0.0743 -0.042,0.0002 -0.0877,0.0007 -0.135,0.0019 0.0267,0.0859 0.056,0.1745 0.0879,0.2656z"/>
   </g>
   <path id="_57122384" class="fil0 str3" d="M52.8579 48.6901c2.3662,-3.5494 4.2589,-7.3348 4.7324,-11.1209 0.7096,-4.0222 0,-6.3885 -2.1294,-7.5716 -1.8934,-1.4192 -3.7861,-1.8927 -5.6789,-1.8927"/>
   <path id="_56408944" class="fil0 str2" d="M52.8579 48.6901c2.3662,-3.5494 4.2589,-7.3348 4.7324,-11.1209 0.7096,-4.0222 0,-6.3885 -2.1294,-7.5716 -1.8934,-1.4192 -3.7861,-1.8927 -5.6789,-1.8927 -2.603,0 -4.4957,0.7103 -5.9155,2.3662 -1.8928,1.8928 -2.6024,3.7855 -2.3656,5.6789 0,2.6023 2.8391,8.2811 8.5179,16.5622l2.8391 -4.0221z"/>
   <line id="_56407984" class="fil0 str3" x1="49.782" y1="18.1678" x2="49.782" y2= "10.8323" />
   <line id="_57120752" class="fil0 str3" x1="41.737" y1="18.1678" x2="49.782" y2= "18.1678" />
   <line id="_57121568" class="fil0 str3" x1="49.782" y1="18.1678" x2="49.782" y2= "28.1049" />
   <line id="_57655280" class="fil0 str3" x1="57.1168" y1="18.1678" x2="49.782" y2= "18.1678" />
  </g>
 </g>
</svg>
