<?xml version="1.0" encoding="UTF-8"?>
<!DOCTYPE svg PUBLIC "-//W3C//DTD SVG 1.1//EN" "http://www.w3.org/Graphics/SVG/1.1/DTD/svg11.dtd">
<!-- Creator: CorelDRAW -->
<svg xmlns="http://www.w3.org/2000/svg" xml:space="preserve" width="99.8022mm" height="99.8022mm" style="shape-rendering:geometricPrecision; text-rendering:geometricPrecision; image-rendering:optimizeQuality; fill-rule:evenodd; clip-rule:evenodd"
viewBox="0 0 99.8022 99.8022"
 xmlns:xlink="http://www.w3.org/1999/xlink">
 <defs>
  <style type="text/css">
   <![CDATA[
    .str0 {stroke:white;stroke-width:0.0762}
    .str1 {stroke:#0A0B0C;stroke-width:1.4}
    .fil0 {fill:none}
    .fil2 {fill:#131213}
    .fil3 {fill:#1E1B1B}
    .fil4 {fill:#272423}
    .fil5 {fill:#342F2E}
    .fil6 {fill:#3E3A38}
    .fil7 {fill:#494543}
    .fil8 {fill:#534F4E}
    .fil9 {fill:#5D5958}
    .fil10 {fill:#676462}
    .fil11 {fill:#716E6D}
    .fil12 {fill:#797776}
    .fil13 {fill:#838281}
    .fil1 {fill:#0A0B0C}
   ]]>
  </style>
 </defs>
 <g id="Layer_x0020_1">
  <metadata id="CorelCorpID_0Corel-Layer"/>
  <rect class="fil0 str0" x="0.0381" y="0.0381" width="99.726" height="99.726"/>
  <path class="fil1" d="M75.7337 87.1081l0 1.3137c-1.1375,0.3854 -2.6569,0.6338 -4.5587,0.7289 -1.4192,0.2361 -8.5172,0.2361 -20.5845,0.2361 -12.304,0 -19.1653,0 -20.8219,-0.2361 -1.779,-0.0937 -3.2239,-0.336 -4.3213,-0.7115l0 -1.3311c0,-8.7546 0.0624,-16.3262 5.5044,-22.7146 3.5494,-4.0222 7.5716,-6.6252 12.0673,-8.0444l-1.4199 -0.7103 -0.7096 -0.2367 -1.8927 -1.4192c-3.3126,-2.603 -4.7325,-5.4421 -4.7325,-8.9914l0.2368 -2.3663c0.4728,-2.3655 1.8927,-4.495 4.4957,-6.3884 2.3662,-1.8927 5.2053,-3.0758 8.5179,-3.5487l2.8391 -0.2367 4.0222 0.4735c2.6029,0.4728 5.2053,1.6559 7.3347,3.3119 3.0759,2.3662 4.7325,5.4421 4.7325,8.7547 0,3.5493 -1.6566,6.3884 -4.7325,8.9914 -0.7096,0.4728 -1.8927,1.1831 -3.3126,1.8927 -0.1911,0.0955 -0.3864,0.1866 -0.5861,0.2736 0.1186,0.0647 0.2358,0.1309 0.3501,0.1999 4.4957,1.4192 8.2811,4.0222 11.8304,8.0444 5.4414,6.3884 5.7412,13.96 5.7412,22.7146zm-18.9019 -68.4448c-1.7604,-1.5344 -3.7724,-2.3012 -6.2878,-2.3012 -2.2638,0 -4.5275,0.7668 -6.2885,2.3012 -1.5087,1.5343 -2.5147,3.3238 -2.5147,5.625 0,2.0454 1.006,4.0915 2.5147,5.6251 1.8787,1.4322 3.8879,2.3012 6.2885,2.3012 1.5093,0 2.7663,-0.2558 4.024,-0.7668 0.7551,-0.5117 1.5094,-1.0227 2.2638,-1.5344 1.761,-1.5336 2.5154,-3.5797 2.5154,-5.6251 0,-2.3012 -0.7544,-4.0907 -2.5154,-5.625z"/>
  <g id="_57019280">
   <path id="_55542328" class="fil2" d="M68.481 65.7035c-3.0531,-3.4565 -6.5012,-6.052 -10.921,-7.4473l-0.2275 -0.0717 -0.2039 -0.1232c-0.0902,-0.0543 -0.182,-0.1061 -0.2742,-0.1565l-3.5878 -1.9569 3.7469 -1.6324c0.1653,-0.072 0.329,-0.1483 0.4905,-0.2287 1.0156,-0.5078 2.0505,-1.0784 3.0021,-1.7049 2.3135,-1.9796 3.9372,-4.2489 3.9371,-7.3904 0,-2.9724 -1.6611,-5.4071 -3.9519,-7.1694l-0.0085 -0.0065c-1.8393,-1.4306 -4.1119,-2.4847 -6.4049,-2.9121l-3.7584 -0.4423 -2.5787 0.215c-2.7587,0.4019 -5.3074,1.3729 -7.4947,3.1222l-0.0358 0.0288 -0.0371 0.027c-1.7609,1.281 -3.2271,2.8989 -3.6923,5.0735l-0.2163 2.1593c0.0281,3.1906 1.4624,5.35 3.9506,7.3098l1.6147 1.2108 0.5368 0.179 5.9636 2.9831 -4.7091 1.4865c-4.4375,1.4008 -8.087,3.9711 -11.1581,7.4473 -5.1783,6.0903 -5.0158,13.8457 -5.0157,21.4046l0 1.8079c0.6965,0.111 1.4706,0.1899 2.3212,0.2347 1.6566,0.2361 8.5179,0.2361 20.8219,0.2361 12.0673,0 19.1653,0 20.5845,-0.2361 0.948,-0.0474 1.8006,-0.1332 2.5587,-0.2547l0 -1.7878c0,-7.6218 -0.0564,-15.2934 -5.2527,-21.4047zm-22.8545 -45.5815c-1.1442,1.1801 -1.8856,2.4756 -1.8857,4.1664 0.0001,1.5246 0.81,3.0318 1.8438,4.1227 1.4939,1.1137 3.0601,1.8034 4.9594,1.8036 1.0975,-0.0003 2.0754,-0.162 3.085,-0.5465 0.6575,-0.4455 1.3153,-0.8913 1.9727,-1.3373 1.1671,-1.0571 1.7455,-2.468 1.7455,-4.0426 0,-1.7337 -0.5147,-2.9716 -1.8293,-4.1171 -1.4641,-1.2762 -3.0396,-1.8091 -4.974,-1.8091 -1.788,0.0001 -3.5521,0.5959 -4.9174,1.7599z"/>
   <path id="_57679832" class="fil3" d="M66.9695 67.0132c-2.8057,-3.173 -5.9494,-5.5672 -10.0114,-6.8495l-0.4551 -0.1436 -0.4081 -0.2467c-0.0651,-0.0393 -0.1318,-0.0763 -0.1984,-0.1127l-3.6951 -2.0157 -7.9782 2.5185c-4.0834,1.289 -7.4215,3.6541 -10.2486,6.8501 -4.7656,5.6178 -4.5274,13.1434 -4.5275,20.0945l0 2.0235c0.1061,0.0068 0.2129,0.0134 0.3215,0.0191 1.6566,0.2361 8.5179,0.2361 20.8219,0.2361 12.0673,0 19.1653,0 20.5845,-0.2361 0.1902,-0.0095 0.3761,-0.021 0.5586,-0.0335l0 -2.0091c0,-7.0319 0.0331,-14.4399 -4.7641,-20.0949zm-17.161 -11.7403l6.4058 -2.7907c0.1335,-0.0582 0.2655,-0.1196 0.3957,-0.1847 0.9071,-0.4535 1.8353,-0.9617 2.6915,-1.5176 1.7996,-1.559 3.1419,-3.3097 3.1417,-5.7884 0.0001,-2.332 -1.3866,-4.2112 -3.1714,-5.5845l-0.0166 -0.0126c-1.5706,-1.2213 -3.5228,-2.1362 -5.4804,-2.5128l-3.4893 -0.4105 -2.3158 0.1929c-2.3815,0.3556 -4.5825,1.1832 -6.4743,2.6962l-0.0718 0.0575 -0.0738 0.054c-1.3113,0.9537 -2.5082,2.1608 -2.8908,3.776l-0.1928 1.9245c0.0527,2.499 1.2064,4.0896 3.1681,5.639l1.336 1.0017 0.3641 0.1214 6.6741 3.3386zm-2.8151 -33.6872c-0.7348,0.7733 -1.2527,1.5916 -1.2524,2.7026 -0.0001,0.9365 0.5564,1.9214 1.1841,2.6258 1.0951,0.7908 2.2255,1.3004 3.619,1.3005 0.7791,0.0001 1.4607,-0.098 2.1683,-0.341 0.5458,-0.3702 1.092,-0.7401 1.6376,-1.1105 0.6844,-0.6647 0.997,-1.508 0.9973,-2.4749 -0.0002,-1.1524 -0.2689,-1.8473 -1.1434,-2.6092 -1.0984,-0.9576 -2.2097,-1.3169 -3.66,-1.3171 -1.2809,0.0002 -2.5569,0.4079 -3.5505,1.2238z"/>
   <path id="_57023440" class="fil4" d="M65.4571 68.3222c-2.5571,-2.8886 -5.398,-5.0823 -9.1012,-6.2514l-0.6822 -0.2154 -0.6124 -0.3699c-0.0403,-0.0241 -0.0816,-0.0466 -0.1228,-0.0691l-2.9472 -1.6078 -7.166 2.2622c-3.7292,1.1769 -6.7562,3.3371 -9.3388,6.2516 -4.3528,5.1479 -4.0395,12.4317 -4.0392,18.7857l0 2.1599c3.0218,0.1186 9.3625,0.1188 19.1432,0.1188 9.7506,0 16.2557,-0.0002 19.1432,-0.1248l0 -2.1538c-0.0001,-6.4268 0.1152,-13.5942 -4.2766,-18.786zm-15.5901 -15.2563l5.5486 -2.4173c0.1016,-0.044 0.2014,-0.0908 0.3004,-0.1401 0.7995,-0.3997 1.6212,-0.8464 2.3824,-1.3327 1.2834,-1.1254 2.3448,-2.3902 2.3447,-4.1841 0.0001,-1.6778 -1.1231,-3.024 -2.3908,-3.9992l-0.025 -0.0193c-1.3029,-1.0133 -2.937,-1.7888 -4.5624,-2.1139l-3.2135 -0.3785 -2.0488 0.1707c-2.0051,0.3071 -3.8612,0.9936 -5.458,2.2708l-0.1074 0.0858 -0.111 0.0807c-0.85,0.6183 -1.7925,1.4554 -2.0925,2.5106l-0.1646 1.6416c0.0735,1.7996 0.9494,2.8489 2.3852,3.9852l1.0566 0.7919 0.1913 0.0639 5.9648 2.9839zm-1.5202 -30.0011c-0.3207,0.3457 -0.606,0.7366 -0.6058,1.2236 -0.0002,0.3357 0.2861,0.8058 0.5537,1.1445 0.6793,0.4631 1.3854,0.7816 2.2494,0.7815 0.4706,0.0002 0.8735,-0.0434 1.2877,-0.1602 0.4061,-0.275 0.8118,-0.55 1.2176,-0.8254 0.2219,-0.2636 0.2978,-0.5669 0.2978,-0.9405 0,-0.5709 -0.0332,-0.7322 -0.4573,-1.1016 -0.7301,-0.6364 -1.3818,-0.8247 -2.3459,-0.8246 -0.7798,0 -1.5743,0.2265 -2.1972,0.7027z"/>
   <path id="_56410072" class="fil5" d="M63.9445 69.6308c-2.3077,-2.603 -4.848,-4.5975 -8.1906,-5.6528l-0.9097 -0.2872 -0.8126 -0.4907c-0.0045,-0.0025 -0.0086,-0.005 -0.0127,-0.0073 -0.01,-0.0055 -0.0226,-0.0124 -0.0384,-0.0207l-2.1993 -1.1999 -6.3539 2.0058c-3.3735,1.065 -6.0907,3.0203 -8.4279,5.6531 -3.9186,4.654 -3.5521,11.7632 -3.5522,17.4769l0 2.2139c3.4654,0.0646 9.1573,0.0649 17.1433,0.0649 7.9244,0 13.7056,-0.0002 17.1432,-0.0671l0 -2.2117c0.0001,-5.833 0.1948,-12.7496 -3.7892,-17.4772zm-14.019 -18.772l4.6913 -2.0438c0.0692,-0.0301 0.1377,-0.0619 0.2052,-0.0953 0.6953,-0.3478 1.4127,-0.7347 2.0816,-1.1544 0.771,-0.6822 1.5393,-1.5136 1.5397,-2.5738 -0.0001,-0.9868 -0.891,-1.8604 -1.6105,-2.4138l-0.0333 -0.0258c-1.0375,-0.8069 -2.356,-1.4434 -3.6527,-1.7165l-2.9297 -0.3446 -1.7774 0.1481c-1.6293,0.2576 -3.1444,0.8042 -4.4457,1.8451l-0.1431 0.1144 -0.1482 0.1077c-0.346,0.252 -1.0793,0.8244 -1.3019,1.321l-0.1252 1.2511c0.0885,1.0847 0.6915,1.6463 1.5965,2.3611l0.7791 0.5842 0.0186 0.0063 5.2557 2.629z"/>
   <path id="_56981816" class="fil6" d="M62.4306 70.938c-2.0565,-2.3156 -4.2992,-4.1122 -7.279,-5.0527l-1.1369 -0.359 -0.9867 -0.5956c-0.0017,-0.0011 -0.0035,-0.0019 -0.005,-0.0029l-1.4521 -0.7921 -5.5414 1.7495c-3.0175,0.9525 -5.4252,2.7028 -7.5162,5.0533 -3.4688,4.1437 -3.066,11.1237 -3.0658,16.1696l0 2.242c3.5048,0.0365 8.5395,0.0367 15.143,0.0367 6.5499,0 11.6348,-0.0002 15.1432,-0.038l0 -2.2409c-0.0001,-5.1926 0.2522,-11.9298 -3.3031,-16.1699zm-12.447 -22.2862l3.8345 -1.6704c0.0369,-0.0161 0.0735,-0.033 0.1097,-0.0509 0.5743,-0.2869 1.1692,-0.6047 1.7305,-0.9466 0.3141,-0.2956 0.676,-0.6713 0.7819,-0.9089 0.0015,-0.0144 0.0025,-0.0298 0.0027,-0.045 -0.1194,-0.2731 -0.625,-0.7098 -0.8296,-0.8672l-0.0414 -0.0321c-0.7756,-0.603 -1.7818,-1.1003 -2.7552,-1.3203l-2.6338 -0.3102 -1.501 0.1255c-1.2538,0.206 -2.4336,0.6162 -3.4386,1.4203l-0.179 0.1428 -0.1853 0.135c-0.1381,0.1004 -0.369,0.2755 -0.5421,0.441l-0.0505 0.506c0.1585,0.2413 0.5804,0.6018 0.8191,0.7933l0.5889 0.442 4.2892 2.1457z"/>
   <path id="_56013640" class="fil7" d="M60.9151 72.2436c-1.8025,-2.0257 -3.7518,-3.6261 -6.3655,-4.4511l-1.3643 -0.4307 -1.1537 -0.6964 -0.6706 -0.3662 -4.7296 1.4932c-2.6595,0.8395 -4.7588,2.3854 -6.6029,4.4517 -2.9987,3.614 -2.5813,10.52 -2.5813,14.8641l0 2.258c3.3322,0.0204 7.7057,0.0206 13.1433,0.0206 5.3963,0 9.7978,-0.0002 13.1432,-0.0213l0 -2.2574c0.0001,-4.5228 0.2907,-11.129 -2.8186,-14.8645zm-10.8728 -25.7987l2.9769 -1.2971c0.0053,-0.0021 0.0106,-0.0044 0.0144,-0.0063 0.0628,-0.0313 0.1257,-0.063 0.1888,-0.0953 -0.2492,-0.1097 -0.5047,-0.2002 -0.7543,-0.2631l-2.3194 -0.2728 -1.2183 0.1014c-0.5532,0.0952 -1.096,0.2414 -1.598,0.4772l2.7099 1.356z"/>
   <path id="_57019808" class="fil8" d="M59.3975 73.5466c-1.5452,-1.7322 -3.2075,-3.1392 -5.4499,-3.8468l-1.5918 -0.5026 -1.2124 -0.7318 -3.9098 1.2342c-2.2994,0.7262 -4.0926,2.0673 -5.6872,3.8474 -2.5028,3.0587 -2.0992,9.9581 -2.0988,13.5612l0 2.2674c3.0225,0.0109 6.7329,0.0112 11.1429,0.0112 4.381,0 8.1061,-0.0003 11.1432,-0.0116l0 -2.2672c0.0001,-3.8171 0.3061,-10.3522 -2.3362,-13.5614z"/>
   <path id="_57122672" class="fil9" d="M57.8763 74.8459c-1.2831,-1.4343 -2.6671,-2.6507 -4.5309,-3.2391l-1.8192 -0.5741 -0.6424 -0.388 -3.048 0.9622c-1.936,0.611 -3.4247,1.7477 -4.7674,3.2391 -1.9727,2.4699 -1.6213,9.4406 -1.621,12.262l0 2.2733c2.6156,0.0054 5.6611,0.0055 9.1431,0.0055 3.4629,0 6.5154,-0.0002 9.1431,-0.0058l0 -2.2728c0.0003,-3.0713 0.2892,-9.6083 -1.8573,-12.2623z"/>
   <path id="_57646272" class="fil10" d="M56.3498 76.139c-1.014,-1.1296 -2.1338,-2.16 -3.6063,-2.6249l-2.0466 -0.6461 -0.073 -0.0441 -2.1865 0.6901c-1.5657,0.4945 -2.7542,1.4261 -3.8411,2.6239 -1.3947,1.8359 -1.1491,8.9611 -1.149,10.97l0 2.2764c2.1345,0.0023 4.514,0.0025 7.1432,0.0025 2.6175,0 5.0005,-0.0002 7.1432,-0.0026l0 -2.2761c-0.0001,-2.2885 0.2269,-8.9111 -1.3839,-10.9691z"/>
   <path id="_57023368" class="fil11" d="M54.8144 77.4227c-0.7366,-0.8181 -1.6132,-1.6667 -2.6729,-2.0013l-1.5508 -0.4896 -1.551 0.4897c-1.1856,0.3741 -2.0804,1.0989 -2.9043,1.9969 -0.758,1.1493 -0.6881,8.5054 -0.6883,9.6897l0 2.2777c1.5943,0.0008 3.3077,0.001 5.1434,0.001 1.8299,0 3.5444,-0.0002 5.1433,-0.001l0 -2.2776c-0.0001,-1.4973 0.1086,-8.2737 -0.9194,-9.6855z"/>
   <path id="_55509760" class="fil12" d="M53.1997 78.6186c-0.4603,-0.5007 -1.0841,-1.108 -1.6604,-1.2898l-0.9488 -0.2997 -0.9487 0.2999c-0.7099,0.2238 -1.2773,0.6645 -1.7874,1.1822 -0.5139,1.8666 -0.4072,6.9058 -0.4069,8.5969l0 2.2783 3.143 0.0004 3.1429 -0.0004 0 -2.2783c0.0003,-1.5983 0.058,-6.8585 -0.5337,-8.4895z"/>
   <path id="_56884824" class="fil13" d="M51.3977 79.6335c-0.1656,-0.1622 -0.3335,-0.3109 -0.4732,-0.4019l-0.3342 -0.1053 -0.3464 0.1095c-0.1936,0.0613 -0.3821,0.174 -0.5589,0.311 -0.3467,2.0455 -0.2376,5.9079 -0.2379,7.5614l0 2.2785 1.1434 0.0001 1.1432 -0.0001 0 -2.2786c-0.0001,-1.593 0.0759,-5.5957 -0.336,-7.4746z"/>
  </g>
  <path class="fil0 str1" d="M75.7337 87.1081l0 1.3137c-1.1375,0.3854 -2.6569,0.6338 -4.5587,0.7289 -1.4192,0.2361 -8.5172,0.2361 -20.5845,0.2361 -12.304,0 -19.1653,0 -20.8219,-0.2361 -1.779,-0.0937 -3.2239,-0.336 -4.3213,-0.7115l0 -1.3311c0,-8.7546 0.0624,-16.3262 5.5044,-22.7146 3.5494,-4.0222 7.5716,-6.6252 12.0673,-8.0444l-1.4199 -0.7103 -0.7096 -0.2367 -1.8927 -1.4192c-3.3126,-2.603 -4.7325,-5.4421 -4.7325,-8.9914l0.2368 -2.3663c0.4728,-2.3655 1.8927,-4.495 4.4957,-6.3884 2.3662,-1.8927 5.2053,-3.0758 8.5179,-3.5487l2.8391 -0.2367 4.0222 0.4735c2.6029,0.4728 5.2053,1.6559 7.3347,3.3119 3.0759,2.3662 4.7325,5.4421 4.7325,8.7547 0,3.5493 -1.6566,6.3884 -4.7325,8.9914 -0.7096,0.4728 -1.8927,1.1831 -3.3126,1.8927 -0.1911,0.0955 -0.3864,0.1866 -0.5861,0.2736 0.1186,0.0647 0.2358,0.1309 0.3501,0.1999 4.4957,1.4192 8.2811,4.0222 11.8304,8.0444 5.4414,6.3884 5.7412,13.96 5.7412,22.7146zm-18.9019 -68.4448c-1.7604,-1.5344 -3.7724,-2.3012 -6.2878,-2.3012 -2.2638,0 -4.5275,0.7668 -6.2885,2.3012 -1.5087,1.5343 -2.5147,3.3238 -2.5147,5.625 0,2.0454 1.006,4.0915 2.5147,5.6251 1.8787,1.4322 3.8879,2.3012 6.2885,2.3012 1.5093,0 2.7663,-0.2558 4.024,-0.7668 0.7551,-0.5117 1.5094,-1.0227 2.2638,-1.5344 1.761,-1.5336 2.5154,-3.5797 2.5154,-5.6251 0,-2.3012 -0.7544,-4.0907 -2.5154,-5.625z"/>
 </g>
</svg>
