<?xml version="1.0" encoding="UTF-8"?>
<!DOCTYPE svg PUBLIC "-//W3C//DTD SVG 1.1//EN" "http://www.w3.org/Graphics/SVG/1.1/DTD/svg11.dtd">
<!-- Creator: CorelDRAW -->
<svg xmlns="http://www.w3.org/2000/svg" xml:space="preserve" width="99.8022mm" height="99.8022mm" style="shape-rendering:geometricPrecision; text-rendering:geometricPrecision; image-rendering:optimizeQuality; fill-rule:evenodd; clip-rule:evenodd"
viewBox="0 0 99.8022 99.8022"
 xmlns:xlink="http://www.w3.org/1999/xlink">
 <defs>
  <style type="text/css">
   <![CDATA[
    .str0 {stroke:white;stroke-width:0.0762}
    .str2 {stroke:#0A0B0C;stroke-width:1.4111}
    .str1 {stroke:#1F1A17;stroke-width:1.4111}
    .fil0 {fill:none}
    .fil4 {fill:#100F11}
    .fil5 {fill:#151314}
    .fil6 {fill:#1D1A1A}
    .fil7 {fill:#242020}
    .fil8 {fill:#2C2827}
    .fil2 {fill:#342F2E}
    .fil9 {fill:#353130}
    .fil10 {fill:#3E3A39}
    .fil11 {fill:#484443}
    .fil18 {fill:#4D4948}
    .fil12 {fill:#524F4D}
    .fil13 {fill:#5C5857}
    .fil14 {fill:#666361}
    .fil15 {fill:#6E6B6A}
    .fil3 {fill:#72706F}
    .fil16 {fill:#797776}
    .fil17 {fill:#838281}
    .fil1 {fill:#0A0B0C}
   ]]>
  </style>
 </defs>
 <g id="Layer_x0020_1">
  <metadata id="CorelCorpID_0Corel-Layer"/>
  <rect class="fil0 str0" x="0.0381" y="0.0381" width="99.726" height="99.726"/>
  <g id="_56989288">
   <path id="_57646808" class="fil0 str1" d="M26.7472 71.9205c0.9463,1.1831 0.9463,2.603 0,4.0228l-2.7218 5.6708c-0.1133,0.2361 -0.1797,0.2978 0.0161,0.0523 0.8646,-1.0952 3.3992,-1.9899 7.2014,-2.884 5.2053,-0.9463 11.5937,-1.4199 18.9285,-1.4199 7.3348,0 13.4864,0.4736 18.6917,1.4199 2.9498,0.6204 5.0853,1.3441 6.4059,2.1027 1.5211,0.8739 1.7277,1.886 0.6224,-0.4105l-2.2958 -4.768c-0.7096,-1.6566 -0.7096,-3.3126 0,-4.9692l2.8391 -3.5487c-17.7454,-4.7325 -35.4908,-4.7325 -53.2369,0l3.5494 4.7318z"/>
   <path id="_57233576" class="fil0 str2" d="M17.0461 26.7287c0,-1.4199 -0.4728,-2.3663 -1.4198,-3.3126 -0.7096,-0.9464 -1.8928,-1.4199 -3.0759,-1.4199 -1.4192,0 -2.3662,0.4735 -3.5487,1.4199 -0.7102,0.9463 -1.1831,1.8927 -1.1831,3.3126 0,1.1831 0.4729,2.3662 1.1831,3.0758 1.1825,0.9463 2.1295,1.4199 3.5487,1.4199 0.4735,0 0.9464,0 1.1831,0l5.9156 30.9951c0.2361,1.6566 1.4192,3.3126 3.5487,4.9692 17.7461,-4.7325 35.4915,-4.7325 53.2369,0 1.8927,-1.4199 2.8397,-3.0759 3.3126,-4.9692 1.8927,-10.6474 4.0222,-21.058 5.9156,-31.7054 0.7096,0.2367 1.1824,0.4735 1.8927,0.4735 1.4192,0 2.6023,-0.4735 3.5486,-1.4199 0.9471,-0.9463 1.4199,-2.1294 1.4199,-3.5493 0,-1.1825 -0.4728,-2.3656 -1.4199,-3.3119 -0.9463,-0.9471 -2.1294,-1.4199 -3.5486,-1.4199 -1.1831,0 -2.3663,0.4728 -3.3126,1.4199 -0.9464,0.9463 -1.4199,2.1294 -1.4199,3.3119 0,1.4199 0.4735,2.603 1.4199,3.5493 0.4728,0.4735 0.9463,0.7096 1.4199,0.9464l-12.7769 24.3706 -1.6566 2.3662 -1.1831 -3.3126 -1.1832 -30.0487c0.2368,0.2361 0.4736,0.2361 0.9464,0.2361 1.1831,0 2.3662,-0.4729 3.0765,-1.4192 0.9464,-0.9471 1.4192,-1.8934 1.4192,-3.3126 0,-1.1831 -0.4728,-2.3663 -1.4192,-3.3126 -0.7103,-0.7103 -1.8934,-1.1831 -3.0765,-1.1831 -1.4192,0 -2.3656,0.4728 -3.3119,1.1831 -0.9471,0.9463 -1.4199,2.1295 -1.4199,3.3126 0,1.4192 0.4728,2.3655 1.4199,3.3126 0.7096,0.7096 1.4192,1.1831 2.3655,1.1831l-8.9907 28.156 -2.603 3.5493 -1.656 -3.0758 -5.442 -30.9958c1.1831,0 2.3662,-0.4735 3.3126,-1.4198 0.9463,-0.9464 1.4192,-2.1295 1.4192,-3.3126 0,-1.4199 -0.4729,-2.6023 -1.4192,-3.5487 -0.9464,-0.7103 -2.1295,-1.1831 -3.3126,-1.1831 -1.4199,0 -2.603,0.4728 -3.5494,1.1831 -0.9463,0.9464 -1.1831,2.1288 -1.1831,3.5487 0,1.1831 0.2368,2.3662 1.1831,3.3126 0.9464,0.9463 2.1295,1.4198 3.5494,1.4198l-5.6788 30.5223 -1.4193 3.7861 -2.3662 -3.0765 -9.701 -28.3928c0.9464,0 1.656,-0.4728 2.3662,-1.1831 0.9464,-0.9464 1.4192,-2.1295 1.4192,-3.3126 0,-1.4192 -0.4728,-2.6023 -1.4192,-3.5487 -0.9463,-0.7102 -2.1294,-1.1831 -3.3126,-1.1831 -1.4198,0 -2.6029,0.4729 -3.5493,1.1831 -0.9464,0.9464 -1.1831,2.1295 -1.1831,3.5487 0,1.1831 0.2367,2.3662 1.1831,3.3126 0.9464,0.9464 2.1295,1.4199 3.5493,1.4199 0.2368,0 0.7096,0 0.9464,-0.2368l0 29.8127 -1.1831 4.4957 -16.0895 -27.4464c0.7096,-0.2368 1.1832,-0.7103 1.8928,-1.4199 0.947,-0.7096 1.4198,-1.8927 1.4198,-3.0758z"/>
   <circle id="_57351368" class="fil1" cx="50.1203" cy="16.1417" r="5.0585"/>
   <g>
    <circle id="_57175760" class="fil2" cx="50.1203" cy="16.1417" r="3.0585"/>
    <circle id="_57367320" class="fil3" cx="50.1203" cy="16.1417" r="1.0585"/>
   </g>
   <circle id="_57702960" class="fil1" cx="69.6688" cy="18.4357" r="5.0585"/>
   <g>
    <circle id="_57701064" class="fil2" cx="69.6688" cy="18.4357" r="3.0585"/>
    <circle id="_57355712" class="fil3" cx="69.6688" cy="18.4357" r="1.0585"/>
   </g>
   <circle id="_57465848" class="fil1" cx="87.1529" cy="25.6478" r="5.0585"/>
   <g>
    <circle id="_57707656" class="fil2" cx="87.1529" cy="25.6478" r="3.0585"/>
    <circle id="_57706056" class="fil3" cx="87.1529" cy="25.6478" r="1.0585"/>
   </g>
   <circle id="_57470736" class="fil1" cx="30.548" cy="19.4942" r="5.0585"/>
   <g>
    <circle id="_57469256" class="fil2" cx="30.548" cy="19.4942" r="3.0585"/>
    <circle id="_57468400" class="fil3" cx="30.548" cy="19.4942" r="1.0585"/>
   </g>
   <circle id="_58523176" class="fil1" cx="12.3365" cy="26.3964" r="5.0585"/>
   <g>
    <circle id="_57366912" class="fil2" cx="12.3365" cy="26.3964" r="3.0585"/>
    <circle id="_57362344" class="fil3" cx="12.3365" cy="26.3964" r="1.0585"/>
   </g>
   <g>
    <path id="_57155360" class="fil1" d="M76.2377 81.5762l0.1451 0.1442c-0.0452,-0.0481 -0.0936,-0.0962 -0.1451,-0.1442zm0.43 1.3141c-0.1032,1.3819 -2.7047,2.5412 -7.8046,3.7004 -5.2053,0.9464 -11.3569,-6.344 -18.6917,-6.344 -7.3348,0 -13.7232,7.2904 -18.9285,6.344 -4.7952,-1.0899 -7.3816,-2.1801 -7.7595,-3.4551l0 -0.2453c-0.0273,0 -0.0398,-0.0044 -0.0457,-0.0139 -0.0016,-0.0239 -0.0031,-0.0477 -0.0031,-0.0718 0,-0.6728 0.7884,-1.7117 1.8706,-3.7399 0.3915,-0.7336 1.1192,-2.4488 1.442,-3.1214 0.9463,-1.4198 0.9463,-2.8397 0,-4.0228l-3.5494 -4.7318c-1.6239,-1.2633 -2.697,-2.5259 -3.22,-3.789l-2.2619 -11.3092 -3.9792 -20.8496 0.0055 -0.0016 16.0808 27.4315 1.1831 -4.4957 0 -29.8127 0.2083 -0.0308 0.0525 0.0245c-0.0535,0.0032 -0.1082,0.0046 -0.1638,0.0046l9.604 28.3945 2.3662 3.0765 1.4193 -3.7861 5.6788 -30.5223 0.1817 -0.0037c-0.0605,0.0025 -0.1212,0.0037 -0.1817,0.0037l5.442 30.9958 1.656 3.0758 2.603 -3.5493 8.9907 -28.156 0 0 1.1832 30.0487 1.1831 3.3126 1.6566 -2.3662 12.7769 -24.3706 -0.0613 0.3435 -6.4373 32.9693 -0.0001 0c-0.2798,0.638 -0.6389,1.245 -1.0996,1.8209 -0.4452,0.5414 -0.982,1.0548 -1.6299,1.5409l-0.0671 0.0839 -0.0024 0.0018 -2.8391 3.5487c-0.7096,1.6566 -0.7096,3.3126 0,4.9692l2.2958 4.768c0.2842,0.5906 0.4814,0.962 0.5921,1.1735 -0.0492,-0.0451 -0.1084,-0.0989 -0.1782,-0.1594l0.0019 0.0018c0.0517,0.0481 0.0999,0.096 0.1451,0.1442l0.0075 0.0081 0.0077 0.0081 0.0073 0.0081 0.0075 0.0081 0.0268 0.0301c0.1657,0.3191 0.0748,0.179 -0.2733,-0.1228l0.0019 0.0018c0.0517,0.0481 0.0999,0.096 0.1451,0.1442l0.0075 0.0081 0.0077 0.0081 0.0073 0.0081 0.0075 0.0081 0.0292 0.0327 0.0071 0.0081 0.0072 0.0081 0.0015 0.0018 0.0193 0.0225 0.007 0.0084 0.0066 0.0081 0.0067 0.0081 0.0066 0.0081 0.0067 0.0081 0.0123 0.0154 0.0007 0.0008 0.0063 0.0081 0.0121 0.0158 0.0006 0.0007 0.0063 0.0081 0.0004 0.0006 0.0115 0.015 0.0302 0.0414 0.0058 0.0081 0.0023 0.0032 0.0033 0.0049 0 0.0001 0.0318 0.0471 0.0011 0.0017 0.0012 0.0017 0.0011 0.0017c0.0115,0.0178 0.0228,0.0356 0.0334,0.0534l0.0003 0.0004c0,0.2368 0,0.4729 0,0.7096l0.0658 0zm-45.6616 -58.5279c-0.0891,0.0891 -0.2114,0.1447 -0.3421,0.1794l0.3421 -0.1794zm45.1621 57.2995l0.1451 0.1442c-0.0452,-0.0481 -0.0936,-0.0962 -0.1451,-0.1442zm9.5001 -51.146l-0.0054 -0.0018 0.0054 0.0018z"/>
    <g>
     <path id="_58569248" class="fil4" d="M73.2176 81.737l-0.0421 -0.0418 0.0761 -0.0791 -0.0066 -0.0066 0.4762 -0.4948 -2.1375 -4.4393 -0.0185 -0.0432c-0.9392,-2.1927 -0.9392,-4.4563 0,-6.649l0.1142 -0.2664 3.1893 -3.9865 0.0022 -0.0017 0.067 -0.0837 0.2166 -0.1625c0.4602,-0.3453 0.8865,-0.7344 1.2533,-1.1784 0.2807,-0.3526 0.5169,-0.7307 0.7115,-1.135l5.0895 -26.0665 -9.3228 17.7822 -1.6566 2.3662 -1.1831 -3.3126 -1.1791 -29.945 -0.0414 0.0131 -8.9534 28.0392 -2.603 3.5493 -1.656 -3.0758 -4.5466 -25.8957c-0.6072,-0.0097 -1.2182,-0.0291 -1.8334,-0.0584l-4.7408 25.4806 -1.4193 3.7861 -2.3662 -3.0765 -9.604 -28.3945c0.2975,0 0.5622,-0.0463 0.8072,-0.1322l-0.9042 0.1339 0 29.8127 -1.1831 4.4957 -12.8694 -21.9533 2.8559 14.9639 2.2143 11.071c0.5077,1.0689 1.5841,2.0527 2.4838,2.7526l0.2253 0.1753 3.703 4.9365c1.541,1.9505 1.476,4.322 0.177,6.3702 -0.4817,1.0196 -0.8957,2.0888 -1.4257,3.0819 -0.3797,0.7117 -0.7835,1.4036 -1.1844,2.1028 -0.1014,0.1768 -0.2752,0.4607 -0.3862,0.6954l0 1.0216 -0.4729 0.5862c-0.0309,0.0382 -0.0578,0.0882 -0.0818,0.1479 1.2914,0.6813 3.3514,1.3248 6.181,1.9679 5.2053,0.9464 11.5937,-6.344 18.9285,-6.344 7.3348,0 13.4864,7.2904 18.6917,6.344 2.4412,-0.5549 4.3093,-1.1101 5.6056,-1.6894l0 -1.911 -1.2843 -1.2167 0.0332 -0.0366zm-42.2115 -57.3746c-0.0891,0.0891 -0.2114,0.1447 -0.3421,0.1794l0.3421 -0.1794z"/>
     <path id="_58567568" class="fil5" d="M70.2796 81.8137l-0.0858 -0.0853 0.0761 -0.0791 -0.0066 -0.0066 0.902 -0.9373 -1.5168 -3.1501 -0.0369 -0.0862c-1.1682,-2.7272 -1.1682,-5.5956 0,-8.3228l0.2278 -0.5318 3.5382 -4.4226 0.0021 -0.0016 0.0669 -0.0836 0.4324 -0.3244c0.3199,-0.24 0.6213,-0.5094 0.8779,-0.8171 0.1256,-0.1593 0.2366,-0.3259 0.3345,-0.5007l3.6669 -18.7805 -5.8723 11.2007 -1.6566 2.3662 -1.1831 -3.3126 -1.0925 -27.7458c-0.3038,0.0932 -0.6082,0.1837 -0.9129,0.272l-8.1685 25.5811 -2.603 3.5493 -1.656 -3.0758 -4.1724 -23.7644c-0.8591,-0.008 -1.7258,-0.0353 -2.6,-0.0811l-4.3484 23.372 -1.4193 3.7861 -2.3662 -3.0765 -9.1198 -26.9631c-0.1938,-0.0484 -0.3875,-0.097 -0.5812,-0.146l0 28.529 -1.1831 4.4957 -9.6612 -16.4806 1.7336 9.0835 2.1523 10.7613c0.398,0.662 1.2373,1.382 1.7649,1.7925l0.4499 0.3499 3.8587 5.1443c2.0566,2.6215 2.0646,5.9072 0.3592,8.687 -0.7544,1.6 -0.22,0.8157 -1.4181,3.0608 -0.3794,0.7111 -0.9271,1.548 -1.3204,2.3004l0 1.2692 -0.6612 0.8197c1.1265,0.3823 2.5137,0.7572 4.1622,1.1319 5.2053,0.9464 11.5937,-6.344 18.9285,-6.344 7.3348,0 13.4864,7.2904 18.6917,6.344 1.3303,-0.3024 2.49,-0.605 3.4803,-0.9113l0 -1.7749 -2.1299 -2.0178 0.0661 -0.073z"/>
     <path id="_58481080" class="fil6" d="M67.3484 81.8861l-0.1254 -0.1247 0.0761 -0.0791 -0.0066 -0.0066 1.3262 -1.378 -0.8984 -1.8658 -0.0553 -0.129c-1.3962,-3.2597 -1.3962,-6.7307 0,-9.9904l0.3411 -0.7962 3.8859 -4.8572 0.002 -0.0014 0.0667 -0.0835 0.6474 -0.4857c0.1711,-0.1284 0.3411,-0.2728 0.4839,-0.4345l2.2283 -11.4125 -2.4343 4.6432 -1.6566 2.3662 -1.1831 -3.3126 -1.0065 -25.5608c-0.5881,0.1747 -1.1773,0.3412 -1.7689,0.4983l-7.3985 23.1698 -2.603 3.5493 -1.656 -3.0758 -3.8002 -21.6448c-1.1092,-0.0033 -2.2298,-0.0367 -3.3628,-0.1011l-3.9578 21.2724 -1.4193 3.7861 -2.3662 -3.0765 -8.3171 -24.5898c-0.4616,-0.1117 -0.9228,-0.2253 -1.3839,-0.3408l0 26.3505 -1.1831 4.4957 -6.4647 -11.0279 0.6154 3.2247 2.0617 10.3082c0.3031,0.354 0.8182,0.7786 1.0775,0.9803l0.6735 0.5239 4.0158 5.3536c2.5644,3.2845 2.6455,7.4701 0.5477,10.9759 -0.673,1.4414 -0.2118,0.7942 -1.4193,3.0569 -0.3277,0.614 -0.7188,1.244 -1.0711,1.8666l0 1.4537 -0.5837 0.7236c0.6084,0.1605 1.2637,0.3205 1.9671,0.4804 5.2053,0.9464 11.5937,-6.344 18.9285,-6.344 7.3348,0 13.4864,7.2904 18.6917,6.344 0.4761,-0.1082 0.9302,-0.2166 1.3627,-0.325l0 -1.4504 -2.9724 -2.8159 0.0739 -0.0816 -0.0041 -0.0039 0.0252 -0.0278z"/>
     <path id="_58482992" class="fil7" d="M64.4319 81.9623l-0.169 -0.168 0.0762 -0.0791 -0.0067 -0.0066 1.749 -1.8171 -0.2822 -0.5861 -0.0736 -0.1718c-1.6235,-3.7901 -1.6235,-7.8617 0,-11.6518l0.454 -1.0598 4.2322 -5.2901 0.0018 -0.0013 0.0667 -0.0833 0.6801 -0.5103 0.8631 -4.4203 -0.7941 1.1342 -1.1831 -3.3126 -0.9209 -23.3876c-0.8665,0.2499 -1.7367,0.4816 -2.611,0.6943l-6.642 20.8006 -2.603 3.5493 -1.656 -3.0758 -3.4297 -19.5344c-1.3573,0.004 -2.7309,-0.0357 -4.1223,-0.1206l-3.5688 19.1815 -1.4193 3.7861 -2.3662 -3.0765 -7.521 -22.2361c-0.7275,-0.1699 -1.4541,-0.3452 -2.18,-0.5251l0 24.1811 -1.1831 4.4957 -3.2436 -5.5332 1.4005 7.0024c0.1508,0.1327 0.31,0.2586 0.4285,0.3508l0.8963 0.6973 4.1735 5.5638c3.0665,3.941 3.2208,9.0153 0.7406,13.2424 -0.605,1.3093 -0.2113,0.7877 -1.4268,3.0654 -0.2588,0.4851 -0.5437,0.9666 -0.8226,1.4476l0 1.6243 -0.4076 0.5053c5.1466,0.6057 11.4237,-6.3902 18.6096,-6.3902 6.987,0 12.9,6.6152 17.9445,6.4245l0 -0.9483 -3.8119 -3.6113 0.0739 -0.0815 -0.004 -0.0038 0.058 -0.064z"/>
     <path id="_58524960" class="fil8" d="M61.5261 82.0382l-0.2124 -0.2111 0.0761 -0.0791 -0.0066 -0.0066 2.2017 -2.2876c-1.6388,-4.1754 -1.5694,-8.6497 0.2083,-12.7998l0.5664 -1.3222 4.5774 -5.7215 0.0017 -0.0013 0.0665 -0.0832 0.2469 -0.1852 0.9627 -4.9305 -0.1685 -0.4718 -0.8358 -21.2266c-1.1403,0.3194 -2.2867,0.6082 -3.4407,0.8651l-5.8974 18.4688 -2.603 3.5493 -1.656 -3.0758 -3.0609 -17.4339c-1.604,0.0136 -3.2292,-0.032 -4.8785,-0.1389l-3.1814 17.0993 -1.4193 3.7861 -2.3662 -3.0765 -6.7316 -19.9023c-0.9915,-0.2225 -1.9813,-0.456 -2.9694,-0.6982l0 22.0204 -1.1792 4.4807 0.0652 0.3258 0.9255 0.72 4.3315 5.7745c3.5622,4.5903 3.7913,10.5411 0.9401,15.4838 -0.5706,1.2486 -0.2221,0.8027 -1.4425,3.0894 -0.1846,0.3459 -0.379,0.6875 -0.5751,1.0277l0 1.3394c4.6327,-1.1999 10.0434,-6.1697 16.0998,-6.1697 5.8919,0 11.0199,4.7032 15.5077,6.0634l-4.3137 -4.0866 0.0739 -0.0816 -0.0039 -0.0037 0.0907 -0.1z"/>
     <path id="_58524032" class="fil9" d="M58.6307 82.1139l-0.2556 -0.2541 0.0761 -0.0791 -0.0066 -0.0066 2.736 -2.8427c-1.3552,-4.3145 -1.1261,-8.8688 0.6872,-13.1021l0.6784 -1.5839 4.7808 -5.9757 2.4049 -12.3166 -0.4368 -11.0918c-1.4096,0.3841 -2.8285,0.7225 -4.2591,1.0136l-5.1636 16.1707 -2.603 3.5493 -1.656 -3.0758 -2.6938 -15.3429c-1.8492,0.0253 -3.7249,-0.0257 -5.6315,-0.1561l-2.7955 15.0255 -1.4193 3.7861 -2.3662 -3.0765 -5.9492 -17.589c-1.2541,-0.2694 -2.5043,-0.5578 -3.7518,-0.8602l0 19.5653 0.7871 3.9354 0.5318 0.4138 4.4897 5.9853c4.0519,5.2325 4.3574,12.0482 1.146,17.7009 -0.569,1.2573 -0.2431,0.8372 -1.466,3.1287 -0.1072,0.2009 -0.2171,0.4001 -0.3285,0.5982l0 0.0365c4.1441,-1.8083 8.8398,-5.4234 14.0052,-5.4234 3.3354,0 6.4259,1.5074 9.2943,3.0624l-1.0283 -0.9742 0.0739 -0.0815 -0.0038 -0.0036 0.1232 -0.1359z"/>
     <path id="_57170288" class="fil10" d="M55.8005 81.5117l3.0473 -3.1663c-1.1073,-4.4247 -0.7402,-9.0383 1.1015,-13.3379l0.7901 -1.8445 4.6375 -5.7966 3.9752 -20.3594c-1.6658,0.4411 -3.3449,0.8203 -5.0401,1.1353l-4.4396 13.9033 -2.603 3.5493 -1.656 -3.0758 -2.3282 -13.2607c-2.0928,0.0387 -4.2182,-0.018 -6.3813,-0.1732l-2.4113 12.9604 -1.4193 3.7861 -2.3662 -3.0765 -5.1737 -15.2961c-1.5149,-0.3103 -3.0235,-0.6502 -4.5273,-1.0106l0 6.4922 1.2056 6.317 1.4758 7.3784 0.1395 0.1086 4.6478 6.1961c4.538,5.8706 4.92,13.5442 1.3535,19.903 -0.2988,0.6654 -0.357,0.8737 -0.5226,1.2542 3.3304,-1.7887 6.9641,-3.8513 10.8657,-3.8513 1.9593,0 3.8341,0.5205 5.6291,1.265z"/>
     <path id="_57171768" class="fil11" d="M53.6422 80.7554l2.9329 -3.0474c-0.8889,-4.5112 -0.4014,-9.1676 1.4626,-13.5193l0.9014 -2.1042 4.4947 -5.6182 3.257 -16.681c-1.0255,0.2217 -2.0568,0.4207 -3.0939,0.5963l-3.7245 11.664 -2.603 3.5493 -1.656 -3.0758 -1.9643 -11.1881c-2.3354,0.054 -4.709,-0.0073 -7.128,-0.1884l-2.0285 10.903 -1.4193 3.7861 -2.3662 -3.0765 -4.4052 -13.0242c-1.3224,-0.2571 -2.639,-0.538 -3.9509,-0.8365l1.9017 9.9643 1.3603 6.8013 4.5165 6.021c4.7222,6.1179 5.4082,14.0226 2.2142,20.8164 2.4684,-1.2289 5.0816,-2.2508 7.8277,-2.2508 1.1878,0 2.3441,0.1923 3.4708,0.5087z"/>
     <path id="_58485552" class="fil12" d="M51.2095 80.2948l3.1441 -3.2668c-0.6949,-4.5774 -0.1018,-9.2634 1.7794,-13.6552l1.0122 -2.363 4.3525 -5.4403 2.5707 -13.1661c-0.3919,0.0671 -0.7847,0.1309 -1.1782,0.1915l-3.0178 9.4507 -2.603 3.5493 -1.656 -3.0758 -1.6019 -9.1242c-2.5766,0.0707 -5.1976,0.0049 -7.8716,-0.2033l-1.6473 8.854 -1.4193 3.7861 -2.3662 -3.0765 -3.6438 -10.773c-0.6987,-0.1284 -1.3957,-0.2638 -2.0908,-0.4051l1.3139 6.8843 1.2663 6.3313 4.2259 5.6336c4.7155,6.117 5.7813,13.8771 3.3033,20.857 1.6405,-0.6201 3.3378,-1.0366 5.0895,-1.0366 0.3488,0 0.6947,0.0168 1.0381,0.0481z"/>
     <path id="_58484216" class="fil13" d="M48.2323 80.4106l3.9443 -4.0982c-0.5216,-4.6266 0.1645,-9.3312 2.0584,-13.7526l1.1226 -2.6208 4.2108 -5.2632 0.8433 -4.3192 -0.5393 1.689 -2.603 3.5493 -1.656 -3.0758 -1.2411 -7.0688c-2.8168,0.0888 -5.6839,0.0187 -8.6122,-0.2173l-1.2675 6.8126 -1.4193 3.7861 -2.3662 -3.0765 -2.8892 -8.5421 -0.2485 -0.0434 0.7435 3.8956 1.1726 5.8632 3.9367 5.248c4.8259,6.2671 6.1531,14.1305 4.0613,21.3779 0.2484,-0.055 0.498,-0.1026 0.7488,-0.1438z"/>
     <path id="_57471424" class="fil14" d="M54.7316 47.4969c-3.0556,0.1079 -6.1682,0.0338 -9.3497,-0.231l-0.8893 4.7797 -1.2821 3.4201 1.8497 2.4659c0.4802,0.6242 0.9285,1.2631 1.3449,1.9149l0.1221 0 0 0.193c1.8925,3.0195 3.1063,6.3089 3.6465,9.6835 0.3386,-2.7073 1.062,-5.3864 2.1701,-7.9733l1.2327 -2.8778 3.262 -4.0773 -1.2251 -2.2755 -0.8818 -5.0222z"/>
     <path id="_57363408" class="fil15" d="M55.0895 49.5353c-3.2936,0.1285 -6.6506,0.051 -10.0846,-0.2434l-0.5123 2.7537 -0.4281 1.1419 2.6283 3.5039c0.2795,0.3637 0.5491,0.7322 0.8086,1.105l1.0759 0 0 1.6654c0.519,0.868 0.987,1.7558 1.4041,2.6597 0.1511,-0.3949 0.3103,-0.788 0.4779,-1.179l1.3423 -3.1338 3.9288 -4.9108 0.0231 -0.1185 -0.1401 -0.2603 -0.5239 -2.9838z"/>
     <path id="_57174624" class="fil16" d="M53.8991 51.6167c-2.8349,0.0656 -5.7157,-0.0173 -8.6501,-0.2546l3.0707 4.0937c0.076,0.0989 0.1512,0.1981 0.2258,0.2976l2.0748 0 0 0.2617 3.2013 -4.0014 0.0775 -0.397z"/>
     <path id="_57173208" class="fil17" d="M49.9073 53.6476c-0.1357,-0.0034 -0.2716,-0.0071 -0.4075,-0.0112l0.061 0.0813 0.2904 0 0.0561 -0.0701z"/>
    </g>
   </g>
   <path id="_57401288" class="fil18 str2" d="M23.8533 82.3304c-0.2368,0.2368 -0.4735,0.4736 -0.4735,0.9464 0,1.4199 2.6029,2.603 7.8083,3.7861 5.2053,0.9464 11.5937,1.656 18.9285,1.656 7.3348,0 13.4864,-0.7096 18.6917,-1.656 5.2053,-1.1831 7.8083,-2.3662 7.8083,-3.7861 0,-0.2367 0,-0.4728 0,-0.7096 -0.7096,-1.1831 -3.3126,-2.3662 -7.8083,-3.3126 -5.2053,-0.9463 -11.3569,-1.4199 -18.6917,-1.4199 -7.3348,0 -13.7232,0.4736 -18.9285,1.4199 -4.0222,0.9464 -6.6252,1.8927 -7.3348,3.0758z"/>
   <path id="_56887200" class="fil0 str2" d="M26.7472 71.9205c0.9463,1.1831 0.9463,2.603 0,4.0228l-2.7218 5.6708c-0.1133,0.2361 -0.1797,0.2978 0.0161,0.0523 0.8646,-1.0952 3.3992,-1.9899 7.2014,-2.884 5.2053,-0.9463 11.5937,-1.4199 18.9285,-1.4199 7.3348,0 13.4864,0.4736 18.6917,1.4199 2.9498,0.6204 5.0853,1.3441 6.4059,2.1027 1.5211,0.8739 1.7277,1.886 0.6224,-0.4105l-2.2958 -4.768c-0.7096,-1.6566 -0.7096,-3.3126 0,-4.9692l2.8391 -3.5487c-17.7454,-4.7325 -35.4908,-4.7325 -53.2369,0l3.5494 4.7318z"/>
   <path id="_57884584" class="fil0 str2" d="M17.0461 26.7287c0,-1.4199 -0.4728,-2.3663 -1.4198,-3.3126 -0.7096,-0.9464 -1.8928,-1.4199 -3.0759,-1.4199 -1.4192,0 -2.3662,0.4735 -3.5487,1.4199 -0.7102,0.9463 -1.1831,1.8927 -1.1831,3.3126 0,1.1831 0.4729,2.3662 1.1831,3.0758 1.1825,0.9463 2.1295,1.4199 3.5487,1.4199 0.4735,0 0.9464,0 1.1831,0l5.9156 30.9951c0.2361,1.6566 1.4192,3.3126 3.5487,4.9692 17.7461,-4.7325 35.4915,-4.7325 53.2369,0 1.8927,-1.4199 2.8397,-3.0759 3.3126,-4.9692 1.8927,-10.6474 4.0222,-21.058 5.9156,-31.7054 0.7096,0.2367 1.1824,0.4735 1.8927,0.4735 1.4192,0 2.6023,-0.4735 3.5486,-1.4199 0.9471,-0.9463 1.4199,-2.1294 1.4199,-3.5493 0,-1.1825 -0.4728,-2.3656 -1.4199,-3.3119 -0.9463,-0.9471 -2.1294,-1.4199 -3.5486,-1.4199 -1.1831,0 -2.3663,0.4728 -3.3126,1.4199 -0.9464,0.9463 -1.4199,2.1294 -1.4199,3.3119 0,1.4199 0.4735,2.603 1.4199,3.5493 0.4728,0.4735 0.9463,0.7096 1.4199,0.9464l-12.7769 24.3706 -1.6566 2.3662 -1.1831 -3.3126 -1.1832 -30.0487c0.2368,0.2361 0.4736,0.2361 0.9464,0.2361 1.1831,0 2.3662,-0.4729 3.0765,-1.4192 0.9464,-0.9471 1.4192,-1.8934 1.4192,-3.3126 0,-1.1831 -0.4728,-2.3663 -1.4192,-3.3126 -0.7103,-0.7103 -1.8934,-1.1831 -3.0765,-1.1831 -1.4192,0 -2.3656,0.4728 -3.3119,1.1831 -0.9471,0.9463 -1.4199,2.1295 -1.4199,3.3126 0,1.4192 0.4728,2.3655 1.4199,3.3126 0.7096,0.7096 1.4192,1.1831 2.3655,1.1831l-8.9907 28.156 -2.603 3.5493 -1.656 -3.0758 -5.442 -30.9958c1.1831,0 2.3662,-0.4735 3.3126,-1.4198 0.9463,-0.9464 1.4192,-2.1295 1.4192,-3.3126 0,-1.4199 -0.4729,-2.6023 -1.4192,-3.5487 -0.9464,-0.7103 -2.1295,-1.1831 -3.3126,-1.1831 -1.4199,0 -2.603,0.4728 -3.5494,1.1831 -0.9463,0.9464 -1.1831,2.1288 -1.1831,3.5487 0,1.1831 0.2368,2.3662 1.1831,3.3126 0.9464,0.9463 2.1295,1.4198 3.5494,1.4198l-5.6788 30.5223 -1.4193 3.7861 -2.3662 -3.0765 -9.701 -28.3928c0.9464,0 1.656,-0.4728 2.3662,-1.1831 0.9464,-0.9464 1.4192,-2.1295 1.4192,-3.3126 0,-1.4192 -0.4728,-2.6023 -1.4192,-3.5487 -0.9463,-0.7102 -2.1294,-1.1831 -3.3126,-1.1831 -1.4198,0 -2.6029,0.4729 -3.5493,1.1831 -0.9464,0.9464 -1.1831,2.1295 -1.1831,3.5487 0,1.1831 0.2367,2.3662 1.1831,3.3126 0.9464,0.9464 2.1295,1.4199 3.5493,1.4199 0.2368,0 0.7096,0 0.9464,-0.2368l0 29.8127 -1.1831 4.4957 -16.0895 -27.4464c0.7096,-0.2368 1.1832,-0.7103 1.8928,-1.4199 0.947,-0.7096 1.4198,-1.8927 1.4198,-3.0758z"/>
  </g>
 </g>
</svg>
