<?xml version="1.0" encoding="UTF-8"?>
<!DOCTYPE svg PUBLIC "-//W3C//DTD SVG 1.1//EN" "http://www.w3.org/Graphics/SVG/1.1/DTD/svg11.dtd">
<!-- Creator: CorelDRAW -->
<svg xmlns="http://www.w3.org/2000/svg" xml:space="preserve" width="99.8022mm" height="99.8022mm" style="shape-rendering:geometricPrecision; text-rendering:geometricPrecision; image-rendering:optimizeQuality; fill-rule:evenodd; clip-rule:evenodd"
viewBox="0 0 99.8022 99.8022"
 xmlns:xlink="http://www.w3.org/1999/xlink">
 <defs>
  <style type="text/css">
   <![CDATA[
    .str0 {stroke:white;stroke-width:0.0762}
    .str2 {stroke:#1F1A17;stroke-width:1.4111}
    .str1 {stroke:#1F1A17;stroke-width:1.4111;stroke-linecap:round;stroke-linejoin:round}
    .fil0 {fill:none}
    .fil2 {fill:#0F0E10}
    .fil3 {fill:#131113}
    .fil4 {fill:#181617}
    .fil5 {fill:#1E1B1C}
    .fil6 {fill:#262222}
    .fil7 {fill:#2F2B2A}
    .fil8 {fill:#393534}
    .fil9 {fill:#433E3C}
    .fil10 {fill:#4F4A48}
    .fil11 {fill:#5B5654}
    .fil12 {fill:#676361}
    .fil13 {fill:#767271}
    .fil14 {fill:#858180}
    .fil1 {fill:#0A0B0C}
   ]]>
  </style>
 </defs>
 <g id="Layer_x0020_1">
  <metadata id="CorelCorpID_0Corel-Layer"/>
  <rect class="fil0 str0" x="0.0381" y="0.0381" width="99.726" height="99.726"/>
  <g id="_58562728">
   <path id="_41865824" class="fil1" d="M24.4647 81.5904l-7.8076 0 0 6.6245 66.7233 0 0 -6.6245 -7.5715 0 -1.9942 0 1.9942 -0.7103 0.0013 -0.0466 0.0001 -0.0046 0 -0.003 0.0002 -0.0049 0.0001 -0.0011 0 -0.003 0 -0.003 0.0002 -0.0052 0.0001 -0.0008 0 -0.003 0.0002 -0.0085 0.0001 -0.0005 0 -0.003 0.0001 -0.003 0.0001 -0.0046 0.0002 -0.0047 0 -0.003 0.0002 -0.0048 0.0001 -0.0012 0 -0.003 0 -0.003 0.0002 -0.0052 0.0001 -0.0008 0 -0.003 0 -0.003 0.0002 -0.0055 0.0001 -0.0005 0 -0.003 0.0003 -0.009 0 -0.0002 0 -0.003 0.0003 -0.009 0 -0.003 0.001 -0.0331 0 -0.0002 0 -0.0019c0.0228,-0.8724 0.0022,-1.7161 -0.0612,-2.5309l-0.0007 -0.0097c-0.0078,-0.0999 -0.0164,-0.1993 -0.0255,-0.2984l-0.0002 -0.0027c-0.0091,-0.0978 -0.0187,-0.1949 -0.0289,-0.2918l-0.002 -0.0187c-0.0208,-0.1946 -0.044,-0.3879 -0.0698,-0.5792l-0.0022 -0.0161c-0.0259,-0.1902 -0.0542,-0.3786 -0.085,-0.5654l-0.0041 -0.0247c-0.0309,-0.1855 -0.0641,-0.3694 -0.0998,-0.5514l-0.0052 -0.0258c-0.0165,-0.0837 -0.0336,-0.167 -0.0512,-0.25l-0.0087 -0.0403c-0.0172,-0.0802 -0.0348,-0.1601 -0.053,-0.2397l-0.0093 -0.0405c-0.0404,-0.1754 -0.0832,-0.349 -0.1283,-0.5211l-0.0066 -0.0246c-0.0218,-0.0821 -0.044,-0.1639 -0.0667,-0.2454l-0.0076 -0.0271c-0.0231,-0.0821 -0.0468,-0.1638 -0.0709,-0.2451l-0.0066 -0.0223c-0.0249,-0.0831 -0.0501,-0.1656 -0.0761,-0.2479l-0.0045 -0.0141c-0.0254,-0.0806 -0.0514,-0.1608 -0.078,-0.2406l-0.0137 -0.0405c-0.026,-0.0775 -0.0525,-0.1545 -0.0796,-0.2313l-0.0039 -0.0109c-0.0295,-0.0834 -0.0595,-0.1666 -0.0903,-0.2492l-0.0031 -0.0082c-0.0305,-0.082 -0.0617,-0.1635 -0.0934,-0.2446l-0.007 -0.0178c-0.0298,-0.0761 -0.0601,-0.1519 -0.091,-0.2273l-0.0182 -0.0438c-0.0298,-0.072 -0.06,-0.1437 -0.0908,-0.215l-0.0079 -0.0181c-0.0324,-0.075 -0.0652,-0.1496 -0.0987,-0.2238l-0.0173 -0.038c-0.0322,-0.0709 -0.0648,-0.1415 -0.098,-0.2117l-0.0111 -0.0232c-0.0339,-0.0716 -0.0683,-0.1429 -0.1033,-0.2137l-0.0224 -0.0448c-0.0332,-0.0667 -0.0669,-0.1332 -0.101,-0.1993l-0.0153 -0.0293c-0.0356,-0.0686 -0.0717,-0.137 -0.1083,-0.2049l-0.0214 -0.0393c-0.0361,-0.0667 -0.0727,-0.1331 -0.1098,-0.1991l-0.014 -0.0247c-0.038,-0.0672 -0.0763,-0.1342 -0.1152,-0.2008l-0.0298 -0.0503c-0.0364,-0.0616 -0.0731,-0.1229 -0.1103,-0.1839l-0.0179 -0.029c-0.0394,-0.0644 -0.0792,-0.1285 -0.1196,-0.1923l-0.03 -0.0467c-0.0397,-0.0621 -0.0796,-0.124 -0.1201,-0.1854l-0.008 -0.012c-0.0449,-0.0679 -0.0902,-0.1357 -0.1363,-0.2029l-0.0307 -0.0442c-0.0403,-0.0583 -0.081,-0.1164 -0.1221,-0.1742l-0.0275 -0.0382c-0.042,-0.0585 -0.0841,-0.1169 -0.1269,-0.1749l-0.038 -0.0508c-0.0408,-0.0548 -0.0819,-0.1095 -0.1235,-0.1638l-0.0322 -0.0415c-0.0427,-0.0554 -0.0856,-0.1106 -0.1291,-0.1654l-0.0484 -0.06c-0.0402,-0.05 -0.0806,-0.1 -0.1214,-0.1496l-0.0429 -0.0513c-0.0414,-0.0499 -0.083,-0.0997 -0.1251,-0.149l-0.0653 -0.0754c-0.037,-0.0427 -0.0739,-0.0853 -0.1113,-0.1277l-0.0612 -0.0684c-0.0384,-0.0429 -0.0767,-0.0859 -0.1156,-0.1284 -0.0304,-0.0332 -0.0614,-0.0661 -0.0922,-0.099l-0.0891 -0.0954c-0.031,-0.0327 -0.0625,-0.065 -0.0938,-0.0974 -0.0319,-0.033 -0.0636,-0.0662 -0.0958,-0.099l-0.0883 -0.0886c-0.0344,-0.0345 -0.0686,-0.069 -0.1033,-0.1032l-0.0839 -0.0814c-0.0368,-0.0358 -0.0736,-0.0718 -0.1109,-0.1073l-0.0823 -0.0769c-0.0403,-0.0378 -0.0806,-0.0756 -0.1214,-0.1131l-0.047 -0.0426c-0.0511,-0.0466 -0.1022,-0.0932 -0.1541,-0.1392l-0.0673 -0.0589c-0.0459,-0.0404 -0.0917,-0.0807 -0.1382,-0.1206 -0.0313,-0.0269 -0.0631,-0.0534 -0.0946,-0.0801 -0.0372,-0.0315 -0.0742,-0.0633 -0.1118,-0.0945 -0.0385,-0.032 -0.0776,-0.0635 -0.1165,-0.0952 -0.0337,-0.0275 -0.0671,-0.0551 -0.101,-0.0823l-0.0783 -0.062c-0.0469,-0.0373 -0.0938,-0.0746 -0.1413,-0.1115l-0.0674 -0.0516c-0.0509,-0.0391 -0.1018,-0.0783 -0.1533,-0.117l-0.0033 -0.0025c-0.0715,-0.0537 -0.1437,-0.1072 -0.2164,-0.1601l-0.0006 -0.0004c-0.0638,-0.0465 -0.1283,-0.0923 -0.193,-0.138l-0.0371 -0.0265 -0.0065 -0.0046c-0.0754,-0.053 -0.1513,-0.1056 -0.2279,-0.1577l-0.0044 -0.003c-0.0774,-0.0526 -0.1553,-0.1048 -0.2339,-0.1565l-0.0022 -0.0015c-0.0793,-0.0522 -0.1592,-0.104 -0.2397,-0.1553l0 -30.2862 0 -0.2361 9.4643 -6.3884 0 -14.9063 -11.1202 0 0 6.6245 -11.1209 0 0 -6.6245 -11.1203 0 0 6.6245 -10.4112 0 0 -6.6245 -11.357 0 0 14.6696 9.701 6.8612 0 30.1862 0 0.1c-5.4421,3.3126 -8.0444,8.7546 -7.8083,16.3262z"/>
   <g>
    <path id="_41826168" class="fil2" d="M18.6571 83.5904l0 4.6245 62.7233 0 0 -4.6245 -7.5715 0 0 -2.7443 0.0012 -0.0341c0.002,-0.0592 0.0031,-0.1184 0.0047,-0.1774 0.1503,-5.7394 -1.721,-10.5455 -6.6513,-13.6831l-0.9262 -0.5894 0 -32.6832 9.4643 -6.3884 0 -13.8433 -9.1202 0 0 6.6245 -11.1209 0 0 -6.6245 -11.1203 0 0 6.6245 -10.4112 0 0 -6.6245 -9.357 0 0 13.6345 9.701 6.8612 0 32.4453 -0.9601 0.5844c-5.3249,3.2412 -7.0374,8.5198 -6.8492,14.5555l0.0643 2.0623 -7.8709 0z"/>
    <path id="_41858640" class="fil3" d="M20.6571 85.5904l0 2.6245 58.7233 0 0 -2.6245 -7.5715 0 0 -4.7784 0.0023 -0.068c0.0019,-0.0542 0.0029,-0.1082 0.0043,-0.1619 0.132,-5.0408 -1.3873,-9.1823 -5.7257,-11.9433l-1.8525 -1.1789 0 -34.844 9.4643 -6.3884 0 -12.7803 -7.1202 0 0 6.6245 -11.1209 0 0 -6.6245 -11.1203 0 0 6.6245 -10.4112 0 0 -6.6245 -7.357 0 0 12.5993 9.701 6.8612 0 34.6045 -1.9202 1.1688c-4.6914,2.8557 -6.0552,7.487 -5.89,12.7847l0.1286 4.1247 -7.9343 0z"/>
    <path id="_41857848" class="fil4" d="M22.6571 87.5904l0 0.6245 54.7233 0 0 -0.6245 -7.5715 0 0 -6.8124 0.0035 -0.1021c0.0007,-0.0217 0.0012,-0.036 0.0015,-0.0451 -0.0004,0.0083 -0.0004,0.0015 0.0023,-0.1012 0.1133,-4.3285 -1.0657,-7.8269 -4.8002,-10.2035l-2.7787 -1.7683 0 -37.0049 9.4643 -6.3884 0 -11.7173 -5.1202 0 0 6.6245 -11.1209 0 0 -6.6245 -11.1203 0 0 6.6245 -10.4112 0 0 -6.6245 -5.357 0 0 11.5642 9.701 6.8612 0 36.7635 -2.8803 1.7533c-4.0599,2.4712 -5.0732,6.4503 -4.9309,11.014l0.1929 6.187 -7.9976 0z"/>
    <path id="_41856400" class="fil5" d="M67.8089 88.2149l0 -7.471 0.0046 -0.1356c0.0014,-0.0443 0.0022,-0.0878 0.0034,-0.1311 0.0947,-3.617 -0.746,-6.4727 -3.8747,-8.4638l-3.7049 -2.3577 0 -39.1657 9.4643 -6.3884 0 -10.6544 -3.1202 0 0 6.6245 -11.1209 0 0 -6.6245 -11.1203 0 0 6.6245 -10.4112 0 0 -6.6245 -3.357 0 0 10.529 9.701 6.8612 0 38.9227 -3.8404 2.3377c-3.4089,2.075 -4.0906,5.4345 -3.9718,9.2433l0.2143 6.8738 35.1338 0z"/>
    <path id="_41852432" class="fil6" d="M65.8089 88.2149l0 -7.505 0.0057 -0.1661c0.0012,-0.0417 0.0019,-0.0787 0.0029,-0.1191 0.0757,-2.8901 -0.4417,-5.1283 -2.9491,-6.724l-4.6311 -2.9471 0 -41.3266 9.4643 -6.3884 0 -9.5914 -1.1202 0 0 6.6245 -11.1209 0 0 -6.6245 -11.1203 0 0 6.6245 -10.4112 0 0 -6.6245 -1.357 0 0 9.4939 9.701 6.8612 0 41.0818 -4.8005 2.9221c-2.7409,1.6683 -3.1073,4.4364 -3.0127,7.4725l0.2163 6.9362 31.1328 0z"/>
    <path id="_41867928" class="fil7" d="M63.8089 88.2149l0 -7.5391 0.0065 -0.1921c0.0029,-0.1021 -0.0015,0.0519 0.0028,-0.1115 0.0563,-2.1471 -0.1568,-3.7962 -2.0235,-4.9842l-5.5574 -3.5366 0 -43.4874 9.4643 -6.3884 0 -1.9039 -10.2411 0 0 -6.6245 -11.1203 0 0 6.6245 -9.7682 0 0 1.8343 9.701 6.8612 0 43.2409 -5.7606 3.5065c-2.0307,1.2361 -2.1224,3.4932 -2.0535,5.7018l0.2182 6.9985 27.1318 0z"/>
    <path id="_41851480" class="fil8" d="M61.8089 88.2149l0 -7.5731 0.0074 -0.2181c0.0022,-0.0825 -0.0011,0.0386 0.0026,-0.104 0.035,-1.3365 0.0733,-2.499 -1.098,-3.2443l-6.4836 -4.1261 0 -45.6483 9.4643 -6.3884 0 -0.8409 -8.2411 0 0 -6.6245 -11.1203 0 0 6.6245 -7.7682 0 0 0.7991 9.701 6.8612 0 45.4001 -6.7207 4.0909c-1.2652,0.7701 -1.136,2.5964 -1.0944,3.9311l0.2202 7.0608 23.1308 0z"/>
    <path id="_41867072" class="fil9" d="M59.8089 88.2149l0 -7.6072 0.0083 -0.2433c0.0016,-0.0632 -0.0009,0.0278 0.0024,-0.0972 0.0088,-0.334 0.005,-1.0354 -0.0939,-1.4534 -0.0275,-0.0186 -0.0547,-0.0359 -0.0786,-0.0511l-7.4098 -4.7155 0 -47.8092 9.1353 -6.1663 -5.9121 0 0 -6.6245 -11.1203 0 0 6.6245 -5.4345 0 9.3673 6.6252 0 47.5592 -7.6632 4.6645c-0.163,0.5962 -0.1679,1.6893 -0.1529,2.1711l0.2221 7.1232 19.1299 0z"/>
    <path id="_41850592" class="fil10" d="M57.8089 88.2149l0 -7.6412 0.0091 -0.2672c0.0008,-0.0313 0.0015,-0.0619 0.0023,-0.0918 0.0018,-0.0706 0.0035,-0.1532 0.0038,-0.2415l-7.5511 -4.8054 0 0.2122 -7.8134 4.7561c-0.0161,0.3271 -0.0108,0.6647 -0.0036,0.8933l0.224 7.1855 15.1289 0zm-7.5716 -62.5784l0 -0.4615 7.5604 -5.1033 -2.3372 0 0 -6.6245 -11.1203 0 0 6.6245 -1.9709 0 7.868 5.5648z"/>
    <path id="_41849624" class="fil11" d="M55.8089 88.2149l0 -7.1535 -5.3889 -3.4294 -5.956 3.6253 0.217 6.9576 11.1279 0zm-5.8789 -65.2454l5.5305 -3.7331 0 -5.7892 -11.1203 0 0 5.5688 5.5898 3.9535z"/>
    <path id="_57868384" class="fil12" d="M53.8089 88.2149l0 -6.0557 -3.4124 -2.1716 -3.8971 2.3722 0.1826 5.8551 7.1269 0zm-3.8524 -67.6763l5.504 -3.7152 0 -3.3762 -10.8885 0 0 3.2831 5.3845 3.8083z"/>
    <path id="_58285016" class="fil13" d="M51.8089 88.2149l0 -4.9578 -1.4359 -0.9138 -1.8383 1.119 0.1482 4.7526 3.126 0zm-1.8258 -70.1072l3.7185 -2.51 0 -2.1505 -7.1296 0 0 2.2479 3.4111 2.4126z"/>
    <polygon id="_41780088" class="fil14" points="50.0096,15.6768 51.7016,14.5347 51.7016,13.4472 48.572,13.4472 48.572,14.66 "/>
   </g>
   <g>
    <polygon id="_58015376" class="fil0 str1" points="24.4647,81.3543 16.6571,81.3543 16.6571,87.9788 83.3804,87.9788 83.3804,81.3543 75.8089,81.3543 "/>
    <path id="_57868792" class="fil0 str1" d="M75.8089 80.644c0.2367,-7.098 -2.3663,-12.3033 -7.5716,-15.6159"/>
    <polyline id="_57876512" class="fil0 str1" points="68.2373,65.0281 68.2373,34.7419 68.2373,34.5058 "/>
    <polyline id="_59394792" class="fil0 str1" points="68.2373,34.5058 77.7016,28.1174 77.7016,13.2111 66.5814,13.2111 66.5814,19.8356 55.4605,19.8356 55.4605,13.2111 44.3402,13.2111 44.3402,19.8356 33.929,19.8356 33.929,13.2111 22.572,13.2111 22.572,27.8807 32.273,34.7419 "/>
    <polygon id="_58285256" class="fil0 str2" points="68.2373,34.5058 67.7645,34.7419 68.2373,34.7419 "/>
    <polyline id="_41779712" class="fil0 str1" points="32.273,34.7419 67.7645,34.7419 68.2373,34.5058 "/>
    <path id="_58285160" class="fil0 str1" d="M32.273 65.0281c-5.4421,3.3126 -8.0444,8.7546 -7.8083,16.3262"/>
    <line id="_57868408" class="fil0 str1" x1="32.273" y1="65.0281" x2="68.2373" y2= "65.0281" />
    <line id="_58015424" class="fil0 str1" x1="32.273" y1="34.7419" x2="32.273" y2= "65.0281" />
   </g>
  </g>
 </g>
</svg>
