<?xml version="1.0" encoding="UTF-8"?>
<!DOCTYPE svg PUBLIC "-//W3C//DTD SVG 1.1//EN" "http://www.w3.org/Graphics/SVG/1.1/DTD/svg11.dtd">
<!-- Creator: CorelDRAW -->
<svg xmlns="http://www.w3.org/2000/svg" xml:space="preserve" width="99.8022mm" height="99.8022mm" style="shape-rendering:geometricPrecision; text-rendering:geometricPrecision; image-rendering:optimizeQuality; fill-rule:evenodd; clip-rule:evenodd"
viewBox="0 0 99.8022 99.8022"
 xmlns:xlink="http://www.w3.org/1999/xlink">
 <defs>
  <style type="text/css">
   <![CDATA[
    .str1 {stroke:white;stroke-width:0.0762}
    .str0 {stroke:#1F1A17;stroke-width:1.4111}
    .fil13 {fill:none}
    .fil0 {fill:#AAA9A9}
    .fil1 {fill:#C7C7C6}
    .fil2 {fill:#D5D4D4}
    .fil3 {fill:#DEDEDD}
    .fil4 {fill:#E6E5E5}
    .fil11 {fill:#E8E8E7}
    .fil5 {fill:#ECECEB}
    .fil12 {fill:#F2F2F2}
    .fil7 {fill:whitesmoke}
    .fil8 {fill:#F9F9F9}
    .fil9 {fill:#FBFBFB}
    .fil10 {fill:white}
    .fil6 {fill:#EFEEEE}
   ]]>
  </style>
 </defs>
 <g id="Layer_x0020_1">
  <metadata id="CorelCorpID_0Corel-Layer"/>
  <g id="_41865824">
   <path id="_57017640" class="fil0" d="M50.8328 20.1841c1.408,-0.145 2.6109,-0.8202 3.4454,-1.8634 1.1831,-0.9463 1.8927,-2.3662 1.8927,-4.0222 0,-1.4198 -0.7096,-2.8397 -1.8927,-4.0222 -0.9464,-1.1831 -2.3663,-1.6566 -4.0222,-1.6566 -1.4199,0 -2.8391,0.4735 -4.0222,1.6566 -1.1831,1.1825 -1.6566,2.6024 -1.6566,4.0222 0,1.656 0.4735,3.0759 1.6566,4.0222 1.0121,1.0121 2.1974,1.6778 3.4077,1.8491 -6.1086,2.7627 -11.1166,5.7393 -15.2382,8.7159 -4.0222,3.0758 -6.1517,6.3884 -6.6252,9.9371 -0.4735,4.4957 0.2368,8.2818 1.656,11.8305 1.4199,2.8397 3.5493,5.9155 6.1523,9.2281l-4.4957 9.701c1.4199,2.6024 2.8391,3.7855 4.7318,3.7855l5.6788 0c0.4735,1.8927 0.2368,4.0222 -0.7096,6.1516 -0.9463,2.3663 -3.3126,2.603 -7.0987,0.4736 -4.0222,-2.1295 -8.2811,-2.8391 -13.2497,-2.1295 -4.9685,0.4728 -8.9914,2.1295 -12.5401,5.2053l5.4421 6.8613c3.3119,-2.1288 6.8613,-3.312 10.6474,-3.312 3.7854,-0.2367 7.8076,0.7096 11.5937,3.312 4.0222,2.3662 7.3348,2.1294 10.4106,-1.1825 1.7078,-1.8507 2.9304,-3.8088 3.7368,-5.8082 1.3856,-3.4353 0.3185,-3.4339 2.1566,-0.0152 1.373,2.5537 3.2343,4.7811 5.9371,6.533 3.7855,2.6023 7.0981,2.6023 10.1739,0.4729 2.603,-2.3656 6.1517,-3.312 10.4106,-3.0759 4.0229,0.4735 7.0987,1.4199 8.9914,3.0759l4.4957 -7.0981c-2.1294,-2.1294 -5.6788,-3.7854 -10.6473,-4.7318 -5.2054,-0.7102 -9.4643,0 -12.7769,2.3656 -3.5493,2.603 -5.9156,2.3662 -7.5715,-0.4728 -1.4199,-2.8391 -2.1295,-4.9693 -1.6567,-6.6252l5.6789 0c1.4198,-0.2368 2.839,-1.4199 4.4957,-3.7855l-4.4957 -9.701c2.6029,-2.603 4.7324,-5.6788 6.6251,-9.2281 1.4199,-4.0222 1.8928,-8.0444 1.4199,-12.0666 -0.4735,-3.3126 -1.8934,-5.9156 -4.7325,-7.8083 -4.8332,-3.6824 -10.563,-7.1414 -17.4053,-10.5943z"/>
   <g>
    <path id="_55510616" class="fil1" d="M35.5967 30.4909c-2.7951,2.1418 -5.3394,4.9529 -5.8326,8.5698 -0.3947,3.7877 0.0968,7.2415 1.4962,10.7727 1.5611,3.0997 3.7606,6.0913 5.8987,8.8123l0.7576 0.9641 -4.5753 9.8728c0.5859,0.9349 1.3928,1.8853 2.4812,1.8853l7.2401 0 0.3789 1.5146c0.6228,2.4897 0.218,5.093 -0.8077,7.4166 -0.3969,0.9751 -1.0176,1.8211 -1.9103,2.398 -2.4842,1.6057 -5.6702,0.3521 -7.9877,-0.9478 -3.8159,-2.0143 -7.7443,-2.515 -12.0097,-1.9058l-0.0466 0.0067 -0.0467 0.0044c-3.7374,0.3557 -6.9732,1.4337 -9.9183,3.5403l3.1118 3.9233c3.1164,-1.707 6.493,-2.6887 10.1039,-2.6999 4.5849,-0.2724 8.9456,1.04 12.728,3.6219 3.0556,1.7813 5.3788,1.8325 7.8701,-0.85 1.4118,-1.53 2.5705,-3.2644 3.3507,-5.1988 0.2302,-0.5707 0.4243,-1.1414 0.5943,-1.7322 0.298,-1.0354 0.7153,-2.0101 2.0419,-2.0935 1.344,-0.0846 1.8762,0.8517 2.2985,1.8539 0.2537,0.6019 0.5287,1.1818 0.8382,1.7576 1.2859,2.3917 2.9716,4.3163 5.2634,5.8018l0.0228 0.0148 0.0224 0.0154c2.6232,1.8032 5.1028,2.3595 7.8033,0.5443 3.2601,-2.8976 7.4905,-3.7328 11.7589,-3.4961l0.0617 0.0034 0.0614 0.0072c2.6529,0.3123 5.7056,0.8988 8.1735,2.2465l2.4593 -3.8829c-2.3735,-1.6988 -5.6578,-2.6401 -8.3492,-3.1567 -3.854,-0.519 -8.0115,-0.3188 -11.2826,2.0118 -1.9926,1.4592 -4.5527,2.766 -7.0678,1.9301 -1.5225,-0.506 -2.6125,-1.6604 -3.4032,-3.016l-0.0324 -0.0556 -0.0288 -0.0575c-1.1744,-2.3482 -2.5525,-5.402 -1.791,-8.0689l0.4142 -1.4509 6.9849 0c0.8119,-0.2141 1.716,-1.1775 2.3847,-2.0219l-4.5837 -9.891 0.9877 -0.9878c2.5262,-2.5263 4.5183,-5.4834 6.2028,-8.6209 1.2318,-3.5502 1.7089,-7.2592 1.273,-11.001 -0.3979,-2.7499 -1.5149,-4.8405 -3.8585,-6.4028l-0.0525 -0.035 -0.0502 -0.0382c-5.2133,-3.972 -10.9777,-7.3001 -16.8183,-10.2601 -5.1137,2.3299 -10.0513,5.0913 -14.611,8.3817zm14.6433 -12.2563l0.3879 -0.04c0.8348,-0.0859 1.5644,-0.4681 2.0885,-1.1232l0.1389 -0.1737 0.1737 -0.1389c0.7633,-0.6105 1.1419,-1.4861 1.1419,-2.4603 0,-0.9859 -0.6347,-1.9361 -1.3066,-2.6076l-0.0785 -0.0785 -0.0694 -0.0868c-0.5923,-0.7405 -1.5609,-0.9059 -2.4604,-0.9059 -1.0176,0 -1.8864,0.3492 -2.6083,1.0711 -0.7216,0.7212 -1.0705,1.5905 -1.0705,2.6077 0,0.8994 0.1654,1.8681 0.9058,2.4603l0.0866 0.0693 0.0784 0.0784c0.603,0.603 1.4111,1.1609 2.2738,1.283l0.3182 0.0451z"/>
    <path id="_56889256" class="fil2" d="M36.7906 32.0957c-2.3259,1.7863 -4.6152,4.1812 -5.0406,7.2051 -0.3521,3.4245 0.0854,6.5208 1.337,9.7129 1.4959,2.9465 3.6114,5.8089 5.6446,8.3963l1.5152 1.9282 -4.5841 9.8917c0.0579,0.0581 0.1131,0.1053 0.1639,0.138l8.7973 0 0.7578 3.0292c0.729,2.914 0.2905,5.9585 -0.9069,8.6839 -0.5531,1.345 -1.4345,2.5001 -2.6656,3.2959 -2.1469,1.3875 -4.5869,1.2758 -6.8757,0.5369 0.9582,0.4762 1.8902,1.0218 2.7917,1.6333 2.1935,1.2702 3.5351,1.4205 5.3366,-0.5169 1.2452,-1.3504 2.2738,-2.8797 2.9624,-4.5869 0.8904,-2.2077 0.9613,-4.8595 4.3654,-5.0737 3.4401,-0.2164 3.88,2.533 5.0239,4.6605 1.1262,2.0947 2.5811,3.7687 4.5897,5.0706l0.0455 0.0296 0.0448 0.0307c1.8944,1.3023 3.5109,1.8486 5.4541,0.5986 0.3748,-0.3265 0.7604,-0.6299 1.1557,-0.9111 -3.4989,1.0757 -6.9248,0.1552 -9.2551,-3.8401l-0.0648 -0.1111 -0.0575 -0.115c-1.4401,-2.8794 -2.8559,-6.2541 -1.9255,-9.5126l0.8285 -2.9018 8.09 0c0.1284,-0.0838 0.2741,-0.2106 0.4265,-0.3621l-4.6237 -9.9773 1.9754 -1.9755c2.3476,-2.3476 4.2045,-5.101 5.7788,-8.0114 1.0939,-3.2155 1.518,-6.5512 1.128,-9.937 -0.3187,-2.1709 -1.1273,-3.7598 -2.9846,-4.998l-0.105 -0.07 -0.1004 -0.0765c-4.8591,-3.7021 -10.2137,-6.834 -15.6501,-9.628 -4.6738,2.1847 -9.1873,4.7456 -13.3732,7.7636zm-4.3987 51.7404c-0.2069,-0.1073 -0.4108,-0.2173 -0.6111,-0.3293 -3.4347,-1.8073 -6.9334,-2.2316 -10.772,-1.6834l-0.093 0.0133 -0.0936 0.0089c-2.6399,0.2512 -4.9863,0.8863 -7.1529,2.0562l0.7102 0.8955c2.9666,-1.382 6.139,-2.1599 9.4883,-2.1787 2.9491,-0.1678 5.8188,0.2605 8.5241,1.2175zm38.2437 0.0034c2.5155,-0.8667 5.2421,-1.1318 7.9978,-0.9791l0.1234 0.0069 0.1228 0.0144c2.3546,0.2772 4.8923,0.7497 7.1919,1.6758l0.4176 -0.6594c-1.88,-0.9236 -4.0936,-1.5021 -5.8819,-1.8485 -3.3079,-0.4392 -6.972,-0.3431 -9.7903,1.6591 -0.0603,0.0441 -0.1207,0.0877 -0.1813,0.1308zm-20.3574 -67.6194l0.1448 -0.015c0.3006,-0.0309 0.5427,-0.1469 0.7316,-0.3831l0.2778 -0.3472 0.3473 -0.2778c0.2863,-0.229 0.3912,-0.536 0.3912,-0.8985 0,-0.3738 -0.478,-0.9508 -0.7204,-1.1931l-0.1571 -0.157 -0.1388 -0.1734c-0.1003,-0.1255 -0.7648,-0.1553 -0.8986,-0.1553 -0.4869,0 -0.8481,0.1393 -1.1943,0.4856 -0.3456,0.3454 -0.4845,0.7069 -0.4845,1.1932 0,0.1336 0.0298,0.7983 0.1551,0.8985l0.1731 0.1385 0.1568 0.1568c0.2648,0.2647 0.751,0.6619 1.1399,0.717l0.0761 0.0108z"/>
    <path id="_57122384" class="fil3" d="M37.9851 33.7001c-1.8463,1.4216 -3.8928,3.4292 -4.2497,5.8447 -0.3088,3.0594 0.075,5.7987 1.1788,8.6495 1.431,2.7936 3.4622,5.5267 5.3899,7.98l2.2729 2.8924 -3.8471 8.3012 7.4553 0 1.1367 4.5438c0.2608,1.0426 0.3941,2.0997 0.4122,3.1559 0.715,-0.3879 1.5533,-0.6326 2.53,-0.6941 1.1739,-0.0738 2.0949,0.0585 2.8389,0.3424 -0.0235,-0.9897 0.0872,-1.9899 0.3743,-2.9953l1.2428 -4.3527 7.062 0 -4.0623 -8.7658 2.9631 -2.9633c2.1677,-2.1678 3.8894,-4.7164 5.3527,-7.3993 0.9559,-2.8762 1.3286,-5.8499 0.985,-8.8751 -0.237,-1.587 -0.7449,-2.6832 -2.1107,-3.5937l-0.1575 -0.105 -0.1505 -0.1147c-4.5033,-3.431 -9.4473,-6.3626 -14.4776,-8.9871 -4.2356,2.0335 -8.3273,4.3904 -12.1392,7.1362z"/>
    <path id="_56408944" class="fil4" d="M39.1804 35.3039c-1.3512,1.0437 -3.1728,2.71 -3.4601,4.4922 -0.2646,2.6908 0.0663,5.0735 1.0218,7.5795 1.3666,2.6407 3.3128,5.2445 5.1346,7.5629l3.0304 3.8566 -3.046 6.5728 5.8854 0 1.5156 6.0585c0.0844,0.3373 0.1572,0.6761 0.2186,1.0158 0.2142,-0.0289 0.4335,-0.0506 0.6578,-0.0647 0.392,-0.0247 0.7715,-0.0246 1.1386,-0.0014 0.0701,-0.3996 0.1618,-0.8012 0.277,-1.2046l1.6571 -5.8036 5.4397 0 -3.3331 -7.1923 3.9508 -3.9509c1.9868,-1.9868 3.5728,-4.3292 4.9242,-6.784 0.8203,-2.5376 1.142,-5.1519 0.8442,-7.8181 -0.1495,-0.9913 -0.3768,-1.6147 -1.2364,-2.1878l-0.2101 -0.14 -0.2007 -0.1529c-4.1456,-3.1585 -8.6785,-5.8854 -13.3003,-8.3366 -3.7993,1.876 -7.4714,4.025 -10.9091,6.4986z"/>
    <path id="_56407984" class="fil5" d="M40.3796 36.905c-0.8431,0.656 -2.4592,2.0552 -2.6758,3.1581 -0.218,2.3149 0.0611,4.3398 0.8673,6.4947 1.3026,2.4881 3.163,4.9622 4.8782,7.145l3.788 4.8207 -2.245 4.8444 4.3155 0 1.1182 4.47 1.2763 -4.47 3.8174 0 -2.6038 -5.6187 4.9385 -4.9387c1.8042,-1.8043 3.2542,-3.9387 4.4927,-6.165 0.687,-2.1966 0.958,-4.4442 0.7078,-6.7506 -0.0322,-0.1988 -0.0913,-0.5017 -0.1657,-0.6446 -0.051,-0.0522 -0.1428,-0.1146 -0.198,-0.1514l-0.2625 -0.175 -0.251 -0.1912c-3.7859,-2.8844 -7.9072,-5.4017 -12.1183,-7.6754 -3.3639,1.7109 -6.6178,3.647 -9.6798,5.8477z"/>
    <path id="_57120752" class="fil6" d="M41.5851 38.5016c-0.5291,0.4169 -1.6336,1.3635 -1.9068,1.9392 -0.154,1.891 0.0777,3.5331 0.7233,5.3007 1.2391,2.3357 3.0124,4.6794 4.6203,6.7256l4.5456 5.7848 -1.444 3.116 4.265 0 -1.8746 -4.0451 5.9263 -5.9265c1.6198,-1.6199 2.9329,-3.5439 4.0573,-5.541 0.5315,-1.7723 0.7577,-3.5773 0.5994,-5.4317l-0.1313 -0.1c-3.4242,-2.6089 -7.1335,-4.9113 -10.9313,-7.0022 -2.9287,1.5369 -5.765,3.2541 -8.4492,5.1802z"/>
    <path id="_57121568" class="fil7" d="M42.7758 40.1089c-0.3315,0.2601 -0.8247,0.6708 -1.1358,1.0247 -0.0496,1.3334 0.142,2.5158 0.5942,3.794 1.1762,2.1834 2.8607,4.3955 4.3603,6.3038l3.1604 4.0219 5.271 -5.2712c1.4334,-1.4334 2.6084,-3.144 3.6173,-4.9112 0.3374,-1.1867 0.5168,-2.3861 0.5028,-3.6138 -2.8872,-2.1475 -5.9724,-4.0811 -9.1317,-5.8583 -2.5018,1.3573 -4.9284,2.8541 -7.2385,4.5101z"/>
    <path id="_57655280" class="fil8" d="M43.9662 41.7163c-0.1006,0.0788 -0.2117,0.168 -0.3221,0.2615 0.0395,0.7262 0.1791,1.4096 0.4261,2.1399 1.1138,2.031 2.7071,4.1093 4.0968,5.878l1.7676 2.2494 3.6771 -3.6772c1.2441,-1.2441 2.2788,-2.7368 3.1707,-4.2729 0.1614,-0.6116 0.2732,-1.2268 0.3272,-1.8497 -2.2743,-1.6371 -4.6654,-3.1457 -7.1099,-4.5539 -2.0782,1.1683 -4.0982,2.4391 -6.0335,3.8249z"/>
    <path id="_56913904" class="fil9" d="M45.7896 42.8774c0.0347,0.144 0.0753,0.2893 0.1219,0.4375 1.052,1.8777 2.5502,3.8188 3.8281,5.4451l0.3748 0.4769 2.083 -2.0832c1.0517,-1.0516 1.943,-2.3207 2.7155,-3.6239 0.0127,-0.0539 0.025,-0.1078 0.0368,-0.1617 -1.6066,-1.1138 -3.2674,-2.166 -4.959,-3.1666 -1.435,0.8382 -2.8386,1.7286 -4.2011,2.6759z"/>
    <path id="_41779872" class="fil10" d="M48.3851 43.541c0.5916,0.9134 1.261,1.8263 1.915,2.6816l0.4831 -0.4831c0.5332,-0.5331 1.0226,-1.1372 1.4731,-1.7751 -0.747,-0.4896 -1.5041,-0.9668 -2.2687,-1.4326 -0.5394,0.3283 -1.0738,0.6647 -1.6025,1.0092z"/>
   </g>
   <g>
    <path id="_58281968" class="fil1" d="M68.3949 69.9764l0 -1.9508 -4.4957 -9.701 0 -1.0621c-8.5715,-2.4744 -17.1189,-2.4831 -25.3392,-0.0266l0 1.0887 -4.4957 9.701 0 2.2677c0.8221,0.7304 1.7075,1.0769 2.7318,1.0769l5.6788 0c3.0759,0 5.9156,0.7096 8.9914,1.6559l8.754 -1.6559 5.6789 0c0.8171,-0.1363 1.6337,-0.5857 2.4957,-1.3938z"/>
    <path id="_57120944" class="fil2" d="M66.3949 71.2487l0 -2.7822 -4.4957 -9.701 0 -2.0357c-7.207,-1.759 -14.3803,-1.7731 -21.3392,-0.0419l0 2.0776 -4.4957 9.701 0 2.8402c0.2363,0.0425 0.4798,0.0635 0.7318,0.0635l5.6788 0c3.0759,0 5.9156,0.7096 8.9914,1.6559l8.754 -1.6559 5.6789 0c0.1652,-0.0276 0.3302,-0.0679 0.4957,-0.1215z"/>
    <path id="_56411936" class="fil3" d="M64.3949 71.3702l0 -2.4628 -4.4957 -9.701 0 -2.9204c-5.8451,-1.166 -11.6572,-1.181 -17.3392,-0.0461l0 2.9665 -4.4957 9.701 0 2.4628 4.4106 0c3.0759,0 5.9156,0.7096 8.9914,1.6559l8.754 -1.6559 4.1746 0z"/>
    <path id="_41439168" class="fil11" d="M62.3949 71.3702l0 -2.0219 -4.4957 -9.701 0 -3.7154c-4.4872,-0.6945 -8.9483,-0.7087 -13.3392,-0.0433l0 3.7587 -4.4957 9.701 0 2.0219 2.4106 0c3.0759,0 5.9156,0.7096 8.9914,1.6559l8.754 -1.6559 2.1746 0z"/>
    <path id="_39428496" class="fil6" d="M60.3949 71.3702l0 -1.581 -4.4957 -9.701 0 -4.4208c-3.1341,-0.3445 -6.2522,-0.3559 -9.3392,-0.0345l0 4.4553 -4.4957 9.701 0 1.581 0.4106 0c3.0759,0 5.9156,0.7096 8.9914,1.6559l8.754 -1.6559 0.1746 0z"/>
    <path id="_56467440" class="fil12" d="M58.3949 71.7155l0 -1.4854 -4.4957 -9.701 0 -5.0368c-1.7869,-0.1158 -3.5677,-0.1226 -5.3392,-0.0208l0 5.0576 -4.4957 9.701 0 1.2025c2.4837,0.1923 4.8623,0.8121 7.402,1.5935l6.9286 -1.3106z"/>
    <path id="_56981672" class="fil8" d="M56.3949 72.0938l0 -1.4228 -4.4957 -9.701 0 -5.5621c-0.4469,-0.0087 -0.8933,-0.0106 -1.3392,-0.0055l0 5.5676 -4.4957 9.701 0 1.0068c1.7838,0.2949 3.5501,0.7785 5.402,1.3483l4.9286 -0.9323z"/>
    <path id="_56888144" class="fil9" d="M54.3949 72.4721l0 -1.3602 -3.1653 -6.8302 -3.1653 6.8302 0 0.9707c1.1173,0.2641 2.2429,0.5869 3.402,0.9435l2.9286 -0.554z"/>
    <path id="_42589648" class="fil10" d="M52.3949 72.8504l0 -1.2976 -1.1653 -2.5145 -1.1653 2.5145 0 1.056c0.463,0.1324 0.9296,0.272 1.402,0.4173l0.9286 -0.1757z"/>
   </g>
   <g>
    <polygon id="_57954960" class="fil13 str0" points="50.0192,40.2426 50.0192,48.5238 50.0192,40.2426 43.394,40.2426 50.0192,40.2426 50.0192,32.1982 50.0192,40.2426 56.1709,40.2426 "/>
    <path id="_57955160" class="fil13 str0" d="M50.256 19.8942c1.6559,0 3.0758,-0.7096 4.0222,-1.8927 1.1831,-0.9463 1.8927,-2.3662 1.8927,-4.0222 0,-1.4198 -0.7096,-2.8397 -1.8927,-4.0222 -0.9464,-1.1831 -2.3663,-1.6566 -4.0222,-1.6566 -1.4199,0 -2.8391,0.4735 -4.0222,1.6566 -1.1831,1.1825 -1.6566,2.6024 -1.6566,4.0222 0,1.656 0.4735,3.0759 1.6566,4.0222 1.1831,1.1831 2.6023,1.8927 4.0222,1.8927z"/>
    <path id="_40482368" class="fil13 str0" d="M72.9706 38.5867c-0.4735,-3.3126 -1.8934,-5.9156 -4.7325,-7.8083 -4.9685,-3.7855 -10.8841,-7.3348 -17.9821,-10.8842 -6.3884,2.8398 -11.5937,5.9156 -15.8527,8.9915 -4.0222,3.0758 -6.1517,6.3884 -6.6252,9.9371 -0.4735,4.4957 0.2368,8.2818 1.656,11.8305 1.4199,2.8397 3.5493,5.9155 6.1523,9.2281 9.4643,-3.3126 19.4014,-3.3126 29.3392,0 2.6029,-2.603 4.7324,-5.6788 6.6251,-9.2281 1.4199,-4.0222 1.8928,-8.0444 1.4199,-12.0666z"/>
    <path id="_41733248" class="fil13 str0" d="M35.5864 59.8814l-4.4957 9.701c1.4199,2.6024 2.8391,3.7855 4.7318,3.7855l5.6788 0c3.0759,0 5.9156,0.7096 8.9914,1.6559l8.754 -1.6559 5.6789 0c1.4198,-0.2368 2.839,-1.4199 4.4957,-3.7855l-4.4957 -9.701c-9.9378,-3.3126 -19.8749,-3.3126 -29.3392,0z"/>
    <path id="_57120920" class="fil13 str0" d="M7.9032 83.0689l5.4421 6.8613c3.3119,-2.1288 6.8613,-3.312 10.6474,-3.312 3.7854,-0.2367 7.8076,0.7096 11.5937,3.312 4.0222,2.3662 7.3348,2.1294 10.4106,-1.1825 2.8391,-3.0765 4.4957,-6.3884 4.4957,-9.9378l0 -3.7861c-3.0758,-0.9463 -5.9155,-1.6559 -8.9914,-1.6559 0.4735,1.8927 0.2368,4.0222 -0.7096,6.1516 -0.9463,2.3663 -3.3126,2.603 -7.0987,0.4736 -4.0222,-2.1295 -8.2811,-2.8391 -13.2497,-2.1295 -4.9685,0.4728 -8.9914,2.1295 -12.5401,5.2053z"/>
    <path id="_41777024" class="fil13 str0" d="M50.4927 75.0238l0 3.7861c0.9464,4.4957 3.3126,8.0444 7.3348,10.6474 3.7855,2.6023 7.0981,2.6023 10.1739,0.4729 2.603,-2.3656 6.1517,-3.312 10.4106,-3.0759 4.0229,0.4735 7.0987,1.4199 8.9914,3.0759l4.4957 -7.0981c-2.1294,-2.1294 -5.6788,-3.7854 -10.6473,-4.7318 -5.2054,-0.7102 -9.4643,0 -12.7769,2.3656 -3.5493,2.603 -5.9156,2.3662 -7.5715,-0.4728 -1.4199,-2.8391 -2.1295,-4.9693 -1.6567,-6.6252l-8.754 1.6559z"/>
   </g>
  </g>
  <rect class="fil13 str1" x="0.0381" y="0.0381" width="99.726" height="99.726"/>
 </g>
</svg>
