<?xml version="1.0" encoding="UTF-8"?>
<!DOCTYPE svg PUBLIC "-//W3C//DTD SVG 1.1//EN" "http://www.w3.org/Graphics/SVG/1.1/DTD/svg11.dtd">
<!-- Creator: CorelDRAW -->
<svg xmlns="http://www.w3.org/2000/svg" xml:space="preserve" width="99.8022mm" height="99.8022mm" style="shape-rendering:geometricPrecision; text-rendering:geometricPrecision; image-rendering:optimizeQuality; fill-rule:evenodd; clip-rule:evenodd"
viewBox="0 0 99.8022 99.8022"
 xmlns:xlink="http://www.w3.org/1999/xlink">
 <defs>
  <style type="text/css">
   <![CDATA[
    .str1 {stroke:white;stroke-width:0.0762}
    .str0 {stroke:#1F1A17;stroke-width:1.4111}
    .fil12 {fill:none}
    .fil0 {fill:#AAA9A9}
    .fil1 {fill:#BFBFBE}
    .fil2 {fill:#CDCCCC}
    .fil3 {fill:#D5D4D4}
    .fil4 {fill:#DBDBDB}
    .fil5 {fill:#E2E1E1}
    .fil6 {fill:#E8E8E7}
    .fil7 {fill:#ECECEB}
    .fil9 {fill:#F2F2F2}
    .fil10 {fill:#F9F9F9}
    .fil11 {fill:#FBFBFB}
    .fil8 {fill:#EFEEEE}
   ]]>
  </style>
 </defs>
 <g id="Layer_x0020_1">
  <metadata id="CorelCorpID_0Corel-Layer"/>
  <g id="_57715808">
   <path id="_57149544" class="fil0" d="M34.9946 87.9788c0,-1.4198 0.2367,-3.3126 0.9463,-5.6788 0.4735,-2.3656 1.1831,-4.495 1.8934,-5.6781 0.9464,-1.4199 3.5487,-4.4958 8.0444,-9.2282 4.4957,-4.9686 6.8619,-8.5179 7.098,-10.6474 0.2368,-2.8391 -0.2361,-4.7318 -1.1831,-5.9149l0 0c-1.4192,1.8927 -2.8391,3.0758 -4.2589,3.7854 -4.9686,2.3663 -8.754,4.259 -11.1203,5.6789 -2.603,1.4198 -4.4957,3.0758 -5.6788,4.7324 -1.1831,3.7855 -2.1295,6.1517 -3.3126,6.8613 -2.3655,0 -4.2589,-0.7096 -5.6781,-2.1295l0 0c-1.1831,0.4735 -2.3663,0.4735 -3.3126,0 -1.6567,-0.4728 -2.603,-0.9463 -3.0759,-1.6559 -0.2367,-0.2368 -0.9463,-1.6567 -2.1294,-3.7861 -0.9464,-2.1295 -0.9464,-4.259 0,-6.6246l9.2275 -19.1652 0 -3.3126 7.098 -11.1209c-0.7096,-1.656 -1.1831,-3.3126 -1.656,-4.7318 -0.4735,-2.1295 -0.7096,-4.0229 -0.7096,-5.9156 2.6024,1.6566 4.9686,3.7861 6.8613,5.9156 1.4199,1.1831 2.603,2.3655 3.5494,3.7854l3.3125 -1.1831c0.2361,-0.7096 0.2361,-1.656 0.7096,-2.6023 0.4736,-1.8934 1.656,-4.0229 3.0759,-6.1524 1.4199,1.4199 2.8391,3.0759 3.5493,4.7325 0,0.4729 0.2368,0.9464 0.4729,1.4199 0.7102,1.1831 1.1831,2.3655 1.6566,3.7854 1.8927,-1.4199 4.259,-1.6559 6.6252,-1.4199 2.3655,0.4736 4.9685,1.4199 7.3348,2.8398 2.3655,1.4192 4.9685,3.7854 7.8076,7.3348 2.8397,3.3126 5.4421,7.098 8.0451,11.5937 2.6023,5.6788 4.4957,11.5937 5.2053,17.9822l1.8927 26.5 -52.2905 0z"/>
   <g>
    <path id="_41546688" class="fil1" d="M85.28 87.9788l-1.8797 -26.3179c-0.6752,-6.0342 -2.4766,-11.7374 -4.9919,-17.2447 -2.2858,-3.9403 -4.8165,-7.7489 -7.7848,-11.2116l-0.0222 -0.0259 -0.0212 -0.0265c-1.9989,-2.4989 -4.5072,-5.2086 -7.2748,-6.8691 -2.004,-1.2025 -4.3089,-2.103 -6.6017,-2.5741 -1.7524,-0.1642 -3.6716,-0.0543 -5.1291,1.039l-2.2197 1.6652 -0.8778 -2.6323c-0.3949,-1.1843 -0.83,-2.3158 -1.4741,-3.3887l-0.0402 -0.067 -0.0348 -0.0699c-0.2973,-0.5963 -0.5528,-1.1581 -0.6457,-1.796 -0.3218,-0.6615 -0.7789,-1.324 -1.2845,-1.9516 -0.6188,1.0923 -1.1654,2.2509 -1.4379,3.3404l-0.0533 0.2132 -0.0983 0.1965c-0.3242,0.6478 -0.3589,1.6125 -0.6005,2.3387l-0.3075 0.9244 -5.7007 2.0361 -0.8662 -1.2996c-0.8631,-1.2949 -1.9749,-2.366 -3.1655,-3.3581l-0.1151 -0.0959 -0.0995 -0.1119c-0.9081,-1.0218 -1.8945,-2.0065 -2.9415,-2.9225 0.0657,0.3541 0.1377,0.7078 0.2153,1.0614 0.4985,1.5045 0.9376,3.0153 1.5637,4.4765l0.4166 0.9722 -7.3529 11.5203 0 3.1851 -9.3946 19.5123c-0.6652,1.6929 -0.7648,3.2466 -0.0386,4.9327 0.4275,0.771 0.8454,1.5467 1.2659,2.3216 0.1707,0.3147 0.3721,0.7242 0.575,1.0303l0.0487 0.0487 0.1098 0.1648c0.2129,0.3195 1.6164,0.7436 1.9605,0.8418l0.1793 0.0512 0.1668 0.0834c0.5087,0.2546 1.1706,0.1334 1.6745,-0.0682l1.2249 -0.4903 0.9328 0.9332c0.9783,0.9789 2.1988,1.4053 3.5232,1.5141 0.8048,-1.1475 1.8836,-4.5957 2.144,-5.4286l0.0954 -0.3054 0.1859 -0.2604c1.5939,-2.2317 3.924,-3.9983 6.3123,-5.3059 1.5146,-0.9069 3.0993,-1.7326 4.6726,-2.5318 2.1705,-1.1025 4.3657,-2.1614 6.5636,-3.2082 1.4256,-0.7171 2.5903,-1.9257 3.537,-3.1882l1.5485 -2.0652 1.613 2.0152c1.6214,2.0257 1.8221,4.8447 1.6148,7.3309l-0.0023 0.0271 -0.003 0.0271c-0.4108,3.7054 -5.1931,9.1057 -7.6028,11.7689l-0.0163 0.018 -0.0167 0.0176c-1.7979,1.8926 -3.5825,3.8132 -5.2908,5.7875 -0.8412,0.9722 -1.7925,2.0606 -2.5119,3.1314 -0.7754,1.3166 -1.3282,3.5247 -1.624,5.0024l-0.0184 0.0921 -0.027 0.0899c-0.4852,1.6179 -0.862,3.4073 -0.862,5.1043l48.2854 0z"/>
    <path id="_56987992" class="fil2" d="M83.2749 87.9788l-1.8666 -26.1349c-0.6513,-5.775 -2.3786,-11.2348 -4.7788,-16.5085 -2.2112,-3.8037 -4.6575,-7.4848 -7.5244,-10.8292l-0.0443 -0.0516 -0.0425 -0.0531c-1.8372,-2.297 -4.1956,-4.8758 -6.742,-6.4035 -1.7792,-1.0676 -3.8311,-1.8759 -5.8678,-2.3075 -1.1844,-0.1022 -2.6565,-0.0757 -3.6337,0.6574l-4.4393 3.3304 -1.7557 -5.2647c-0.3467,-1.0398 -0.7258,-2.0497 -1.2915,-2.9921l-0.0805 -0.134 -0.037 -0.0742c-0.1603,0.4136 -0.3043,1.5307 -0.4653,2.0146l-0.6151 1.8488 -8.0889 2.889 -1.7323 -2.599c-0.1316,-0.1975 -0.2706,-0.3891 -0.4159,-0.5756l-7.3988 11.5921 0 3.0577 -9.5589 19.8536c-0.4384,1.1412 -0.5373,2.1275 -0.0703,3.2656 0.5208,0.9551 1.0547,2.0576 1.6175,2.9736l0.0226 0.0225 0.0025 0.0038c0.3184,0.1435 0.798,0.2781 1.0621,0.3535l0.3587 0.1023 0.1806 0.0904c0.0661,-0.014 0.1433,-0.0415 0.1893,-0.0599l2.4499 -0.9805 1.8655 1.8664c0.3082,0.3083 0.6591,0.5235 1.037,0.6705 0.532,-1.2554 1.0842,-3.0557 1.3067,-3.7678l0.1909 -0.6108 0.3719 -0.5207c1.7657,-2.4724 4.2985,-4.4251 6.9449,-5.879 3.5762,-2.139 7.5869,-4.0083 11.35,-5.8002 1.1245,-0.5714 2.0728,-1.5987 2.8179,-2.5924l3.0971 -4.1304 3.226 4.0304c1.9666,2.4569 2.2994,5.7146 2.0465,8.747l-0.0046 0.0542 -0.006 0.0541c-0.4775,4.3073 -5.303,9.7908 -8.1075,12.8904l-0.0326 0.036 -0.0335 0.0352c-1.7765,1.87 -3.5404,3.7679 -5.2284,5.7186 -0.7712,0.8914 -1.6618,1.9033 -2.3292,2.8863 -0.6275,1.0983 -1.1173,3.1291 -1.358,4.3315l-0.0368 0.1841 -0.054 0.1798c-0.4272,1.4247 -0.7777,3.034 -0.7777,4.5298l44.2803 0z"/>
    <path id="_42679336" class="fil3" d="M81.2698 87.9788l-1.8535 -25.9511c-0.6272,-5.5161 -2.2806,-10.7331 -4.5661,-15.7734 -2.1363,-3.6672 -4.4982,-7.2206 -7.2635,-10.4464l-0.0664 -0.0775 -0.0638 -0.0797c-1.6736,-2.0923 -3.8869,-4.5444 -6.2092,-5.9377 -1.5523,-0.9315 -3.3477,-1.6464 -5.1263,-2.0385 -0.6522,-0.0466 -1.703,-0.0591 -2.146,0.2732l-6.659 4.9956 -2.0546 -6.1611 -10.0579 3.5923 -1.2982 -1.9476 -5.4508 8.5402 0 2.9302 -9.7216 20.1914c-0.2188,0.5825 -0.3022,1.0461 -0.0903,1.6264 0.3897,0.7185 0.7762,1.481 1.1794,2.2016 0.0763,0.0224 0.1504,0.0433 0.2185,0.0626l3.1499 -1.2606 1.5106 1.5114c0.1214,-0.3863 0.2266,-0.7321 0.3078,-0.9918l0.2863 -0.9162 0.5578 -0.7811c1.9367,-2.7117 4.6745,-4.8524 7.5771,-6.4517 3.6164,-2.16 7.6558,-4.0474 11.4595,-5.8584 0.8165,-0.4225 1.5669,-1.283 2.1037,-1.999l4.6455 -6.1954 4.8391 6.0455c2.3078,2.8831 2.776,6.5913 2.4781,10.163l-0.0067 0.0813 -0.009 0.0812c-0.5416,4.8848 -5.4281,10.4925 -8.6124,14.0118l-0.0489 0.054 -0.0502 0.0529c-1.7551,1.8475 -3.4983,3.7225 -5.166,5.6498 -0.6981,0.8068 -1.5236,1.7382 -2.1388,2.6307 -0.482,0.8915 -0.9127,2.7368 -1.0997,3.6709l-0.0553 0.2762 -0.0809 0.2697c-0.3687,1.2296 -0.6934,2.6626 -0.6934,3.9553l40.2752 0z"/>
    <path id="_55533456" class="fil4" d="M79.2647 87.9788l-1.8403 -25.7663c-0.6031,-5.2575 -2.1825,-10.2325 -4.3538,-15.0397 -2.0612,-3.5305 -4.3388,-6.9561 -7.0024,-10.0632l-0.0885 -0.1033 -0.085 -0.1063c-1.5072,-1.8843 -3.5817,-4.2153 -5.6764,-5.472 -1.3266,-0.7961 -2.8661,-1.4171 -4.3886,-1.7689 -0.2772,-0.0163 -0.6033,-0.0223 -0.8229,0.0148l-8.7103 6.5345 -2.2861 -6.8556 -9.605 3.4305 -0.4638 -0.6959 -3.4871 5.4636 0 2.8027 -9.8725 20.5049c-0.0176,0.0512 -0.0341,0.1039 -0.0463,0.1527 0.0904,0.1681 0.1805,0.3375 0.2706,0.5073l2.8659 -1.147 0.3256 0.3258 0.2276 -0.3187c2.1069,-2.9502 5.0515,-5.28 8.2088,-7.0241 3.6535,-2.1793 7.7186,-4.0837 11.5601,-5.9126 0.4926,-0.2666 1.0857,-0.9923 1.3988,-1.4099l6.194 -8.2606 6.4521 8.0607c2.6426,3.3014 3.2519,7.4772 2.9098,11.579l-0.009 0.1085 -0.012 0.1082c-0.6035,5.443 -5.566,11.2086 -9.1172,15.1333l-0.0652 0.072 -0.0669 0.0704c-2.0608,2.1694 -5.2617,5.3756 -7.0132,7.8991 -0.3898,0.814 -0.7137,2.2357 -0.8802,3.0674l-0.0737 0.3682 -0.1079 0.3597c-0.3093,1.0316 -0.6091,2.294 -0.6091,3.3808l36.2701 0z"/>
    <path id="_56601232" class="fil5" d="M77.2596 87.9788l-1.827 -25.5805c-0.5789,-4.9993 -2.0844,-9.7331 -4.1419,-14.3074 -1.9861,-3.3939 -4.1793,-6.6915 -6.7409,-9.6797l-0.1107 -0.1291 -0.1062 -0.1328c-1.3376,-1.6722 -3.281,-3.8888 -5.1436,-5.0064 -1.0636,-0.6382 -2.2963,-1.1507 -3.5212,-1.4648l-3.9967 2.9982 7.9292 9.9061c2.9748,3.7164 3.7275,8.3672 3.3415,12.9951l-0.0113 0.1355 -0.015 0.1353c-0.6636,5.9855 -5.715,11.9368 -9.622,16.2548l-0.0814 0.09 -0.0836 0.088c-1.9532,2.0561 -4.9873,5.092 -6.7068,7.5022 -0.2986,0.7182 -0.5353,1.7784 -0.6756,2.4794l-0.0921 0.4602 -0.1348 0.4496c-0.2487,0.8291 -0.5249,1.93 -0.5249,2.8063l32.265 0zm-26.19 -52.8509l-5.7925 4.3455 -2.5178 -7.5501 -8.2124 2.9332 -2.0924 3.2783 0 2.6753 -7.5473 15.6755c1.9139,-1.9351 4.16,-3.5528 6.5307,-4.8656 3.6678,-2.1849 7.7312,-4.0963 11.5892,-5.9326 0.2509,-0.1875 0.5953,-0.6277 0.7658,-0.8551l7.2767 -9.7044z"/>
    <path id="_56990032" class="fil6" d="M75.2545 87.9788l-1.8136 -25.3936c-0.5546,-4.7415 -1.9862,-9.2349 -3.9306,-13.5766 -1.9107,-3.2573 -4.0195,-6.4266 -6.4789,-9.2957l-0.1329 -0.1549 -0.1275 -0.1594c-1.1635,-1.4546 -2.9863,-3.5661 -4.6108,-4.5407 -0.6412,-0.3848 -1.3619,-0.718 -2.0996,-0.974l-1.5381 1.1538 6.6395 8.2948c3.3043,4.1281 4.2027,9.261 3.7732,14.4112l-0.0136 0.1627 -0.018 0.1623c-0.7223,6.5151 -5.8731,12.6752 -10.1267,17.3763l-0.0978 0.108 -0.1003 0.1056c-1.8996,1.9996 -4.6535,4.7619 -6.3836,7.0954 -0.2118,0.594 -0.3768,1.3474 -0.4877,1.9012l-0.1105 0.5523 -0.1618 0.5395c-0.1856,0.6187 -0.4406,1.5748 -0.4406,2.2318l28.2599 0zm-31.4262 -46.5276l-2.3201 -6.9573 -5.6438 2.0157 -1.4099 2.2091 0 2.5478 -4.2003 8.7238c0.0623,-0.0351 0.1247,-0.0699 0.1872,-0.1046 3.6259,-2.1575 7.6213,-4.0509 11.4419,-5.8689 0.1119,-0.1222 0.2247,-0.2713 0.3095,-0.3843l1.6355 -2.1813z"/>
    <path id="_41732600" class="fil7" d="M73.2494 87.9788l-1.8002 -25.2055c-0.53,-4.4842 -1.8879,-8.738 -3.7196,-12.8476 -0.9242,-1.5715 -1.8963,-3.1227 -2.9348,-4.6268 1.9545,3.8533 2.5,8.2169 2.1335,12.6111l-0.0159 0.1897 -0.021 0.1893c-0.7798,7.0339 -6.039,13.4222 -10.6315,18.4978l-0.1141 0.1261 -0.117 0.1232c-1.8231,1.9191 -4.3241,4.4356 -6.0373,6.6661 -0.1353,0.4449 -0.2424,0.9435 -0.3229,1.3455l-0.129 0.6444 -0.1887 0.6294c-0.136,0.4532 -0.3361,1.1708 -0.3558,1.6573l24.2543 0zm-31.6499 -46.889l-1.3423 -4.0253 -3.0753 1.0983 -0.7274 1.1397 0 2.4204 -1.7029 3.5368c1.9466,-0.9874 3.9222,-1.9303 5.8604,-2.8528l0.9875 -1.3171z"/>
    <path id="_57429800" class="fil8" d="M71.2443 87.9788l-1.7867 -25.0161c-0.1531,-1.2809 -0.3777,-2.5424 -0.6643,-3.7864 -1.0679,7.2678 -6.2711,13.6704 -11.0504,18.9524l-0.1303 0.1441 -0.1338 0.1408c-1.7298,1.8208 -3.9969,4.1099 -5.6685,6.2171 -0.0712,0.2773 -0.1308,0.5608 -0.1806,0.8096l-0.1474 0.7364 -0.2157 0.7193c-0.0927,0.3091 -0.2156,0.7348 -0.2619,1.0828l20.2396 0zm-31.8735 -47.2504l-0.3647 -1.0934 -0.5067 0.181 -0.0449 0.0704 0 1.3336c0.2848,-0.1361 0.5691,-0.2718 0.8528,-0.4069l0.0635 -0.0847z"/>
    <path id="_56989456" class="fil9" d="M69.2392 87.9788l-1.4274 -19.9863c-2.2752,4.217 -5.4736,8.0384 -8.5859,11.4781l-0.1466 0.162 -0.1505 0.1585c-1.6232,1.7086 -3.6699,3.7827 -5.2776,5.75 -0.0216,0.1002 -0.0417,0.1983 -0.0604,0.2917l-0.1658 0.8285 -0.2427 0.8092c-0.0458,0.1528 -0.099,0.3324 -0.1405,0.5083l16.1974 0z"/>
    <path id="_40867696" class="fil10" d="M67.2342 87.9788l-0.9884 -13.8386c-1.7262,2.3507 -3.6345,4.5698 -5.5368,6.6723l-0.1629 0.18 -0.1673 0.1761c-1.5073,1.5867 -3.3459,3.4566 -4.87,5.2722l-0.1411 0.705 -0.2498 0.833 12.1163 0z"/>
    <path id="_57488720" class="fil10" d="M65.2291 87.9788l-0.6129 -8.581c-0.7974,0.9379 -1.6096,1.8562 -2.4242,2.7565l-0.1792 0.1981 -0.184 0.1936c-1.3889,1.4621 -3.0353,3.1426 -4.4621,4.803l-0.0564 0.2814 -0.1045 0.3484 8.0233 0z"/>
    <path id="_56348504" class="fil11" d="M63.224 87.9788l-0.2656 -3.7187c-1.1085,1.1621 -2.3409,2.4362 -3.4811,3.7187l3.7467 0z"/>
   </g>
   <path id="_56980280" class="fil12 str0" d="M27.1869 13.4472c0,1.8927 0.2361,3.7861 0.7096,5.9156 0.4729,1.4192 0.9464,3.0758 1.656,4.7318l-7.098 11.1209 0 3.3126 -9.2275 19.1652c-0.9464,2.3656 -0.9464,4.4951 0,6.6246 1.1831,2.1294 1.8927,3.5493 2.1294,3.7861 0.4729,0.7096 1.4192,1.1831 3.0759,1.6559 0.9463,0.4735 2.1295,0.4735 3.3126,0l2.6023 -4.0222 -2.6023 4.0222c1.4192,1.4199 3.3126,2.1295 5.6781,2.1295 1.1831,-0.7096 2.1295,-3.0758 3.3126,-6.8613 1.1831,-1.6566 3.0758,-3.3126 5.6788,-4.7324 2.3663,-1.4199 6.1517,-3.3126 11.1203,-5.6789 1.4198,-0.7096 2.8397,-1.8927 4.2589,-3.7854 0.947,-1.1831 1.6566,-2.8391 1.8934,-4.7325 0.4728,-2.1294 0.4728,-4.2582 0,-6.3884 0.4728,2.1302 0.4728,4.259 0,6.3884 -0.2368,1.8934 -0.9464,3.5494 -1.8934,4.7325 0.947,1.1831 1.4199,3.0758 1.1831,5.9149 -0.2361,2.1295 -2.6023,5.6788 -7.098,10.6474 -4.4957,4.7324 -7.098,7.8083 -8.0444,9.2282 -0.7103,1.1831 -1.4199,3.3125 -1.8934,5.6781 -0.7096,2.3662 -0.9463,4.259 -0.9463,5.6788l52.2905 0 -1.8927 -26.5c-0.7096,-6.3885 -2.603,-12.3034 -5.2053,-17.9822 -2.603,-4.4957 -5.2054,-8.2811 -8.0451,-11.5937 -2.8391,-3.5494 -5.4421,-5.9156 -7.8076,-7.3348 -2.3663,-1.4199 -4.9693,-2.3662 -7.3348,-2.8398 -2.3662,-0.236 -4.7325,0 -6.6252,1.4199 -0.4735,-1.4199 -0.9464,-2.6023 -1.6566,-3.7854 -0.2361,-0.4735 -0.4729,-0.947 -0.4729,-1.4199 -0.7102,-1.6566 -2.1294,-3.3126 -3.5493,-4.7325 -1.4199,2.1295 -2.6023,4.259 -3.0759,6.1524 -0.4735,0.9463 -0.4735,1.8927 -0.7096,2.6023l-3.3125 1.1831c-0.9464,-1.4199 -2.1295,-2.6023 -3.5494,-3.7854 -1.8927,-2.1295 -4.2589,-4.259 -6.8613,-5.9156zm1.656 25.317c2.603,-2.1295 4.4957,-4.0222 4.9685,-5.4421 -0.4728,1.4199 -2.3655,3.3126 -4.9685,5.4421zm-13.96 24.844l1.6567 -1.6559 -1.6567 1.6559z"/>
  </g>
  <rect class="fil12 str1" x="0.0381" y="0.0381" width="99.726" height="99.726"/>
 </g>
</svg>
