<?xml version="1.0" encoding="UTF-8"?>
<!DOCTYPE svg PUBLIC "-//W3C//DTD SVG 1.1//EN" "http://www.w3.org/Graphics/SVG/1.1/DTD/svg11.dtd">
<!-- Creator: CorelDRAW -->
<svg xmlns="http://www.w3.org/2000/svg" xml:space="preserve" width="99.8022mm" height="99.8022mm" style="shape-rendering:geometricPrecision; text-rendering:geometricPrecision; image-rendering:optimizeQuality; fill-rule:evenodd; clip-rule:evenodd"
viewBox="0 0 99.8022 99.8022"
 xmlns:xlink="http://www.w3.org/1999/xlink">
 <defs>
  <style type="text/css">
   <![CDATA[
    .str0 {stroke:white;stroke-width:0.0762}
    .str1 {stroke:#1F1A17;stroke-width:1.4}
    .fil0 {fill:none}
    .fil1 {fill:#AAA9A9}
    .fil2 {fill:#BFBFBE}
    .fil3 {fill:#CDCCCC}
    .fil4 {fill:#D5D4D4}
    .fil5 {fill:#DEDEDD}
    .fil6 {fill:#E6E5E5}
    .fil7 {fill:#E8E8E7}
    .fil9 {fill:#F2F2F2}
    .fil10 {fill:whitesmoke}
    .fil11 {fill:#F9F9F9}
    .fil12 {fill:#FBFBFB}
    .fil13 {fill:white}
    .fil8 {fill:#EFEEEE}
   ]]>
  </style>
 </defs>
 <g id="Layer_x0020_1">
  <metadata id="CorelCorpID_0Corel-Layer"/>
  <rect class="fil0 str0" x="0.0381" y="0.0381" width="99.726" height="99.726"/>
  <path class="fil1" d="M74.0188 87.1081l0 0.9927 0 0.3211c-1.1375,0.3853 -2.6569,0.634 -4.5587,0.7289 -1.4192,0.2361 -8.5172,0.2361 -20.5845,0.2361 -12.304,0 -19.1653,0 -20.8219,-0.2361 -1.779,-0.0938 -3.2239,-0.336 -4.3213,-0.7115l0 -1.3312c0,-8.7545 0.0624,-16.3261 5.5044,-22.7144 3.5494,-4.0226 7.5716,-6.6253 12.0673,-8.0445l-1.4199 -0.7103 -0.7096 -0.2367 -1.8927 -1.4192c-3.3126,-2.6031 -4.7325,-5.4422 -4.7325,-8.9914l0.2368 -2.3663c0.4728,-2.3655 1.8927,-4.4949 4.4957,-6.3884 2.3662,-1.8928 5.2053,-3.0757 8.5179,-3.5487l2.8391 -0.237 4.0222 0.4737c2.6029,0.4728 5.2053,1.6561 7.3347,3.312 3.0759,2.3663 4.7325,5.4421 4.7325,8.7547 0,3.5492 -1.6566,6.3883 -4.7325,8.9914 -0.7096,0.4727 -1.8927,1.1832 -3.3126,1.8926 -0.1911,0.0955 -0.3864,0.1865 -0.5861,0.2737 0.1186,0.0648 0.2358,0.1309 0.3501,0.1999 4.4957,1.4192 8.2811,4.0219 11.8304,8.0445 5.4414,6.3883 5.7412,13.9599 5.7412,22.7144zm-18.9019 -68.4448c-1.7604,-1.5344 -3.7724,-2.3011 -6.2878,-2.3011 -2.2638,0 -4.5275,0.7667 -6.2885,2.3011 -1.5087,1.5344 -2.5147,3.3238 -2.5147,5.6251 0,2.0452 1.006,4.0915 2.5147,5.6251 1.8787,1.4322 3.8879,2.3012 6.2885,2.3012 1.5093,0 2.7663,-0.2559 4.024,-0.767 0.7551,-0.5116 1.5094,-1.0224 2.2638,-1.5342 1.761,-1.5336 2.5154,-3.5799 2.5154,-5.6251 0,-2.3013 -0.7544,-4.0907 -2.5154,-5.6251z"/>
  <g id="_41780144">
   <path id="_57170288" class="fil2" d="M58.7913 52.3819c2.3131,-1.9793 3.937,-4.2489 3.937,-7.3903 0,-2.9726 -1.6612,-5.4072 -3.952,-7.1695l-0.0082 -0.0064c-1.8395,-1.4304 -4.1122,-2.4847 -6.4052,-2.9121l-3.7581 -0.4426 -2.5789 0.2153c-2.7587,0.4021 -5.3076,1.3729 -7.4947,3.1224l-0.0357 0.0286 -0.0371 0.027c-1.7609,1.2809 -3.2273,2.8989 -3.6925,5.0736l-0.2161 2.1593c0.0281,3.1905 1.4624,5.3497 3.9505,7.3096l1.6147 1.2108 0.5369 0.179 5.9634 2.9832 -4.7091 1.4866c-4.4373,1.4008 -8.0869,3.9707 -11.1581,7.4474 -5.1782,6.09 -5.0157,13.8454 -5.0157,21.4043l0 1.8077c0.6964,0.1111 1.4706,0.1901 2.3213,0.235 1.6566,0.2361 8.5179,0.2361 20.8219,0.2361 12.0673,0 19.1653,0 20.5845,-0.2361 0.9479,-0.0473 1.8007,-0.1329 2.5587,-0.2545l0 -1.7882c0,-7.6216 -0.0564,-15.2931 -5.2526,-21.4044 -3.053,-3.4568 -6.5012,-6.052 -10.9211,-7.4473l-0.2274 -0.0718 -0.2041 -0.1232c-0.0905,-0.0546 -0.1827,-0.1063 -0.2754,-0.157l-3.5795 -1.9557 3.7381 -1.6323c0.166,-0.0725 0.3303,-0.1489 0.4925,-0.2299 1.0157,-0.5075 2.0504,-1.0782 3.002,-1.7046zm-14.8797 -32.26c-1.1442,1.1803 -1.8857,2.4759 -1.8857,4.1665 0,1.5245 0.81,3.032 1.844,4.1226 1.4937,1.114 3.0599,1.8037 4.9592,1.8037 1.0976,0 2.0754,-0.162 3.085,-0.5466 0.6576,-0.4455 1.3153,-0.891 1.9727,-1.3369 1.1669,-1.0571 1.7455,-2.4682 1.7455,-4.0428 0,-1.7338 -0.5146,-2.9717 -1.8294,-4.1173 -1.464,-1.2761 -3.0396,-1.8089 -4.9738,-1.8089 -1.7878,0 -3.552,0.5957 -4.9175,1.7597z"/>
   <path id="_57171768" class="fil3" d="M57.5867 50.7799c1.7997,-1.5589 3.1416,-3.3096 3.1416,-5.7883 0,-2.3321 -1.3867,-4.2113 -3.1715,-5.5843l-0.0165 -0.0128c-1.5704,-1.2212 -3.5229,-2.1363 -5.4806,-2.5128l-3.489 -0.4109 -2.3155 0.1933c-2.3817,0.3553 -4.5828,1.183 -6.4746,2.6964l-0.0716 0.0572 -0.0741 0.0539c-1.3112,0.9538 -2.5082,2.1609 -2.891,3.7762l-0.1926 1.9245c0.0528,2.499 1.2063,4.0895 3.1683,5.639l1.3358 1.0016 0.3642 0.1215 6.6807 3.342 6.3961 -2.7929c0.1344,-0.0587 0.2676,-0.1205 0.399,-0.1861 0.9073,-0.4533 1.835,-0.9617 2.6913,-1.5175zm12.4321 38.3375c-0.1825,0.0126 -0.3686,0.0239 -0.5587,0.0334 -1.4192,0.2361 -8.5172,0.2361 -20.5845,0.2361 -12.304,0 -19.1653,0 -20.8219,-0.2361 -0.1084,-0.0057 -0.2153,-0.0122 -0.3213,-0.019l0 -2.0237c0,-6.9511 -0.2381,-14.4766 4.5273,-20.0946 2.8271,-3.1961 6.1651,-5.5608 10.2485,-6.8498l7.982 -2.5198 3.689 2.0156c0.0675,0.0369 0.1349,0.0744 0.2008,0.1141l0.4083 0.2465 0.4548 0.1436c4.0622,1.2823 7.2057,3.6763 10.0114,6.8496 4.7973,5.6548 4.7643,13.0632 4.7643,20.0948l0 2.0093zm-24.74 -67.5317c-0.7351,0.7732 -1.2529,1.5916 -1.2529,2.7027 0,0.9363 0.5566,1.9214 1.1844,2.6257 1.0949,0.7909 2.2254,1.3006 3.6188,1.3006 0.7792,0 1.4609,-0.098 2.1684,-0.3414 0.546,-0.3699 1.0919,-0.7397 1.6376,-1.1098 0.6843,-0.6649 0.9972,-1.5084 0.9972,-2.4751 0,-1.1526 -0.2688,-1.8475 -1.1434,-2.6095 -1.0984,-0.9575 -2.2097,-1.3167 -3.6598,-1.3167 -1.281,0 -2.557,0.4074 -3.5503,1.2235z"/>
   <path id="_58485552" class="fil4" d="M56.3837 49.1758c1.2833,-1.1253 2.3446,-2.3902 2.3446,-4.1842 0,-1.6776 -1.1234,-3.024 -2.391,-3.9991l-0.0247 -0.0192c-1.303,-1.0132 -2.9373,-1.7891 -4.5626,-2.1142l-3.2135 -0.3785 -2.0484 0.171c-2.0053,0.3074 -3.8615,0.9934 -5.4582,2.2707l-0.1073 0.0858 -0.1112 0.0809c-0.85,0.6183 -1.7925,1.4552 -2.0927,2.5105l-0.1643 1.6416c0.0733,1.7995 0.9492,2.8488 2.3851,3.9851l1.0564 0.7921 0.1913 0.0638 5.9707 2.9868 5.5382 -2.4182c0.1028,-0.0449 0.2047,-0.0922 0.3053,-0.1424 0.7998,-0.3996 1.6209,-0.8462 2.3823,-1.3325zm11.6351 40.0863c-2.8875,0.1246 -9.3926,0.1248 -19.1432,0.1248 -9.7807,0 -16.1214,-0.0002 -19.1432,-0.1188l0 -2.16c0,-6.3539 -0.3136,-13.6377 4.0394,-18.7854 2.5824,-2.915 5.6096,-5.0747 9.3385,-6.2518l7.169 -2.2631 2.941 1.6068c0.0421,0.0231 0.0849,0.0464 0.1261,0.0712l0.6124 0.3697 0.6822 0.2154c3.7034,1.1691 6.5439,3.3626 9.1013,6.2515 4.3917,5.1916 4.2765,12.3591 4.2765,18.7857l0 2.154zm-21.387 -66.1972c-0.3204,0.3456 -0.6059,0.7365 -0.6059,1.2235 0,0.3357 0.2863,0.8059 0.5539,1.1445 0.6793,0.4633 1.3852,0.7818 2.2493,0.7818 0.4707,0 0.8738,-0.0437 1.2879,-0.1606 0.4058,-0.275 0.8117,-0.55 1.2175,-0.8251 0.2218,-0.2637 0.2978,-0.567 0.2978,-0.9406 0,-0.5711 -0.0332,-0.7322 -0.4574,-1.1017 -0.73,-0.6363 -1.3817,-0.8245 -2.3458,-0.8245 -0.7799,0 -1.5743,0.2265 -2.1973,0.7027z"/>
   <path id="_58484216" class="fil5" d="M55.1887 47.5653c0.7711,-0.6822 1.5396,-1.5138 1.5396,-2.5737 0,-0.9867 -0.8911,-1.8605 -1.6105,-2.4139l-0.033 -0.0256c-1.0377,-0.8069 -2.3563,-1.4437 -3.6531,-1.7167l-2.9293 -0.345 -1.7771 0.1484c-1.6293,0.2578 -3.1447,0.8042 -4.4461,1.8453l-0.1431 0.1144 -0.1482 0.1078c-0.3459,0.2517 -1.0794,0.8243 -1.302,1.321l-0.1252 1.2509c0.0885,1.0848 0.6916,1.6465 1.5965,2.3613l0.7791 0.5841 0.0186 0.0063 5.2606 2.6315 4.6803 -2.0436c0.0711,-0.0311 0.1419,-0.0637 0.2117,-0.0986 0.6954,-0.3474 1.4126,-0.7344 2.0812,-1.1539zm10.8301 41.7545c-3.4376,0.0669 -9.2188,0.0671 -17.1432,0.0671 -7.9859,0 -13.6778,-0.0003 -17.1432,-0.0649l0 -2.2139c0,-5.7137 -0.3666,-12.8232 3.5522,-17.4769 2.3372,-2.6332 5.054,-4.5881 8.4278,-5.6531l6.356 -2.0065 2.1929 1.1981c0.0192,0.0106 0.0387,0.0211 0.0577,0.0321l0.8103 0.4892 0.9096 0.2871c3.3428,1.0553 5.8828,3.0495 8.1906,5.6527 3.9842,4.7274 3.7893,11.6442 3.7893,17.4773l0 2.2117z"/>
   <path id="_57471424" class="fil6" d="M53.9435 45.9839c0.3138,-0.2956 0.6759,-0.6712 0.7819,-0.9089 0.0015,-0.0142 0.0023,-0.0297 0.0026,-0.0448 -0.1194,-0.2732 -0.6251,-0.71 -0.8297,-0.8673l-0.0412 -0.0319c-0.7756,-0.6032 -1.7819,-1.1006 -2.7556,-1.3207l-2.6332 -0.3101 -1.5007 0.1253c-1.2538,0.2061 -2.4339,0.6163 -3.4391,1.4203l-0.1788 0.1431 -0.1853 0.1348c-0.1382,0.1005 -0.3693,0.2755 -0.5424,0.4413l-0.0506 0.5059c0.1585,0.2413 0.5807,0.6017 0.8192,0.7936l0.589 0.4417 4.2934 2.1477 3.8224 -1.669c0.0395,-0.0173 0.0792,-0.0353 0.1182,-0.0548 0.5743,-0.287 1.1689,-0.6043 1.7299,-0.9462zm10.0753 43.365c-3.5084,0.0378 -8.5933,0.038 -15.1432,0.038 -6.6036,0 -11.6383,-0.0003 -15.1432,-0.0368l0 -2.242c0,-5.0458 -0.4027,-12.0259 3.066,-16.1696 2.0911,-2.3505 4.4986,-4.1006 7.5161,-5.0532l5.5431 -1.7498 1.4448 0.7894c0.0036,0.0019 0.0072,0.0039 0.0109,0.0059l0.9866 0.5956 1.1369 0.3589c2.98,0.9407 5.2223,2.737 7.2788,5.0527 3.5552,4.24 3.3032,10.9774 3.3032,16.1701l0 2.2408z"/>
   <path id="_57363408" class="fil7" d="M51.5074 45.0464c-0.2492,-0.11 -0.5047,-0.2004 -0.7544,-0.2633l-2.3188 -0.2731 -1.2181 0.1017c-0.5532,0.0954 -1.0962,0.2415 -1.5987,0.4775l2.7132 1.3573 2.9645 -1.2945c0.0087,-0.0038 0.0178,-0.0078 0.0246,-0.0111 0.0623,-0.0311 0.1249,-0.0626 0.1877,-0.0945zm10.5114 44.3192c-3.3454,0.0211 -7.7468,0.0213 -13.1432,0.0213 -5.4375,0 -9.8111,-0.0002 -13.1432,-0.0206l0 -2.2582c0,-4.344 -0.4173,-11.2502 2.5814,-14.8639 1.8438,-2.0666 3.9431,-3.612 6.6027,-4.4516l4.7302 -1.4933 0.6697 0.3659 1.154 0.6966 1.3644 0.4308c2.6136,0.825 4.5628,2.4252 6.3654,4.451 3.1094,3.7354 2.8186,10.3417 2.8186,14.8645l0 2.2575z"/>
   <path id="_57174624" class="fil8" d="M49.4286 68.4655l-3.91 1.2343c-2.2995,0.7259 -4.0922,2.0668 -5.6869,3.8473 -2.503,3.0585 -2.0993,9.9581 -2.0993,13.561l0 2.2676c3.0226,0.0109 6.733,0.0112 11.1432,0.0112 4.381,0 8.1061,-0.0003 11.1432,-0.0116l0 -2.2672c0,-3.817 0.306,-10.3523 -2.3363,-13.5615 -1.5453,-1.7325 -3.2072,-3.1389 -5.4498,-3.8468l-1.5918 -0.5025 -1.2123 -0.7318z"/>
   <path id="_57173208" class="fil9" d="M49.1688 70.6448l-3.0481 0.9622c-1.9359,0.6111 -3.4243,1.7473 -4.7674,3.239 -1.9726,2.4696 -1.6209,9.4407 -1.6209,12.2621l0 2.2733c2.6156,0.0054 5.6612,0.0055 9.1432,0.0055 3.4629,0 6.5155,-0.0002 9.1432,-0.0058l0 -2.273c0,-3.0711 0.2891,-9.6085 -1.8575,-12.2623 -1.2831,-1.4344 -2.6668,-2.6504 -4.5307,-3.2388l-1.8192 -0.5743 -0.6426 -0.3879z"/>
   <path id="_57401288" class="fil10" d="M48.909 72.8241l-2.1863 0.6901c-1.5661,0.4944 -2.7543,1.4256 -3.8414,2.6238 -1.3946,1.8354 -1.1489,8.961 -1.1489,10.9701l0 2.2763c2.1345,0.0023 4.514,0.0025 7.1432,0.0025 2.6175,0 5.0005,-0.0002 7.1432,-0.0026l0 -2.2762c0,-2.2883 0.2269,-8.9116 -1.3841,-10.9692 -1.014,-1.1297 -2.1332,-2.1597 -3.6061,-2.6247l-2.0466 -0.646 -0.073 -0.0441z"/>
   <path id="_56887200" class="fil11" d="M48.8757 74.9319l-1.5509 0.4896c-1.1859,0.3743 -2.0802,1.0988 -2.9044,1.9969 -0.7579,1.1486 -0.688,8.5055 -0.688,9.6897l0 2.2778c1.5942,0.0008 3.3075,0.001 5.1432,0.001 1.8298,0 3.5443,-0.0002 5.1432,-0.001l0 -2.2778c0,-1.497 0.1088,-8.2739 -0.9194,-9.6856 -0.7367,-0.8179 -1.6127,-1.6664 -2.6729,-2.001l-1.5508 -0.4896z"/>
   <path id="_57884584" class="fil12" d="M48.8757 77.0292l-0.9488 0.2995c-0.7103,0.2242 -1.2774,0.6646 -1.7874,1.1824 -0.5139,1.8667 -0.4071,6.9059 -0.4071,8.597l0 2.2784 3.1432 0.0004 3.1432 -0.0004 0 -2.2784c0,-1.5985 0.0576,-6.8583 -0.534,-8.4893 -0.4602,-0.5007 -1.0836,-1.108 -1.6604,-1.2901l-0.9487 -0.2995z"/>
   <path id="_56407960" class="fil13" d="M48.8757 79.1265l-0.3467 0.1094c-0.1938,0.0612 -0.382,0.1739 -0.559,0.3109 -0.3466,2.0454 -0.2376,5.9078 -0.2376,7.5613l0 2.2787 1.1432 0.0001 1.1432 -0.0001 0 -2.2787c0,-1.593 0.0759,-5.5957 -0.336,-7.4744 -0.1656,-0.1623 -0.3333,-0.3109 -0.4729,-0.4017l-0.3342 -0.1055z"/>
  </g>
  <path class="fil0 str1" d="M74.0188 87.1082l0 1.3137c-1.1375,0.3854 -2.6569,0.6338 -4.5587,0.7289 -1.4192,0.2361 -8.5172,0.2361 -20.5845,0.2361 -12.304,0 -19.1653,0 -20.8219,-0.2361 -1.779,-0.0937 -3.2239,-0.336 -4.3213,-0.7115l0 -1.3311c0,-8.7546 0.0624,-16.3262 5.5044,-22.7146 3.5494,-4.0222 7.5716,-6.6252 12.0673,-8.0444l-1.4199 -0.7103 -0.7096 -0.2367 -1.8927 -1.4192c-3.3126,-2.603 -4.7325,-5.4421 -4.7325,-8.9914l0.2368 -2.3663c0.4728,-2.3655 1.8927,-4.495 4.4957,-6.3884 2.3662,-1.8927 5.2053,-3.0758 8.5179,-3.5487l2.8391 -0.2367 4.0222 0.4735c2.6029,0.4728 5.2053,1.6559 7.3347,3.3119 3.0759,2.3662 4.7325,5.4421 4.7325,8.7547 0,3.5493 -1.6566,6.3884 -4.7325,8.9914 -0.7096,0.4728 -1.8927,1.1831 -3.3126,1.8927 -0.1911,0.0955 -0.3864,0.1866 -0.5861,0.2736 0.1186,0.0647 0.2358,0.1309 0.3501,0.1999 4.4957,1.4192 8.2811,4.0222 11.8304,8.0444 5.4414,6.3884 5.7412,13.96 5.7412,22.7146zm-18.9019 -68.4448c-1.7604,-1.5344 -3.7724,-2.3012 -6.2878,-2.3012 -2.2638,0 -4.5275,0.7668 -6.2885,2.3012 -1.5087,1.5343 -2.5147,3.3238 -2.5147,5.625 0,2.0454 1.006,4.0915 2.5147,5.6251 1.8787,1.4322 3.8879,2.3012 6.2885,2.3012 1.5093,0 2.7663,-0.2558 4.024,-0.7668 0.7551,-0.5117 1.5094,-1.0227 2.2638,-1.5344 1.761,-1.5336 2.5154,-3.5797 2.5154,-5.6251 0,-2.3012 -0.7544,-4.0907 -2.5154,-5.625z"/>
 </g>
</svg>
