<?xml version="1.0" encoding="UTF-8"?>
<!DOCTYPE svg PUBLIC "-//W3C//DTD SVG 1.1//EN" "http://www.w3.org/Graphics/SVG/1.1/DTD/svg11.dtd">
<!-- Creator: CorelDRAW -->
<svg xmlns="http://www.w3.org/2000/svg" xml:space="preserve" width="99.8022mm" height="99.8022mm" style="shape-rendering:geometricPrecision; text-rendering:geometricPrecision; image-rendering:optimizeQuality; fill-rule:evenodd; clip-rule:evenodd"
viewBox="0 0 99.8022 99.8022"
 xmlns:xlink="http://www.w3.org/1999/xlink">
 <defs>
  <style type="text/css">
   <![CDATA[
    .str0 {stroke:white;stroke-width:0.0762}
    .str1 {stroke:#1F1A17;stroke-width:1.4111}
    .fil0 {fill:none}
    .fil19 {fill:#969594}
    .fil1 {fill:#AAA9A9}
    .fil18 {fill:#B1B0AF}
    .fil17 {fill:#B6B5B4}
    .fil16 {fill:#B9B8B7}
    .fil15 {fill:#BDBDBC}
    .fil14 {fill:#C2C1C1}
    .fil13 {fill:#C7C7C6}
    .fil12 {fill:#CDCCCC}
    .fil11 {fill:#D0CFCF}
    .fil10 {fill:#D5D4D4}
    .fil8 {fill:#DBDBDB}
    .fil7 {fill:#E2E1E1}
    .fil6 {fill:#E8E8E7}
    .fil9 {fill:#ECECEB}
    .fil4 {fill:#F2F2F2}
    .fil3 {fill:#F9F9F9}
    .fil2 {fill:white}
    .fil5 {fill:#EFEEEE}
   ]]>
  </style>
 </defs>
 <g id="Layer_x0020_1">
  <metadata id="CorelCorpID_0Corel-Layer"/>
  <rect class="fil0 str0" x="0.0381" y="0.0381" width="99.726" height="99.726"/>
  <g id="_56407960">
   <path id="_57646176" class="fil1" d="M75.7096 82.1374l0.0022 0.0021 0.0001 0 0.0023 0.0024 0.0001 0 0.0023 0.0021 0.0001 0 0.0023 0.0024 0.0001 0 0.0023 0.0021 0.0001 0 0.0023 0.0024 0.0001 0 0.0023 0.0021 0.0001 0 0.0023 0.0024 0.0001 0 0.0021 0.0021 0.0001 0 0.0023 0.0024 0.0001 0 0.0023 0.0021 0.0001 0 0.0023 0.0024 0.0001 0 0.0023 0.0021 0.0024 0.0024 0.0024 0.0021 0.0024 0.0024 0.0021 0.0021 0.0024 0.0024 0.0023 0.0021 0.0024 0.0024 0.0021 0.0021 0.0024 0.0024 0.0024 0.0021 0.0024 0.0024 0.0021 0.0021 0.0024 0.0024 0.0022 0.0021 0.0024 0.0024 0.0021 0.0021 0.0024 0.0024 0.0024 0.0021 0.0024 0.0024 0.0021 0.0021 0.0023 0.0024 0.0021 0.0021 0.0024 0.0024 0.0021 0.0021 0.0024 0.0024 0.0021 0.0021 0.0024 0.0024 0.0021 0.0021 0.0022 0.0024 0.0021 0.0021 0.0024 0.0024 0.0021 0.0021 0.0024 0.0024 0.0021 0.0021 0.0024 0.0024 0.0021 0.0021 0.0021 0.0024 0.0021 0.0021 0.0023 0.0024 0.0021 0.0021 0.0021 0.0024 0.0021 0.0021 0.0024 0.0024 0.0021 0.0021 0.0021 0.0024 0.0021 0.0021 0.0022 0.0024 0.0021 0.0021 0.0021 0.0024 0.0021 0.0023 0.0024 0.0024 0.0075 0.0081 0.0077 0.0081 0.0073 0.0081 0.0075 0.0081 0.0268 0.0301c0.1657,0.3191 0.0748,0.179 -0.2733,-0.1228l0.0019 0.0018 0.0026 0.0021 0.0023 0.0024 0.0001 0 0.0023 0.0021 0.0001 0 0.0023 0.0024 0.0001 0 0.0023 0.0021 0.0001 0 0.0023 0.0024 0.0001 0 0.0023 0.0021 0.0001 0 0.0023 0.0024 0.0001 0 0.0023 0.0021 0.0001 0 0.0023 0.0024 0.0001 0 0.0023 0.0021 0.0001 0 0.0022 0.0024 0.0001 0 0.0023 0.0021 0.0001 0 0.0023 0.0024 0.0001 0 0.0023 0.0021 0.0001 0 0.002 0.0024 0.0001 0 0.0023 0.0021 0.0001 0 0.0023 0.0024 0.0001 0 0.0023 0.0021 0.0001 0 0.0021 0.0024 0.0001 0 0.0023 0.0021 0.0001 0 0.0023 0.0024 0.0001 0 0.0023 0.0021 0.0001 0 0.002 0.0024 0.0001 0 0.0023 0.0021 0.0001 0 0.0021 0.0024 0.0001 0 0.0023 0.0021 0.0001 0 0.002 0.0024 0.0001 0 0.0022 0.0021 0.0001 0 0.0021 0.0024 0.0001 0 0.002 0.0021 0.0001 0 0.0023 0.0024 0.0001 0 0.002 0.0021 0.0001 0 0.0022 0.0024 0.0021 0.0021 0.0024 0.0024 0.0021 0.0021 0.0024 0.0024 0.0021 0.0021 0.0024 0.0024 0.0021 0.0021 0.0022 0.0024 0.0021 0.0021 0.0024 0.0024 0.0021 0.0021 0.0024 0.0024 0.0021 0.0021 0.0024 0.0024 0.0021 0.0021 0.0021 0.0024 0.0021 0.0021 0.0023 0.0024 0.0021 0.0021 0.0021 0.0024 0.0021 0.0021 0.0024 0.0024 0.0021 0.0021 0.0021 0.0024 0.0021 0.0021 0.0022 0.0024 0.0021 0.0021 0.0021 0.0024 0.0021 0.0023 0.0024 0.0024 0.0075 0.0081 0.0077 0.0081 0.0073 0.0081 0.0075 0.0081 0.0292 0.0327 0.0071 0.0081 0.0072 0.0081 0.0015 0.0018 0.0193 0.0225 0.007 0.0084 0.0066 0.0081 0.0067 0.0081 0.0066 0.0081 0.0067 0.0081 0.0123 0.0154 0.0007 0.0008 0.0063 0.0081 0.0121 0.0158 0.0006 0.0007 0.0063 0.0081 0.0004 0.0006 0.0115 0.015 0.0302 0.0414 0.0058 0.0081 0.0023 0.0032 0.0033 0.0049 0 0.0001 0.0318 0.0471 0.0011 0.0017 0.0012 0.0017 0.0011 0.0017c0.0115,0.0178 0.0228,0.0356 0.0334,0.0534l0.0003 0.0004c0,0.2368 0,0.4729 0,0.7096l0.0658 0c-0.1032,1.3819 -2.7047,2.5412 -7.8046,3.7004 -5.2053,0.9464 -11.3569,-6.344 -18.6917,-6.344 -7.3348,0 -13.7232,7.2904 -18.9285,6.344 -4.7952,-1.0899 -7.3816,-2.1801 -7.7595,-3.4551l0 -0.2453 -0.0451 0c-0.0022,-0.0285 -0.0037,-0.057 -0.0037,-0.0857 0,-0.6728 0.7884,-1.7117 1.8706,-3.7399 0.3915,-0.7336 1.1192,-2.4488 1.442,-3.1214 0.9463,-1.4198 0.9463,-2.8397 0,-4.0228l-3.5494 -4.7318c-1.6239,-1.2633 -2.697,-2.5259 -3.22,-3.789l-2.2619 -11.3092 -3.9792 -20.8496 0.0055 -0.0016 16.0808 27.4315 1.1831 -4.4957 0 -29.8127 0.9042 -0.1339c-0.245,0.0859 -0.5097,0.1322 -0.8072,0.1322l9.604 28.3945 2.3662 3.0765 1.4193 -3.7861 5.6788 -30.5223 0.1817 -0.0037c-0.0605,0.0025 -0.1212,0.0037 -0.1817,0.0037l5.442 30.9958 1.656 3.0758 2.603 -3.5493 8.9907 -28.156 0 0 1.1832 30.0487 1.1831 3.3126 1.6566 -2.3662 12.7769 -24.3706 -0.0613 0.3435 -6.4373 32.9693 -0.0001 0c-0.2798,0.638 -0.6389,1.245 -1.0996,1.8209 -0.4452,0.5414 -0.982,1.0548 -1.6299,1.5409l-0.0671 0.0839 -0.0024 0.0018 -2.8391 3.5487c-0.7096,1.6566 -0.7096,3.3126 0,4.9692l2.2958 4.768c0.2842,0.5906 0.4814,0.962 0.5921,1.1735 -0.0492,-0.0451 -0.1084,-0.0989 -0.1782,-0.1594l0.0019 0.0018 0.0022 0.0021 0.0024 0.0024 0.1405 0.1397 -0.0024 -0.0024 -0.0021 -0.0023 -0.0021 -0.0024 -0.0021 -0.0021 -0.0022 -0.0024 -0.0021 -0.0021 -0.0021 -0.0024 -0.0021 -0.0021 -0.0024 -0.0024 -0.0021 -0.0021 -0.0021 -0.0024 -0.0021 -0.0021 -0.0023 -0.0024 -0.0021 -0.0021 -0.0021 -0.0024 -0.0021 -0.0021 -0.0024 -0.0024 -0.0021 -0.0021 -0.0024 -0.0024 -0.0021 -0.0021 -0.0024 -0.0024 -0.0021 -0.0021 -0.0022 -0.0024 -0.0021 -0.0021 -0.0024 -0.0024 -0.0021 -0.0021 -0.0024 -0.0024 -0.0021 -0.0021 -0.0024 -0.0024 -0.0021 -0.0021 -0.0023 -0.0024 -0.0021 -0.0021 -0.0024 -0.0024 -0.0024 -0.0021 -0.0024 -0.0024 -0.0021 -0.0021 -0.0024 -0.0024 -0.0022 -0.0021 -0.0024 -0.0024 -0.0021 -0.0021 -0.0024 -0.0024 -0.0024 -0.0021 -0.0024 -0.0024 -0.0021 -0.0021 -0.0024 -0.0024 -0.0023 -0.0021 -0.0024 -0.0024 -0.0021 -0.0021 -0.0024 -0.0024 -0.0024 -0.0021 -0.0024 -0.0024 -0.0023 -0.0021 -0.0001 0 -0.0023 -0.0024 -0.0001 0 -0.0023 -0.0021 -0.0001 0 -0.0023 -0.0024 -0.0001 0 -0.0021 -0.0021 -0.0001 0 -0.0023 -0.0024 -0.0001 0 -0.0023 -0.0021 -0.0001 0 -0.0023 -0.0024 -0.0001 0 -0.0023 -0.0021 -0.0001 0 -0.0023 -0.0024 -0.0001 0 -0.0023 -0.0021 -0.0001 0 -0.0023 -0.0024 -0.0001 0 -0.0022 -0.0021zm-45.2316 -57.2138c-0.0891,0.0891 -0.2114,0.1447 -0.3421,0.1794l0.3421 -0.1794zm45.1621 57.2995l0.1451 0.1442 -0.0024 -0.0024 -0.0021 -0.0023 -0.0021 -0.0024 -0.0021 -0.0021 -0.0022 -0.0024 -0.0021 -0.0021 -0.0021 -0.0024 -0.0021 -0.0021 -0.0024 -0.0024 -0.0021 -0.0021 -0.0021 -0.0024 -0.0021 -0.0021 -0.0023 -0.0024 -0.0021 -0.0021 -0.0021 -0.0024 -0.0021 -0.0021 -0.0024 -0.0024 -0.0021 -0.0021 -0.0024 -0.0024 -0.0021 -0.0021 -0.0024 -0.0024 -0.0021 -0.0021 -0.0022 -0.0024 -0.0021 -0.0021 -0.0024 -0.0024 -0.0021 -0.0021 -0.0024 -0.0024 -0.0021 -0.0021 -0.0024 -0.0024 -0.0021 -0.0021 -0.0022 -0.0024 -0.0001 0 -0.002 -0.0021 -0.0001 0 -0.0023 -0.0024 -0.0001 0 -0.002 -0.0021 -0.0001 0 -0.0021 -0.0024 -0.0001 0 -0.0022 -0.0021 -0.0001 0 -0.002 -0.0024 -0.0001 0 -0.0023 -0.0021 -0.0001 0 -0.0021 -0.0024 -0.0001 0 -0.0023 -0.0021 -0.0001 0 -0.002 -0.0024 -0.0001 0 -0.0023 -0.0021 -0.0001 0 -0.0023 -0.0024 -0.0001 0 -0.0023 -0.0021 -0.0001 0 -0.0021 -0.0024 -0.0001 0 -0.0023 -0.0021 -0.0001 0 -0.0023 -0.0024 -0.0001 0 -0.0023 -0.0021 -0.0001 0 -0.002 -0.0024 -0.0001 0 -0.0023 -0.0021 -0.0001 0 -0.0023 -0.0024 -0.0001 0 -0.0023 -0.0021 -0.0001 0 -0.0022 -0.0024 -0.0001 0 -0.0023 -0.0021 -0.0001 0 -0.0023 -0.0024 -0.0001 0 -0.0023 -0.0021 -0.0001 0 -0.0023 -0.0024 -0.0001 0 -0.0023 -0.0021 -0.0001 0 -0.0023 -0.0024 -0.0001 0 -0.0023 -0.0021 -0.0001 0 -0.0023 -0.0024 -0.0001 0 -0.0023 -0.0021 -0.0001 0 -0.0023 -0.0024 -0.0026 -0.0021zm9.5001 -51.146l-0.0054 -0.0018 0.0054 0.0018z"/>
   <g>
    <path id="_56889152" class="fil2" d="M47.8289 31.8367l1.2461 6.5294 1.4346 -7.3474c-0.4267,-2.1515 -0.8696,-4.3002 -1.3294,-6.445l-1.3513 7.263z"/>
    <g>
     <path id="_56889920" class="fil3" d="M46.8238 37.2387l1.7702 9.2754 0.4695 2.3475 2.7807 -14.2416 -2.2009 -12.5355c0.0605,0 0.1212,-0.0012 0.1817,-0.0037l-0.1817 0.0037 -2.8195 15.1542z"/>
     <path id="_57152128" class="fil2" d="M47.8289 31.8366l1.2461 6.5294 1.4347 -7.3476c-0.4267,-2.1516 -0.8694,-4.3009 -1.3292,-6.4467l-1.3516 7.2649z"/>
    </g>
    <g>
     <path id="_58412816" class="fil4" d="M49.1943 53.1155l1.4239 -1.7798 2.1908 -11.2205 -3.1657 -18.0307c0.0605,0 0.1212,-0.0012 0.1817,-0.0037l-0.1817 0.0037 -3.8246 20.5564 0.8124 4.2568 0.7639 3.819 1.7993 2.3988z"/>
     <path id="_57026776" class="fil3" d="M49.0635 48.8616l2.7807 -14.2417 -2.2009 -12.5354c0.0605,0 0.1212,-0.0012 0.1817,-0.0037l-0.1817 0.0037 -2.8195 15.1542 1.7702 9.2754 0.4695 2.3475z"/>
     <path id="_58601416" class="fil2" d="M49.075 38.366l1.4347 -7.3479c-0.4265,-2.1517 -0.869,-4.3015 -1.3287,-6.4488l-1.3521 7.2674 1.2461 6.5293z"/>
    </g>
    <g>
     <path id="_42307400" class="fil5" d="M44.817 48.025l0.7058 3.5289 2.9236 3.8976 1.4403 0 2.6003 -3.2501 1.2868 -6.5907 -4.1305 -23.5262c0.0605,0 0.1212,-0.0012 0.1817,-0.0037l-0.1817 0.0037 -4.8263 25.9405z"/>
     <path id="_41733272" class="fil4" d="M45.8187 42.6409l0.8124 4.2568 0.7638 3.8191 1.7994 2.3987 1.4239 -1.7798 2.1908 -11.2204 -3.1657 -18.0308c0.0605,0 0.1212,-0.0012 0.1817,-0.0037l-0.1817 0.0037 -3.8246 20.5564z"/>
     <path id="_41789424" class="fil3" d="M46.8238 37.2387l1.7702 9.2754 0.4695 2.3475 2.7807 -14.2416 -2.2009 -12.5355c0.0605,0 0.1212,-0.0012 0.1817,-0.0037l-0.1817 0.0037 -2.8195 15.1542z"/>
     <path id="_41553328" class="fil2" d="M47.8289 31.8365l1.2461 6.5296 1.4348 -7.3483c-0.4262,-2.151 -0.8687,-4.3021 -1.3283,-6.4512l-1.3526 7.2699z"/>
    </g>
    <g>
     <path id="_57122408" class="fil6" d="M49.3715 60.5091l1.1177 -2.6092 3.8665 -4.8329 0.3829 -1.9612 -5.0953 -29.0213c0.0605,0 0.1212,-0.0012 0.1817,-0.0037l-0.1817 0.0037 -5.6788 30.5223 -0.0507 0.1352 2.9726 3.9628c0.189,0.246 0.3742,0.4949 0.5555,0.7467l1.5134 0 0 2.3236c0.1423,0.2427 0.281,0.4874 0.4162,0.734z"/>
     <path id="_22908480" class="fil5" d="M49.8867 55.4515l2.6002 -3.2502 1.2869 -6.5909 -4.1305 -23.5259c0.0605,0 0.1212,-0.0012 0.1817,-0.0037l-0.1817 0.0037 -4.8263 25.9403 0.7058 3.5291 2.9236 3.8976 1.4403 0z"/>
     <path id="_57019832" class="fil4" d="M49.1943 53.1155l1.4239 -1.7798 2.1908 -11.2204 -3.1657 -18.0308c0.0605,0 0.1212,-0.0012 0.1817,-0.0037l-0.1817 0.0037 -3.8246 20.5563 0.8125 4.2569 0.7637 3.8191 1.7994 2.3987z"/>
     <path id="_56981744" class="fil3" d="M49.0635 48.8614l2.7807 -14.2413 -2.2009 -12.5356c0.0605,0 0.1212,-0.0012 0.1817,-0.0037l-0.1817 0.0037 -2.8195 15.1543 1.7703 9.2753 0.4694 2.3473z"/>
     <path id="_57122432" class="fil2" d="M49.075 38.366l1.4349 -7.3486c-0.4261,-2.1515 -0.8685,-4.3027 -1.3281,-6.4527l-1.3529 7.272 1.2461 6.5293z"/>
    </g>
    <g>
     <path id="_57021152" class="fil7" d="M49.5494 65.8935c0.3702,-1.3438 0.8335,-2.6661 1.3874,-3.9591l1.2837 -2.9972 3.5974 -4.4963 -0.7326 -1.3606 -5.442 -30.9958c0.0605,0 0.1212,-0.0012 0.1817,-0.0037l-0.1817 0.0037 -5.6788 30.5223 -0.8838 2.3575 2.213 2.9502c1.8792,2.4438 3.3074,5.1391 4.2557,7.979z"/>
     <path id="_56879560" class="fil6" d="M49.3711 60.5102l1.118 -2.6102 3.8666 -4.833 0.3829 -1.9612 -5.0953 -29.0213c0.0605,0 0.1212,-0.0012 0.1817,-0.0037l-0.1817 0.0037 -5.6788 30.5223 -0.0507 0.1352 2.9728 3.963c0.9328,1.2141 1.762,2.4863 2.4845,3.8052z"/>
     <path id="_57626608" class="fil5" d="M49.1389 56.3861l3.3481 -4.1847 1.2868 -6.5908 -4.1305 -23.5261c0.0605,0 0.1212,-0.0012 0.1817,-0.0037l-0.1817 0.0037 -4.8263 25.9403 0.7058 3.5291 2.9569 3.9419c0.2254,0.2936 0.4452,0.5904 0.6592,0.8903z"/>
     <path id="_56408872" class="fil4" d="M49.1943 53.1155l1.4239 -1.7798 2.1908 -11.2204 -3.1657 -18.0308c0.0605,0 0.1212,-0.0012 0.1817,-0.0037l-0.1817 0.0037 -3.8246 20.5562 0.8125 4.257 0.7638 3.819 1.7993 2.3988z"/>
     <path id="_56881224" class="fil3" d="M49.0635 48.8615l2.7807 -14.2416 -2.2009 -12.5354c0.0605,0 0.1212,-0.0012 0.1817,-0.0037l-0.1817 0.0037 -2.8195 15.1542 1.7702 9.2754 0.4695 2.3474z"/>
     <path id="_41546016" class="fil2" d="M49.075 38.3659l1.4349 -7.349c-0.4259,-2.1516 -0.8682,-4.3034 -1.3277,-6.454l-1.3533 7.2738 1.2461 6.5292z"/>
    </g>
    <g>
     <path id="_57155728" class="fil8" d="M50.5918 76.5098c-0.4464,-4.7016 0.3206,-9.4392 2.1834,-13.7879l1.1768 -2.7475 4.1412 -5.1761 0.1292 -0.6618 -1.4811 2.0196 -1.656 -3.0758 -5.442 -30.9958c0.0605,0 0.1212,-0.0012 0.1817,-0.0037l-0.1817 0.0037 -5.6788 30.5223 -1.4193 3.7861 -2.3662 -3.0765 -1.0338 -3.0565 0.7611 3.8054 3.7949 5.0592c4.3705,5.6788 5.9994,12.7313 4.8516,19.5038l2.039 -2.1185z"/>
     <path id="_41780168" class="fil7" d="M49.5442 65.9203c0.3709,-1.3546 0.836,-2.6865 1.3925,-3.9859l1.2839 -2.9972 3.5972 -4.4964 -0.7325 -1.3605 -5.442 -30.9958c0.0605,0 0.1212,-0.0012 0.1817,-0.0037l-0.1817 0.0037 -5.6788 30.5223 -0.8838 2.3575 2.2132 2.9504c1.8961,2.4661 3.3139,5.1737 4.2503,8.0056z"/>
     <path id="_56982376" class="fil6" d="M49.3691 60.5147l1.12 -2.6148 3.8666 -4.8329 0.3829 -1.9612 -5.0953 -29.0213c0.0605,0 0.1212,-0.0012 0.1817,-0.0037l-0.1817 0.0037 -5.6788 30.5223 -0.0507 0.1351 2.973 3.9633c0.9362,1.2187 1.7638,2.4927 2.4823,3.8095z"/>
     <path id="_57017592" class="fil9" d="M49.1388 56.3863l3.3481 -4.185 1.2869 -6.5908 -4.1305 -23.526c0.0605,0 0.1212,-0.0012 0.1817,-0.0037l-0.1817 0.0037 -4.8263 25.9403 0.7058 3.5291 2.9571 3.9422c0.2255,0.2937 0.4452,0.5906 0.6589,0.8902z"/>
     <path id="_40867176" class="fil4" d="M49.1943 53.1154l1.4239 -1.7797 2.1908 -11.2204 -3.1657 -18.0308c0.0605,0 0.1212,-0.0012 0.1817,-0.0037l-0.1817 0.0037 -3.8246 20.5565 0.8124 4.2567 0.7639 3.819 1.7993 2.3987z"/>
     <path id="_57681800" class="fil3" d="M49.0635 48.8614l2.7807 -14.2413 -2.2009 -12.5356c0.0605,0 0.1212,-0.0012 0.1817,-0.0037l-0.1817 0.0037 -2.8195 15.1543 1.7702 9.2753 0.4695 2.3473z"/>
     <path id="_56988448" class="fil2" d="M49.075 38.366l1.4351 -7.3497c-0.4259,-2.1521 -0.8679,-4.3043 -1.3274,-6.4559l-1.3538 7.2764 1.2461 6.5292z"/>
    </g>
    <g>
     <path id="_58601392" class="fil10" d="M52.6843 77.2198c-0.6104,-4.6688 0.0684,-9.366 1.9293,-13.7104l1.0699 -2.4977 4.2785 -5.3478 2.5082 -12.8465 -3.1259 9.7894 -2.603 3.5493 -1.656 -3.0758 -5.442 -30.9958c0.0605,0 0.1212,-0.0012 0.1817,-0.0037l-0.1817 0.0037 -5.6788 30.5223 -1.4193 3.7861 -2.3662 -3.0765 -5.7451 -16.9854 2.3828 12.4847 1.2174 6.0868 4.0749 5.4324c4.7103,6.1143 5.9622,13.9413 3.7226,21.0749 1.1059,-0.3319 2.2366,-0.5498 3.391,-0.5932l3.4617 -3.5968z"/>
     <path id="_40857824" class="fil8" d="M50.5917 76.51c-0.4485,-4.7036 0.3099,-9.4141 2.1834,-13.7881l1.1769 -2.7474 4.1412 -5.1762 0.1292 -0.6617 -1.4811 2.0195 -1.656 -3.0758 -5.442 -30.9958c0.0605,0 0.1212,-0.0012 0.1817,-0.0037l-0.1817 0.0037 -5.6788 30.5223 -1.4193 3.7861 -2.3662 -3.0765 -1.0339 -3.0568 0.7611 3.8058 3.7952 5.0593c4.3714,5.6805 5.9988,12.7327 4.8511,19.504l2.0392 -2.1187z"/>
     <path id="_57017616" class="fil7" d="M49.543 65.9166c0.3708,-1.3502 0.836,-2.6803 1.3937,-3.9822l1.2839 -2.9972 3.5972 -4.4963 -0.7325 -1.3606 -5.442 -30.9958c0.0605,0 0.1212,-0.0012 0.1817,-0.0037l-0.1817 0.0037 -5.6788 30.5223 -0.8838 2.3575 2.2133 2.9506c1.8954,2.4653 3.3127,5.1715 4.249,8.0017z"/>
     <path id="_55504136" class="fil6" d="M49.3691 60.5147l1.12 -2.6148 3.8666 -4.8329 0.3829 -1.9612 -5.0953 -29.0213c0.0605,0 0.1212,-0.0012 0.1817,-0.0037l-0.1817 0.0037 -5.6788 30.5223 -0.0507 0.1351 2.9732 3.9635c0.9362,1.2188 1.7636,2.4927 2.4821,3.8093z"/>
     <path id="_41783744" class="fil9" d="M49.1387 56.3863l3.3483 -4.185 1.2868 -6.5907 -4.1305 -23.5261c0.0605,0 0.1212,-0.0012 0.1817,-0.0037l-0.1817 0.0037 -4.8263 25.9405 0.7058 3.5289 2.9573 3.9424c0.2255,0.2937 0.445,0.5905 0.6586,0.89z"/>
     <path id="_58011632" class="fil4" d="M49.1943 53.1155l1.4239 -1.7798 2.1908 -11.2205 -3.1657 -18.0307c0.0605,0 0.1212,-0.0012 0.1817,-0.0037l-0.1817 0.0037 -3.8246 20.5564 0.8124 4.2568 0.7638 3.819 1.7994 2.3988z"/>
     <path id="_56176856" class="fil3" d="M49.0635 48.8616l2.7807 -14.2417 -2.2009 -12.5354c0.0605,0 0.1212,-0.0012 0.1817,-0.0037l-0.1817 0.0037 -2.8195 15.1543 1.7702 9.2753 0.4695 2.3475z"/>
     <path id="_56884560" class="fil2" d="M49.075 38.3659l1.4352 -7.3503c-0.4257,-2.1522 -0.8678,-4.3051 -1.3271,-6.4575l-1.3542 7.2785 1.2461 6.5293z"/>
    </g>
    <g>
     <path id="_57156792" class="fil11" d="M54.8089 77.8963c-0.7834,-4.5947 -0.1984,-9.3003 1.6432,-13.5994l0.9628 -2.2479 4.4158 -5.5194 4.9804 -25.5075c-0.0715,-0.374 -0.1437,-0.7481 -0.2161,-1.1222l-7.2507 22.7069 -2.603 3.5493 -1.656 -3.0758 -5.442 -30.9958c0.0605,0 0.1212,-0.0012 0.1817,-0.0037l-0.1817 0.0037 -5.6788 30.5223 -1.4193 3.7861 -2.3662 -3.0765 -8.6067 -25.446c-0.0778,0.9768 -0.1546,1.9533 -0.2299,2.9301l3.5114 18.3988 1.3081 6.5404 4.3552 5.806c4.6517,6.0313 5.6122,13.8652 2.8702,20.7747 1.9985,-0.8743 4.0857,-1.5125 6.256,-1.5125 0.7341,0 1.4563,0.0738 2.1668,0.2043l2.9988 -3.1159z"/>
     <path id="_55578176" class="fil10" d="M52.6852 77.2188c-0.6037,-4.649 0.0706,-9.3724 1.9284,-13.7094l1.0699 -2.4977 4.2784 -5.3478 2.5084 -12.8468 -3.126 9.7897 -2.603 3.5493 -1.656 -3.0758 -5.442 -30.9958c0.0605,0 0.1212,-0.0012 0.1817,-0.0037l-0.1817 0.0037 -5.6788 30.5223 -1.4193 3.7861 -2.3662 -3.0765 -5.745 -16.9851 2.3827 12.4844 1.2174 6.0869 4.075 5.4325c4.7117,6.1164 5.9612,13.9429 3.7223,21.0748 1.106,-0.3318 2.2366,-0.5498 3.3911,-0.5932l3.4627 -3.5979z"/>
     <path id="_41773856" class="fil8" d="M50.5934 76.5081c-0.4423,-4.6882 0.3118,-9.4208 2.1818,-13.7861l1.1768 -2.7475 4.1412 -5.1762 0.1292 -0.6618 -1.4811 2.0196 -1.656 -3.0758 -5.442 -30.9958c0.0605,0 0.1212,-0.0012 0.1817,-0.0037l-0.1817 0.0037 -5.6788 30.5223 -1.4193 3.7861 -2.3662 -3.0765 -1.0339 -3.0568 0.7611 3.8058 3.7953 5.0595c4.3726,5.6823 5.9983,12.7341 4.8507,19.5041l2.0412 -2.1209z"/>
     <path id="_56888720" class="fil7" d="M49.5444 65.9211c0.3702,-1.3532 0.8349,-2.6853 1.3923,-3.9866l1.2839 -2.9973 3.5972 -4.4964 -0.7325 -1.3605 -5.442 -30.9958c0.0605,0 0.1212,-0.0012 0.1817,-0.0037l-0.1817 0.0037 -5.6788 30.5223 -0.8838 2.3576 2.2135 2.9508c1.8965,2.4669 3.314,5.1745 4.2502,8.0059z"/>
     <path id="_42589672" class="fil6" d="M49.369 60.5149l1.1201 -2.6149 3.8666 -4.833 0.3829 -1.9612 -5.0953 -29.0213c0.0605,0 0.1212,-0.0012 0.1817,-0.0037l-0.1817 0.0037 -5.6788 30.5223 -0.0507 0.1352 2.9733 3.9637c0.9362,1.2188 1.7636,2.4926 2.4819,3.8092z"/>
     <path id="_40916040" class="fil5" d="M49.1387 56.3864l3.3482 -4.1851 1.2869 -6.5909 -4.1305 -23.5259c0.0605,0 0.1212,-0.0012 0.1817,-0.0037l-0.1817 0.0037 -4.8263 25.9406 0.7058 3.5288 2.9575 3.9427c0.2253,0.2937 0.4448,0.5903 0.6584,0.8898z"/>
     <path id="_57646320" class="fil4" d="M49.1943 53.1155l1.4239 -1.7798 2.1908 -11.2204 -3.1657 -18.0308c0.0605,0 0.1212,-0.0012 0.1817,-0.0037l-0.1817 0.0037 -3.8246 20.5565 0.8124 4.2568 0.7638 3.819 1.7994 2.3987z"/>
     <path id="_56883808" class="fil3" d="M49.0635 48.8616l2.7807 -14.2415 -2.2009 -12.5356c0.0605,0 0.1212,-0.0012 0.1817,-0.0037l-0.1817 0.0037 -2.8195 15.1542 1.7702 9.2755 0.4695 2.3474z"/>
     <path id="_57646784" class="fil2" d="M49.075 38.366l1.4354 -7.3511c-0.4256,-2.1527 -0.8674,-4.3065 -1.3267,-6.4601l-1.3548 7.2818 1.2461 6.5294z"/>
    </g>
    <g>
     <path id="_41230232" class="fil12" d="M30.478 36.9402l2.4129 12.6427 1.3988 6.994 4.6358 6.1801c4.7161,6.1069 5.2424,14.2253 1.6047,20.963 2.8411,-1.5005 5.8853,-2.9121 9.1131,-2.9121 1.509,0 2.9675,0.3087 4.3784,0.7906l2.948 -3.063c-0.9852,-4.5248 -0.5147,-9.1661 1.3208,-13.4511l0.8558 -1.9981 4.5532 -5.6911 4.9371 -25.2858 -0.1082 -2.7465c-0.2202,-1.1362 -0.4446,-2.2727 -0.6732,-3.4096l-8.5109 26.6535 -2.603 3.5493 -1.656 -3.0758 -5.442 -30.9958c0.0605,0 0.1212,-0.0012 0.1817,-0.0037l-0.1817 0.0037 -5.6788 30.5223 -1.4193 3.7861 -2.3662 -3.0765 -9.604 -28.3945c0.2975,0 0.5622,-0.0463 0.8072,-0.1322l-0.9042 0.1339 0 12.0166zm0 -12.0166c-0.0891,0.0891 -0.2114,0.1447 -0.3421,0.1794l0.3421 -0.1794z"/>
     <path id="_58556400" class="fil11" d="M31.5713 27.8675c-0.0775,0.9787 -0.1539,1.9565 -0.229,2.9327l3.5115 18.3991 1.3081 6.5404 4.3553 5.8062c4.6533,6.034 5.6104,13.8672 2.8695,20.7746 1.9986,-0.8744 4.0862,-1.5126 6.2566,-1.5126 0.7342,0 1.4561,0.0739 2.1669,0.2044l2.9985 -3.1156c-0.7858,-4.5918 -0.2127,-9.2669 1.6433,-13.5998l0.9629 -2.2479 4.4158 -5.5195 4.9804 -25.5075c-0.0714,-0.374 -0.1436,-0.7483 -0.216,-1.1224l-7.2508 22.7072 -2.603 3.5493 -1.656 -3.0758 -5.442 -30.9958c0.0605,0 0.1212,-0.0012 0.1817,-0.0037l-0.1817 0.0037 -5.6788 30.5223 -1.4193 3.7861 -2.3662 -3.0765 -8.6077 -25.4489z"/>
     <path id="_41534224" class="fil10" d="M34.434 36.3311l2.3827 12.4846 1.2174 6.0869 4.0752 5.4328c4.7132,6.119 5.9592,13.9447 3.7209,21.0747 1.1064,-0.332 2.2374,-0.5501 3.3924,-0.5935l3.4617 -3.5967c-0.607,-4.6428 0.0574,-9.3406 1.9293,-13.7104l1.0698 -2.4977 4.2786 -5.3479 2.5084 -12.847 -3.1261 9.7899 -2.603 3.5493 -1.656 -3.0758 -5.442 -30.9958c0.0605,0 0.1212,-0.0012 0.1817,-0.0037l-0.1817 0.0037 -5.6788 30.5223 -1.4193 3.7861 -2.3662 -3.0765 -5.745 -16.9853z"/>
     <path id="_41544672" class="fil8" d="M39.1452 50.2598l0.7611 3.8056 3.7954 5.0598c4.3739,5.6844 5.9976,12.7359 4.85,19.5044l2.0399 -2.1196c-0.4461,-4.6798 0.2999,-9.3908 2.1835,-13.788l1.1769 -2.7475 4.1412 -5.1763 0.1292 -0.6616 -1.4811 2.0195 -1.656 -3.0758 -5.442 -30.9958c0.0605,0 0.1212,-0.0012 0.1817,-0.0037l-0.1817 0.0037 -5.6788 30.5223 -1.4193 3.7861 -2.3662 -3.0765 -1.0338 -3.0566z"/>
     <path id="_40915920" class="fil7" d="M43.0807 54.9644l2.2137 2.9511c1.8956,2.466 3.3125,5.1719 4.2484,8.0012 0.3703,-1.3482 0.8353,-2.6783 1.3939,-3.9822l1.2838 -2.9972 3.5973 -4.4964 -0.7325 -1.3606 -5.442 -30.9958c0.0605,0 0.1212,-0.0012 0.1817,-0.0037l-0.1817 0.0037 -5.6788 30.5223 -0.8838 2.3576z"/>
     <path id="_40868064" class="fil6" d="M43.9138 52.742l2.9735 3.9641c0.9362,1.2188 1.7635,2.4925 2.4817,3.8088l1.12 -2.6149 3.8667 -4.8331 0.3829 -1.9612 -5.0953 -29.0212c0.0605,0 0.1212,-0.0012 0.1817,-0.0037l-0.1817 0.0037 -5.6788 30.5223 -0.0507 0.1352z"/>
     <path id="_55541664" class="fil5" d="M44.817 48.025l0.7058 3.529 2.9577 3.943c0.2253,0.2936 0.4447,0.5901 0.6582,0.8894l3.3483 -4.1851 1.2868 -6.5907 -4.1305 -23.5261c0.0605,0 0.1212,-0.0012 0.1817,-0.0037l-0.1817 0.0037 -4.8263 25.9405z"/>
     <path id="_41733200" class="fil4" d="M45.8187 42.6409l0.8124 4.2568 0.7639 3.8191 1.7992 2.3987 1.424 -1.7799 2.1908 -11.2204 -3.1657 -18.0307c0.0605,0 0.1212,-0.0012 0.1817,-0.0037l-0.1817 0.0037 -3.8246 20.5564z"/>
     <path id="_41159272" class="fil3" d="M46.8238 37.2388l1.7702 9.2753 0.4695 2.3475 2.7807 -14.2415 -2.2009 -12.5356c0.0605,0 0.1212,-0.0012 0.1817,-0.0037l-0.1817 0.0037 -2.8195 15.1543z"/>
     <path id="_55533816" class="fil2" d="M47.8289 31.8367l1.2461 6.5293 1.4355 -7.3521c-0.4253,-2.1527 -0.867,-4.308 -1.3261,-6.4628l-1.3555 7.2856z"/>
    </g>
    <g>
     <path id="_41221008" class="fil13" d="M30.478 47.6086l0.45 2.3579 1.5326 7.6626 0.2842 0.2212 4.5896 6.1184c4.3228,5.5893 4.7228,12.9784 1.2735,19.0967 -0.1128,0.2534 -0.214,0.5038 -0.3151,0.7631 -0.1905,0.4885 -0.4203,0.9672 -0.6625,1.4387 3.6379,-1.89 7.6585,-4.4593 12.013,-4.4593 2.2384,0 4.3662,0.6793 6.3909,1.5959l0.0344 -0.0357 -0.0061 -0.0059 3.1117 -3.2331c-1.1958,-4.4039 -0.8552,-9.0319 0.9548,-13.2572l0.7488 -1.7483 4.6903 -5.8626 3.4104 -17.4668 -0.6435 -16.3434 0 0 -8.9907 28.156 -2.603 3.5493 -1.656 -3.0758 -5.442 -30.9958c0.0605,0 0.1212,-0.0012 0.1817,-0.0037l-0.1817 0.0037 -5.6788 30.5223 -1.4193 3.7861 -2.3662 -3.0765 -9.604 -28.3945c0.2975,0 0.5622,-0.0463 0.8072,-0.1322l-0.9042 0.1339 0 22.685zm0 -22.685c-0.0891,0.0891 -0.2114,0.1447 -0.3421,0.1794l0.3421 -0.1794z"/>
     <path id="_41734208" class="fil12" d="M30.478 36.94l2.4129 12.6429 1.3988 6.9939 4.636 6.1803c4.7288,6.124 5.249,14.2145 1.6045,20.9629 2.8411,-1.5005 5.8853,-2.9121 9.1131,-2.9121 1.509,0 2.9676,0.3087 4.3784,0.7906l2.9495 -3.0646c-0.9736,-4.4977 -0.5154,-9.1664 1.3193,-13.4495l0.8559 -1.9981 4.553 -5.691 4.9372 -25.2861 -0.1082 -2.7469c-0.2201,-1.1363 -0.4442,-2.2731 -0.6727,-3.4104l-8.5114 26.6549 -2.603 3.5493 -1.656 -3.0758 -5.442 -30.9958c0.0605,0 0.1212,-0.0012 0.1817,-0.0037l-0.1817 0.0037 -5.6788 30.5223 -1.4193 3.7861 -2.3662 -3.0765 -9.604 -28.3945c0.2975,0 0.5622,-0.0463 0.8072,-0.1322l-0.9042 0.1339 0 12.0164zm0 -12.0164c-0.0891,0.0891 -0.2114,0.1447 -0.3421,0.1794l0.3421 -0.1794z"/>
     <path id="_41782616" class="fil11" d="M31.5709 27.8662c-0.0773,0.9793 -0.1536,1.9574 -0.2286,2.9337l3.5115 18.3994 1.3081 6.5403 4.3555 5.8065c4.666,6.0507 5.6187,13.8625 2.8707,20.7739 1.9981,-0.8741 4.0853,-1.5121 6.2552,-1.5121 0.7342,0 1.456,0.0737 2.1668,0.2043l3.0012 -3.1183c-0.7759,-4.5707 -0.2136,-9.268 1.6408,-13.5969l0.9628 -2.2479 4.4157 -5.5194 4.9805 -25.508c-0.0714,-0.374 -0.1436,-0.7483 -0.2159,-1.1224l-7.2509 22.7075 -2.603 3.5493 -1.656 -3.0758 -5.442 -30.9958c0.0605,0 0.1212,-0.0012 0.1817,-0.0037l-0.1817 0.0037 -5.6788 30.5223 -1.4193 3.7861 -2.3662 -3.0765 -8.6081 -25.4502z"/>
     <path id="_56878000" class="fil10" d="M34.434 36.331l2.3827 12.4847 1.2173 6.0868 4.0755 5.4331c4.7257,6.1354 5.9686,13.9429 3.7237,21.0736 1.1054,-0.3315 2.2355,-0.5492 3.3894,-0.5926l3.4656 -3.6009c-0.5989,-4.626 0.0559,-9.3419 1.9254,-13.7062l1.0699 -2.4977 4.2784 -5.3477 2.5083 -12.8467 -3.1259 9.7894 -2.603 3.5493 -1.656 -3.0758 -5.442 -30.9958c0.0605,0 0.1212,-0.0012 0.1817,-0.0037l-0.1817 0.0037 -5.6788 30.5223 -1.4193 3.7861 -2.3662 -3.0765 -5.745 -16.9854z"/>
     <path id="_41533400" class="fil8" d="M39.1449 50.2591l0.7613 3.8062 3.7958 5.0603c4.3691,5.6789 5.9898,12.7403 4.844,19.5099l2.0508 -2.1309c-0.4396,-4.6663 0.2976,-9.392 2.1784,-13.7826l1.1768 -2.7474 4.1411 -5.1762 0.1292 -0.6617 -1.481 2.0194 -1.656 -3.0758 -5.442 -30.9958c0.0605,0 0.1212,-0.0012 0.1817,-0.0037l-0.1817 0.0037 -5.6788 30.5223 -1.4193 3.7861 -2.3662 -3.0765 -1.0341 -3.0573z"/>
     <path id="_57019880" class="fil7" d="M43.0807 54.9643l2.2141 2.9516c1.8965,2.4674 3.3129,5.1781 4.2476,8.0133 0.3696,-1.3535 0.8346,-2.6881 1.3943,-3.9947l1.2838 -2.9972 3.5974 -4.4964 -0.7326 -1.3606 -5.442 -30.9958c0.0605,0 0.1212,-0.0012 0.1817,-0.0037l-0.1817 0.0037 -5.6788 30.5223 -0.8838 2.3575z"/>
     <path id="_56988112" class="fil6" d="M43.9138 52.7419l2.9739 3.9646c0.9359,1.2187 1.7629,2.4929 2.4806,3.8101l1.1208 -2.6165 3.8665 -4.833 0.383 -1.9615 -5.0953 -29.0211c0.0605,0 0.1212,-0.0012 0.1817,-0.0037l-0.1817 0.0037 -5.6788 30.5223 -0.0507 0.1351z"/>
     <path id="_56879776" class="fil5" d="M44.8169 48.0251l0.7058 3.5287 2.9583 3.9437c0.2251,0.2934 0.4443,0.5898 0.6577,0.8891l3.3482 -4.1851 1.2869 -6.591 -4.1305 -23.526c0.0605,0 0.1212,-0.0012 0.1817,-0.0037l-0.1817 0.0037 -4.8264 25.9406z"/>
     <path id="_55532960" class="fil4" d="M45.8187 42.6409l0.8124 4.2569 0.7638 3.8189 1.7994 2.3988 1.4238 -1.7797 2.1909 -11.2206 -3.1657 -18.0307c0.0605,0 0.1212,-0.0012 0.1817,-0.0037l-0.1817 0.0037 -3.8246 20.5564z"/>
     <path id="_55539464" class="fil3" d="M46.8238 37.2388l1.7702 9.2754 0.4695 2.3474 2.7807 -14.2415 -2.2009 -12.5356c0.0605,0 0.1212,-0.0012 0.1817,-0.0037l-0.1817 0.0037 -2.8195 15.1543z"/>
     <path id="_58601368" class="fil2" d="M47.8289 31.8366l1.2461 6.5294 1.4358 -7.3533c-0.4251,-2.1531 -0.8666,-4.3095 -1.3256,-6.4661l-1.3563 7.29z"/>
    </g>
    <g>
     <path id="_56953264" class="fil14" d="M61.4287 79.6707c-1.4446,-4.276 -1.2621,-8.8076 0.5387,-13.0114l0.6418 -1.4986 4.8278 -6.0342 1.8835 -9.6469 -0.9855 -25.0288 0 0 -8.9907 28.156 -2.603 3.5493 -1.656 -3.0758 -5.442 -30.9958c0.0605,0 0.1212,-0.0012 0.1817,-0.0037l-0.1817 0.0037 -5.6788 30.5223 -1.4193 3.7861 -2.3662 -3.0765 -9.604 -28.3945c0.2975,0 0.5622,-0.0463 0.8072,-0.1322l-0.9042 0.1339 0 29.8127 -0.3612 1.3724 0.5285 2.6422 0.6602 0.5136 4.4381 5.9166c3.8621,4.9846 4.1808,11.5501 1.0739,16.987 -0.109,0.2427 -0.2058,0.4813 -0.3017,0.7311 -0.3135,0.8173 -0.7402,1.6051 -1.1516,2.3761 -0.2115,0.3961 -0.4348,0.7855 -0.6594,1.1741l-0.0202 0.1669c4.3725,-1.6113 9.3929,-5.8084 14.9587,-5.8084 4.2615,0 8.1237,2.4605 11.6328,4.3372l-2.4125 -2.2856 0.0757 -0.0835 -0.0047 -0.0044 0.1107 -0.122 -0.2403 -0.2387 0.0805 -0.0837 -0.0068 -0.0069 2.55 -2.6496zm-30.9507 -54.7471c-0.0891,0.0891 -0.2114,0.1447 -0.3421,0.1794l0.3421 -0.1794z"/>
     <path id="_41433248" class="fil13" d="M59.1737 79.1296c-1.1959,-4.3903 -0.8751,-8.9848 0.9552,-13.2578l0.7489 -1.7483 4.6905 -5.8627 3.4102 -17.4664 -0.6435 -16.3436 0 0 -8.9907 28.156 -2.603 3.5493 -1.656 -3.0758 -5.442 -30.9958c0.0605,0 0.1212,-0.0012 0.1817,-0.0037l-0.1817 0.0037 -5.6788 30.5223 -1.4193 3.7861 -2.3662 -3.0765 -9.604 -28.3945c0.2975,0 0.5622,-0.0463 0.8072,-0.1322l-0.9042 0.1339 0 22.6851 0.45 2.3578 1.5326 7.6626 0.2842 0.2211 4.5896 6.1186c4.3264,5.5943 4.7205,12.9852 1.2712,19.1007 -0.0791,0.1807 -0.1507,0.359 -0.2225,0.546 -0.2168,0.5652 -0.4779,1.1129 -0.7546,1.6526 3.6383,-1.8901 7.6596,-4.4602 12.0148,-4.4602 2.2389,0 4.3675,0.6796 6.3926,1.5965l0.0483 -0.0502 -0.0071 -0.0071 3.0966 -3.2175zm-28.6957 -54.206c-0.0891,0.0891 -0.2114,0.1447 -0.3421,0.1794l0.3421 -0.1794z"/>
     <path id="_56980256" class="fil12" d="M56.9698 78.5354c-0.9756,-4.4814 -0.5334,-9.1226 1.3207,-13.451l0.8558 -1.9982 4.5532 -5.6911 4.937 -25.2861 -0.1082 -2.7486c-0.2198,-1.1358 -0.4438,-2.2726 -0.6721,-3.4101l-8.5119 26.6565 -2.603 3.5493 -1.656 -3.0758 -5.442 -30.9958c0.0605,0 0.1212,-0.0012 0.1817,-0.0037l-0.1817 0.0037 -5.6788 30.5223 -1.4193 3.7861 -2.3662 -3.0765 -9.604 -28.3945c0.2975,0 0.5622,-0.0463 0.8072,-0.1322l-0.9042 0.1339 0 12.0168 2.4129 12.6425 1.3988 6.9939 4.6361 6.1805c4.7315,6.1277 5.2464,14.218 1.6046,20.9626 2.841,-1.5004 5.8852,-2.912 9.1129,-2.912 1.5088,0 2.9678,0.3087 4.3786,0.7905l2.9479 -3.063zm-26.4918 -53.6118c-0.0891,0.0891 -0.2114,0.1447 -0.3421,0.1794l0.3421 -0.1794z"/>
     <path id="_56980472" class="fil11" d="M54.8088 77.8966c-0.779,-4.5528 -0.2296,-9.2276 1.6432,-13.5997l0.9629 -2.2479 4.4159 -5.5195 4.9804 -25.5082c-0.0714,-0.3741 -0.1435,-0.7482 -0.2158,-1.1225l-7.2511 22.708 -2.603 3.5493 -1.656 -3.0758 -5.442 -30.9958c0.0605,0 0.1212,-0.0012 0.1817,-0.0037l-0.1817 0.0037 -5.6788 30.5223 -1.4193 3.7861 -2.3662 -3.0765 -8.6033 -25.4358c-0.0792,0.9745 -0.1568,1.9487 -0.2327,2.9234l3.5107 18.3953 1.3082 6.5403 4.3556 5.8066c4.6683,6.0541 5.6168,13.8656 2.8705,20.7739 1.9983,-0.8741 4.0852,-1.5122 6.2553,-1.5122 0.7341,0 1.4563,0.0738 2.1669,0.2043l2.9986 -3.1156z"/>
     <path id="_41776664" class="fil10" d="M52.6844 77.2198c-0.6024,-4.6075 0.042,-9.3049 1.9292,-13.7104l1.0698 -2.4977 4.2786 -5.3479 2.5083 -12.8466 -3.126 9.7896 -2.603 3.5493 -1.656 -3.0758 -5.442 -30.9958c0.0605,0 0.1212,-0.0012 0.1817,-0.0037l-0.1817 0.0037 -5.6788 30.5223 -1.4193 3.7861 -2.3662 -3.0765 -5.7453 -16.986 2.3829 12.4853 1.2175 6.0868 4.0755 5.4332c4.7279,6.1385 5.9676,13.9457 3.7238,21.0735 1.1053,-0.3315 2.2354,-0.5492 3.3892,-0.5926l3.4618 -3.5968z"/>
     <path id="_41780192" class="fil8" d="M50.5918 76.5099c-0.4432,-4.6477 0.2858,-9.3581 2.1833,-13.788l1.1768 -2.7474 4.1414 -5.1763 0.1292 -0.6618 -1.4812 2.0197 -1.656 -3.0758 -5.442 -30.9958c0.0605,0 0.1212,-0.0012 0.1817,-0.0037l-0.1817 0.0037 -5.6788 30.5223 -1.4193 3.7861 -2.3662 -3.0765 -1.0341 -3.0573 0.7613 3.8062 3.7958 5.0603c4.3854,5.6998 6.0064,12.7361 4.8566,19.4968l2.0332 -2.1125z"/>
     <path id="_56013688" class="fil7" d="M49.5406 65.9241c0.3699,-1.348 0.8353,-2.6805 1.3961,-3.9896l1.2838 -2.9973 3.5973 -4.4964 -0.7325 -1.3605 -5.442 -30.9958c0.0605,0 0.1212,-0.0012 0.1817,-0.0037l-0.1817 0.0037 -5.6788 30.5223 -0.8838 2.3575 2.2143 2.9519c1.8955,2.4664 3.3112,5.1752 4.2456,8.0079z"/>
     <path id="_57343984" class="fil6" d="M49.3682 60.5166l1.1208 -2.6166 3.8668 -4.8331 0.3829 -1.9609 -5.0954 -29.0215c0.0605,0 0.1212,-0.0012 0.1817,-0.0037l-0.1817 0.0037 -5.6788 30.5223 -0.0507 0.1351 2.9742 3.965c0.9358,1.2187 1.7626,2.4927 2.4802,3.8097z"/>
     <path id="_41237080" class="fil5" d="M49.1386 56.3865l3.3484 -4.1853 1.2868 -6.5906 -4.1305 -23.5261c0.0605,0 0.1212,-0.0012 0.1817,-0.0037l-0.1817 0.0037 -4.8263 25.9406 0.7057 3.5287 2.9586 3.9441c0.225,0.2933 0.4441,0.5895 0.6573,0.8886z"/>
     <path id="_41240864" class="fil4" d="M49.1943 53.1155l1.424 -1.7799 2.1907 -11.2203 -3.1657 -18.0308c0.0605,0 0.1212,-0.0012 0.1817,-0.0037l-0.1817 0.0037 -3.8246 20.5565 0.8124 4.2567 0.7638 3.819 1.7994 2.3988z"/>
     <path id="_56410696" class="fil3" d="M49.0635 48.8617l2.7807 -14.2418 -2.2009 -12.5354c0.0605,0 0.1212,-0.0012 0.1817,-0.0037l-0.1817 0.0037 -2.8195 15.1543 1.7702 9.2753 0.4695 2.3476z"/>
     <path id="_58562696" class="fil2" d="M49.075 38.3661l1.4361 -7.3551c-0.4247,-2.1535 -0.866,-4.311 -1.3248,-6.4703l-1.3575 7.2961 1.2462 6.5293z"/>
    </g>
    <g>
     <path id="_57006456" class="fil15" d="M32.7706 85.7922c-0.0569,0.4582 -0.1123,0.9164 -0.1668,1.3753 4.835,-0.6872 10.5689,-6.3596 17.0395,-6.3596 6.2997,0 11.7264,5.3778 16.4305,6.296l0 -0.1686 -4.4137 -4.1813 0.0758 -0.0836 -0.0034 -0.0033 0.0799 -0.0883 -0.2009 -0.1998 0.0799 -0.0831 -0.0068 -0.0069 2.0606 -2.1411c-1.7255,-4.1302 -1.7053,-8.5783 0.0606,-12.7012l0.535 -1.2487 4.4697 -5.5869 0.0021 -0.0016 0.0777 -0.097 0.3677 -0.2759 0.8162 -4.1803 -0.556 -1.5568 -1.1832 -30.0487 0 0 -8.9907 28.156 -2.603 3.5493 -1.656 -3.0758 -5.442 -30.9958c0.0605,0 0.1212,-0.0012 0.1817,-0.0037l-0.1817 0.0037 -5.6788 30.5223 -1.4193 3.7861 -2.3662 -3.0765 -9.604 -28.3945c0.2975,0 0.5622,-0.0463 0.8072,-0.1322l-0.9042 0.1339 0 29.8127 -1.1831 4.4957 -0.9 -1.5353 0.4352 2.176 1.0361 0.8061 4.2873 5.7154c3.4006,4.3796 3.6395,10.1026 0.8828,14.8592 -0.1185,0.2608 -0.223,0.5148 -0.3254,0.7843 -0.2998,0.7893 -0.7145,1.5525 -1.1113,2.2959 -0.2635,0.4938 -0.5481,0.975 -0.829,1.4586zm-2.2926 -60.8686c-0.0891,0.0891 -0.2114,0.1447 -0.3421,0.1794l0.3421 -0.1794z"/>
     <path id="_41712488" class="fil14" d="M34.7055 86.4431l-0.021 0.1732c4.3725,-1.6113 9.393,-5.8084 14.9588,-5.8084 4.2624,0 8.1248,2.4619 11.6345,4.3388l-2.4128 -2.2858 0.0775 -0.0856 -0.0027 -0.0026 0.1094 -0.121 -0.2429 -0.2416 0.0838 -0.0872 -0.0071 -0.007 2.5457 -2.6452c-1.4431,-4.2722 -1.2636,-8.8037 0.5387,-13.0116l0.642 -1.4984 4.7868 -5.9833 0.0025 -0.002 0.0379 -0.0473 1.8839 -9.6487 -0.9855 -25.0286 0 0 -8.9907 28.156 -2.603 3.5493 -1.656 -3.0758 -5.442 -30.9958c0.0605,0 0.1212,-0.0012 0.1817,-0.0037l-0.1817 0.0037 -5.6788 30.5223 -1.4193 3.7861 -2.3662 -3.0765 -9.604 -28.3945c0.2975,0 0.5622,-0.0463 0.8072,-0.1322l-0.9042 0.1339 0 29.8127 -0.3611 1.3723 0.5284 2.6423 0.6602 0.5137 4.4383 5.9166c3.8681,4.9928 4.1808,11.5461 1.0759,16.983 -0.0857,0.1931 -0.1626,0.3824 -0.2391,0.5838 -0.3317,0.8731 -0.7775,1.7045 -1.2165,2.5271 -0.2107,0.395 -0.434,0.7817 -0.6586,1.168zm-4.2275 -61.5195c-0.0891,0.0891 -0.2114,0.1447 -0.3421,0.1794l0.3421 -0.1794z"/>
     <path id="_56283320" class="fil13" d="M56.0359 82.4049l0.0528 -0.0549 -0.0073 -0.0073 3.0924 -3.2132c-1.1949,-4.3869 -0.8766,-8.9814 0.9552,-13.2579l0.749 -1.7482 4.6902 -5.8625 3.4103 -17.4666 -0.6435 -16.3435 0 0 -8.9907 28.156 -2.603 3.5493 -1.656 -3.0758 -5.442 -30.9958c0.0605,0 0.1212,-0.0012 0.1817,-0.0037l-0.1817 0.0037 -5.6788 30.5223 -1.4193 3.7861 -2.3662 -3.0765 -9.604 -28.3945c0.2975,0 0.5622,-0.0463 0.8072,-0.1322l-0.9042 0.1339 0 22.6846 0.4501 2.3583 1.5325 7.6627 0.2842 0.2212 4.5898 6.1186c4.3378,5.6094 4.7214,12.9977 1.2616,19.1171 -0.3456,0.7574 -0.6442,1.4617 -0.9964,2.1971 3.6457,-1.8915 7.677,-4.4753 12.0435,-4.4753 2.239,0 4.3673,0.68 6.3926,1.597zm-25.5579 -57.4813c-0.0891,0.0891 -0.2114,0.1447 -0.3421,0.1794l0.3421 -0.1794z"/>
     <path id="_57143256" class="fil12" d="M54.0213 81.599l2.9486 -3.0637c-0.9748,-4.4784 -0.5347,-9.1197 1.3207,-13.4513l0.856 -1.9979 4.5528 -5.6909 4.9372 -25.2859 -0.1084 -2.7531c-0.2194,-1.1348 -0.4429,-2.2715 -0.6708,-3.4097l-8.5131 26.6603 -2.603 3.5493 -1.656 -3.0758 -5.442 -30.9958c0.0605,0 0.1212,-0.0012 0.1817,-0.0037l-0.1817 0.0037 -5.6788 30.5223 -1.4193 3.7861 -2.3662 -3.0765 -9.604 -28.3945c0.2975,0 0.5622,-0.0463 0.8072,-0.1322l-0.9042 0.1339 0 12.0164 2.413 12.6429 1.3987 6.994 4.6362 6.1806c4.7396,6.1384 5.2469,14.2178 1.6043,20.9627 2.841,-1.5004 5.8854,-2.9123 9.1131,-2.9123 1.5089,0 2.9672,0.3092 4.378,0.7911zm-23.5433 -56.6754c-0.0891,0.0891 -0.2114,0.1447 -0.3421,0.1794l0.3421 -0.1794z"/>
     <path id="_55299472" class="fil11" d="M51.8099 81.0126l2.999 -3.1161c-0.7783,-4.5502 -0.2306,-9.2251 1.6433,-13.6001l0.963 -2.2476 4.4155 -5.5192 4.9807 -25.5091c-0.0713,-0.3742 -0.1434,-0.7485 -0.2156,-1.1231l-7.2515 22.7094 -2.603 3.5493 -1.656 -3.0758 -5.442 -30.9958c0.0605,0 0.1212,-0.0012 0.1817,-0.0037l-0.1817 0.0037 -5.6788 30.5223 -1.4193 3.7861 -2.3662 -3.0765 -8.6037 -25.437c-0.079,0.9747 -0.1566,1.9493 -0.2324,2.9242l3.5109 18.3957 1.3081 6.5404 4.3558 5.8068c4.6758,6.0641 5.6189,13.8672 2.871,20.7736 1.9979,-0.8739 4.0849,-1.5122 6.2546,-1.5122 0.7341,0 1.4559,0.0742 2.1666,0.2047z"/>
     <path id="_57143928" class="fil10" d="M49.2226 80.8168l3.462 -3.5972c-0.602,-4.6051 0.041,-9.3026 1.9292,-13.7108l1.0699 -2.4974 4.2782 -5.3475 2.5083 -12.8464 -3.1259 9.7893 -2.603 3.5493 -1.656 -3.0758 -5.442 -30.9958c0.0605,0 0.1212,-0.0012 0.1817,-0.0037l-0.1817 0.0037 -5.6788 30.5223 -1.4193 3.7861 -2.3662 -3.0765 -5.745 -16.9854 2.3827 12.4847 1.2174 6.0869 4.0757 5.4333c4.7353,6.1484 5.9696,13.9486 3.724,21.0736 1.1052,-0.3314 2.2351,-0.5494 3.3888,-0.5927z"/>
     <path id="_58699752" class="fil8" d="M39.1452 50.2598l1.0338 3.0566 2.3662 3.0765 1.4193 -3.7861 5.6788 -30.5223 0.1817 -0.0037c-0.0605,0.0025 -0.1212,0.0037 -0.1817,0.0037l5.442 30.9958 1.656 3.0758 1.4811 -2.0196 -0.1292 0.6618 -4.1409 5.1758 -1.1769 2.7472c-1.8985,4.4323 -2.6262,9.1429 -2.1834,13.7884l-2.0304 2.1097c1.1505,-6.7561 -0.4682,-13.786 -4.8594,-19.4935l-3.7959 -5.0605 -0.7611 -3.8056z"/>
     <path id="_57309184" class="fil7" d="M43.0807 54.9644l0.8838 -2.3576 5.6788 -30.5223 0.1817 -0.0037c-0.0605,0.0025 -0.1212,0.0037 -0.1817,0.0037l5.442 30.9958 0.7325 1.3606 -3.5969 4.4959 -1.2839 2.9969c-0.5578,1.3022 -1.0211,2.6273 -1.39,3.9676 -0.9374,-2.818 -2.3549,-5.517 -4.2521,-7.9852l-2.2142 -2.9517z"/>
     <path id="_41113392" class="fil6" d="M43.9138 52.742l0.0507 -0.1352 5.6788 -30.5223 0.1817 -0.0037c-0.0605,0.0025 -0.1212,0.0037 -0.1817,0.0037l5.0953 29.0213 -0.3829 1.9612 -3.8662 4.8325 -1.119 2.612c-0.7186,-1.3132 -1.5461,-2.5854 -2.4826,-3.8047l-2.9741 -3.9648z"/>
     <path id="_41215264" class="fil5" d="M49.1387 56.3865l3.3482 -4.1851 1.2869 -6.5909 -4.1305 -23.526c0.0605,0 0.1212,-0.0012 0.1817,-0.0037l-0.1817 0.0037 -4.8263 25.9404 0.7058 3.5291 2.9587 3.9442c0.225,0.2932 0.444,0.5893 0.6572,0.8883z"/>
     <path id="_56882696" class="fil4" d="M49.1943 53.1155l1.4239 -1.7798 2.1908 -11.2205 -3.1657 -18.0307c0.0605,0 0.1212,-0.0012 0.1817,-0.0037l-0.1817 0.0037 -3.8246 20.5562 0.8125 4.2571 0.7638 3.819 1.7993 2.3987z"/>
     <path id="_56990472" class="fil3" d="M49.0635 48.8615l2.7807 -14.2415 -2.2009 -12.5355c0.0605,0 0.1212,-0.0012 0.1817,-0.0037l-0.1817 0.0037 -2.8195 15.1541 1.7703 9.2756 0.4694 2.3473z"/>
     <path id="_41210032" class="fil2" d="M49.075 38.3659l1.4367 -7.3581c-0.4238,-2.1534 -0.8643,-4.3144 -1.323,-6.4799l-1.3598 7.3088 1.2461 6.5292z"/>
    </g>
    <g>
     <path id="_42680672" class="fil16" d="M30.8382 85.1269c-0.0836,0.6651 -0.1647,1.3309 -0.2434,1.9974l0.12 0.0276c5.2053,0.9464 11.5937,-6.344 18.9285,-6.344 7.2126,0 13.2808,7.049 18.4305,6.384l0 -1.1168 -3.618 -3.4275 0.0766 -0.0846 -0.0048 -0.0045 0.048 -0.053 -0.1594 -0.1584 0.07 -0.0727 -0.0061 -0.0059 1.6576 -1.7223 -0.4241 -0.8808 -0.0693 -0.1619c-1.5711,-3.6676 -1.5711,-7.6016 -0.0001,-11.2691l0.4279 -0.9991 4.1526 -5.1904 0.0014 -0.001 0.0666 -0.0834 0.7808 -0.5858 1.1086 -5.6777 -1.4808 2.1151 -1.1831 -3.3126 -1.1832 -30.0487 0 0 -8.9907 28.156 -2.603 3.5493 -1.656 -3.0758 -5.442 -30.9958c0.0605,0 0.1212,-0.0012 0.1817,-0.0037l-0.1817 0.0037 -5.6788 30.5223 -1.4193 3.7861 -2.3662 -3.0765 -9.604 -28.3945c0.2975,0 0.5622,-0.0463 0.8072,-0.1322l-0.9042 0.1339 0 29.8127 -1.1831 4.4957 -3.9958 -6.8163 1.7075 8.5377c0.1913,0.1773 0.4094,0.3531 0.5752,0.4822l0.8451 0.6573 4.1371 5.5154c2.9321,3.7659 3.0934,8.6507 0.6965,12.7202 -0.1321,0.2871 -0.2483,0.5642 -0.3604,0.8621 -0.2845,0.7559 -0.6855,1.4904 -1.065,2.2014 -0.3143,0.5891 -0.6648,1.1565 -0.9969,1.7349zm-0.3602 -60.2033c-0.0891,0.0891 -0.2114,0.1447 -0.3421,0.1794l0.3421 -0.1794z"/>
     <path id="_56981384" class="fil15" d="M32.7725 85.7773c-0.0575,0.4631 -0.1136,0.9264 -0.1688,1.3902 4.8351,-0.6872 10.569,-6.3596 17.0396,-6.3596 6.2997,0 11.7264,5.3778 16.4305,6.296l0 -0.1686 -4.4131 -4.1808 0.0792 -0.0874 -0.0055 -0.0053 0.0765 -0.0844 -0.2011 -0.1999 0.0638 -0.0662 -0.0054 -0.0054 2.0771 -2.1581c-1.7257,-4.1302 -1.7055,-8.5781 0.0604,-12.7008l0.5349 -1.2489 4.481 -5.6009 0.0008 -0.0005 0.0665 -0.0833 0.3691 -0.2769 0.8162 -4.1802 -0.556 -1.5568 -1.1832 -30.0487 0 0 -8.9907 28.156 -2.603 3.5493 -1.656 -3.0758 -5.442 -30.9958c0.0605,0 0.1212,-0.0012 0.1817,-0.0037l-0.1817 0.0037 -5.6788 30.5223 -1.4193 3.7861 -2.3662 -3.0765 -9.604 -28.3945c0.2975,0 0.5622,-0.0463 0.8072,-0.1322l-0.9042 0.1339 0 29.8127 -1.1831 4.4957 -0.9 -1.5353 0.4352 2.1761 1.036 0.8058 4.2875 5.7158c3.4028,4.3826 3.6366,10.104 0.8849,14.8554 -0.0963,0.2136 -0.1823,0.4212 -0.2666,0.6452 -0.317,0.8424 -0.7493,1.6459 -1.1722,2.4385 -0.2617,0.4904 -0.5473,0.9654 -0.8272,1.4438zm-2.2945 -60.8537c-0.0891,0.0891 -0.2114,0.1447 -0.3421,0.1794l0.3421 -0.1794z"/>
     <path id="_41882384" class="fil14" d="M34.707 86.4305l-0.0225 0.1858c4.3725,-1.6114 9.393,-5.8084 14.9588,-5.8084 4.2623,0 8.1246,2.4619 11.6343,4.3387l-2.4121 -2.2851 0.0819 -0.0904 -0.0062 -0.0059 0.1051 -0.116 -0.2428 -0.2413 0.0576 -0.0598 -0.0048 -0.0047 2.5724 -2.6727c-1.4433,-4.2723 -1.2638,-8.8035 0.5386,-13.0111l0.6418 -1.4987 4.8278 -6.0343 1.8836 -9.6471 -0.9855 -25.0287 0 0 -8.9907 28.156 -2.603 3.5493 -1.656 -3.0758 -5.442 -30.9958c0.0605,0 0.1212,-0.0012 0.1817,-0.0037l-0.1817 0.0037 -5.6788 30.5223 -1.4193 3.7861 -2.3662 -3.0765 -9.604 -28.3945c0.2975,0 0.5622,-0.0463 0.8072,-0.1322l-0.9042 0.1339 0 29.8127 -0.3611 1.3723 0.5284 2.6423 0.6601 0.5135 4.4385 5.917c3.8742,5.0011 4.1783,11.5606 1.0689,16.995 -0.4838,1.0539 -0.8705,2.0153 -1.4486,3.0985 -0.2092,0.3922 -0.433,0.7741 -0.6572,1.1556zm-4.229 -61.5069c-0.0891,0.0891 -0.2114,0.1447 -0.3421,0.1794l0.3421 -0.1794z"/>
     <path id="_56888192" class="fil13" d="M56.0312 82.4028l0.0173 -0.0179 -0.0041 -0.004 3.1293 -3.2514c-1.1951,-4.3869 -0.8767,-8.981 0.9551,-13.2573l0.7488 -1.7486 4.6906 -5.8627 3.4103 -17.4665 -0.6435 -16.3436 0 0 -8.9907 28.156 -2.603 3.5493 -1.656 -3.0758 -5.442 -30.9958c0.0605,0 0.1212,-0.0012 0.1817,-0.0037l-0.1817 0.0037 -5.6788 30.5223 -1.4193 3.7861 -2.3662 -3.0765 -9.604 -28.3945c0.2975,0 0.5622,-0.0463 0.8072,-0.1322l-0.9042 0.1339 0 22.6846 0.4501 2.3583 1.5325 7.6626 0.2841 0.221 4.59 6.1192c4.3424,5.6156 4.7184,13.0063 1.259,19.1214 -0.343,0.7493 -0.6431,1.4577 -0.9947,2.1929 3.646,-1.8915 7.6775,-4.4757 12.0443,-4.4757 2.2373,0 4.3641,0.679 6.3879,1.5949zm-25.5532 -57.4792c-0.0891,0.0891 -0.2114,0.1447 -0.3421,0.1794l0.3421 -0.1794z"/>
     <path id="_41906136" class="fil12" d="M54.0211 81.5989l2.9486 -3.0636c-0.975,-4.4783 -0.5348,-9.1192 1.3206,-13.4505l0.8558 -1.9984 4.5534 -5.6912 4.9371 -25.2858 -0.1076 -2.7327c-0.2216,-1.1375 -0.4476,-2.2743 -0.678,-3.4102l-8.5067 26.6403 -2.603 3.5493 -1.656 -3.0758 -5.442 -30.9958c0.0605,0 0.1212,-0.0012 0.1817,-0.0037l-0.1817 0.0037 -5.6788 30.5223 -1.4193 3.7861 -2.3662 -3.0765 -9.604 -28.3945c0.2975,0 0.5622,-0.0463 0.8072,-0.1322l-0.9042 0.1339 0 12.0166 2.4129 12.6427 1.3988 6.994 4.6364 6.1808c4.7433,6.1436 5.2433,14.2231 1.6037,20.9627 2.8411,-1.5004 5.8857,-2.9125 9.1135,-2.9125 1.5088,0 2.9671,0.3092 4.3778,0.791zm-23.5431 -56.6753c-0.0891,0.0891 -0.2114,0.1447 -0.3421,0.1794l0.3421 -0.1794z"/>
     <path id="_57611728" class="fil11" d="M51.8096 81.0126l2.9991 -3.116c-0.7785,-4.5501 -0.2308,-9.2245 1.6431,-13.5992l0.9629 -2.2482 4.416 -5.5197 4.9799 -25.5049c-0.0717,-0.3739 -0.144,-0.7476 -0.2167,-1.1213l-7.2496 22.7035 -2.603 3.5493 -1.656 -3.0758 -5.442 -30.9958c0.0605,0 0.1212,-0.0012 0.1817,-0.0037l-0.1817 0.0037 -5.6788 30.5223 -1.4193 3.7861 -2.3662 -3.0765 -8.6037 -25.437c-0.0791,0.9747 -0.1566,1.9493 -0.2324,2.9242l3.5109 18.3957 1.3081 6.5404 4.3559 5.807c4.6791,6.0685 5.6164,13.8716 2.8705,20.7736 1.9981,-0.874 4.0852,-1.5124 6.255,-1.5124 0.734,0 1.4557,0.0742 2.1663,0.2047z"/>
     <path id="_58997928" class="fil10" d="M49.2222 80.8169l3.4621 -3.5972c-0.6021,-4.6049 0.0409,-9.3019 1.9291,-13.7097l1.0698 -2.498 4.2788 -5.3481 2.5084 -12.8469 -3.1261 9.7898 -2.603 3.5493 -1.656 -3.0758 -5.442 -30.9958c0.0605,0 0.1212,-0.0012 0.1817,-0.0037l-0.1817 0.0037 -5.6788 30.5223 -1.4193 3.7861 -2.3662 -3.0765 -5.745 -16.9854 2.3827 12.4847 1.2174 6.0869 4.0758 5.4336c4.7383,6.1524 5.9678,13.9524 3.7235,21.0735 1.1052,-0.3314 2.2351,-0.5495 3.3888,-0.5928z"/>
     <path id="_56980544" class="fil8" d="M39.1452 50.2598l1.0338 3.0566 2.3662 3.0765 1.4193 -3.7861 5.6788 -30.5223 0.1817 -0.0037c-0.0605,0.0025 -0.1212,0.0037 -0.1817,0.0037l5.442 30.9958 1.656 3.0758 1.4811 -2.0195 -0.1292 0.6616 -4.1415 5.1766 -1.1768 2.7478c-1.8985,4.4319 -2.6262,9.142 -2.1832,13.7873l-2.0302 2.1093c1.1499,-6.7529 -0.4657,-13.7824 -4.8591,-19.493l-3.7961 -5.0608 -0.7611 -3.8056z"/>
     <path id="_57613304" class="fil7" d="M43.0807 54.9644l0.8838 -2.3576 5.6788 -30.5223 0.1817 -0.0037c-0.0605,0.0025 -0.1212,0.0037 -0.1817,0.0037l5.442 30.9958 0.7325 1.3606 -3.5976 4.4967 -1.2838 2.9976c-0.5576,1.3016 -1.0207,2.626 -1.3895,3.9656 -0.9372,-2.8171 -2.3544,-5.5158 -4.2518,-7.9843l-2.2144 -2.9521z"/>
     <path id="_56988352" class="fil6" d="M43.9138 52.742l0.0507 -0.1352 5.6788 -30.5223 0.1817 -0.0037c-0.0605,0.0025 -0.1212,0.0037 -0.1817,0.0037l5.0953 29.0213 -0.3829 1.9611 -3.867 4.8335 -1.1183 2.6111c-0.7184,-1.313 -1.5458,-2.585 -2.4823,-3.8044l-2.9743 -3.9651z"/>
     <path id="_57561856" class="fil5" d="M49.1388 56.3862l3.3482 -4.1849 1.2868 -6.5907 -4.1305 -23.5261c0.0605,0 0.1212,-0.0012 0.1817,-0.0037l-0.1817 0.0037 -4.8263 25.9404 0.7058 3.5291 2.9585 3.944c0.225,0.2933 0.4442,0.5894 0.6575,0.8882z"/>
     <path id="_57607448" class="fil4" d="M49.1942 53.1155l1.424 -1.7799 2.1908 -11.2204 -3.1657 -18.0307c0.0605,0 0.1212,-0.0012 0.1817,-0.0037l-0.1817 0.0037 -3.8246 20.5562 0.8125 4.2571 0.7638 3.819 1.7992 2.3987z"/>
     <path id="_57568288" class="fil3" d="M49.0635 48.8616l2.7807 -14.2416 -2.2009 -12.5355c0.0605,0 0.1212,-0.0012 0.1817,-0.0037l-0.1817 0.0037 -2.8195 15.1541 1.7703 9.2756 0.4694 2.3474z"/>
     <path id="_57018248" class="fil2" d="M49.075 38.366l1.4333 -7.3405c-0.4273,-2.1458 -0.8713,-4.2882 -1.3327,-6.4271l-1.3467 7.2383 1.2461 6.5293z"/>
    </g>
    <g>
     <path id="_58567048" class="fil17" d="M68.5429 80.9313l-1.0082 -2.0938 -0.052 -0.1215c-1.3556,-3.1647 -1.3556,-6.5295 0,-9.6943l0.321 -0.7492 3.8193 -4.7739 0.0017 -0.0013 0.0716 -0.0895 0.6095 -0.4573c0.2043,-0.1533 0.4037,-0.3257 0.5699,-0.5207 0.0136,-0.0178 0.027,-0.0357 0.0401,-0.0539l2.4871 -12.7381 -3.045 5.8081 -1.6566 2.3662 -1.1831 -3.3126 -1.1832 -30.0487 0 0 -8.9907 28.156 -2.603 3.5493 -1.656 -3.0758 -5.442 -30.9958c0.0605,0 0.1212,-0.0012 0.1817,-0.0037l-0.1817 0.0037 -5.6788 30.5223 -1.4193 3.7861 -2.3662 -3.0765 -9.604 -28.3945c0.2975,0 0.5622,-0.0463 0.8072,-0.1322l-0.9042 0.1339 0 29.8127 -1.1831 4.4957 -7.0324 -11.9963 0.814 4.2652 2.0805 10.4027c0.3166,0.3955 0.871,0.8571 1.1969,1.1105l0.6337 0.4931 3.9879 5.3164c2.4644,3.1543 2.5476,7.185 0.5141,10.5699 -0.1475,0.3168 -0.2781,0.6209 -0.4009,0.9508 -0.2688,0.7221 -0.6561,1.428 -1.0181,2.1062 -0.3631,0.6807 -0.7908,1.3297 -1.1634,2.0043 -0.0927,0.7285 -0.1825,1.4576 -0.2695,2.1876 0.6391,0.1703 1.3312,0.34 2.0771,0.5095 5.2053,0.9464 11.5937,-6.344 18.9285,-6.344 7.3348,0 13.4864,7.2904 18.6917,6.344 0.6163,-0.1401 1.1955,-0.2804 1.7388,-0.4208l0 -1.5163 -2.8241 -2.6755 0.0941 -0.1037 -0.1201 -0.1195 0.0794 -0.0826 -0.0068 -0.0069 1.2466 -1.2953zm-38.0649 -56.0077c-0.0891,0.0891 -0.2114,0.1447 -0.3421,0.1794l0.3421 -0.1794z"/>
     <path id="_58569224" class="fil16" d="M66.1377 80.5463l-0.4241 -0.8808 -0.0694 -0.162c-1.5709,-3.6676 -1.5709,-7.6016 0.0001,-11.2694l0.428 -0.9989 4.1428 -5.1782 0.0013 -0.0011 0.0763 -0.0954 0.7808 -0.5858 1.1086 -5.6777 -1.4808 2.1151 -1.1831 -3.3126 -1.1832 -30.0487 0 0 -8.9907 28.156 -2.603 3.5493 -1.656 -3.0758 -5.442 -30.9958c0.0605,0 0.1212,-0.0012 0.1817,-0.0037l-0.1817 0.0037 -5.6788 30.5223 -1.4193 3.7861 -2.3662 -3.0765 -9.604 -28.3945c0.2975,0 0.5622,-0.0463 0.8072,-0.1322l-0.9042 0.1339 0 29.8127 -1.1831 4.4957 -3.9958 -6.8163 1.7077 8.5385c0.195,0.1811 0.4199,0.3606 0.5751,0.4814l0.8451 0.6574 4.1371 5.5155c2.9396,3.7757 3.0935,8.6493 0.6975,12.718 -0.1085,0.2369 -0.2057,0.4662 -0.2985,0.7155 -0.3022,0.8117 -0.721,1.5874 -1.1279,2.35 -0.3083,0.5779 -0.6652,1.1343 -0.9928,1.7013 -0.0852,0.6764 -0.1676,1.3532 -0.2478,2.0309l0.1202 0.0277c5.2053,0.9464 11.5937,-6.344 18.9285,-6.344 7.2126,0 13.2808,7.0489 18.4305,6.384l0 -1.1169 -3.6211 -3.4305 0.126 -0.1388 -0.1598 -0.159 0.0829 -0.0862 -0.0071 -0.0071 1.643 -1.7071zm-35.6597 -55.6227c-0.0891,0.0891 -0.2114,0.1447 -0.3421,0.1794l0.3421 -0.1794z"/>
     <path id="_58520752" class="fil15" d="M63.7453 80.148c-1.7256,-4.1303 -1.7054,-8.5784 0.0606,-12.7014l0.535 -1.2487 4.4663 -5.5826 0.0009 -0.0007 0.081 -0.1013 0.3689 -0.2768 0.8162 -4.1802 -0.556 -1.5568 -1.1832 -30.0487 0 0 -8.9907 28.156 -2.603 3.5493 -1.656 -3.0758 -5.442 -30.9958c0.0605,0 0.1212,-0.0012 0.1817,-0.0037l-0.1817 0.0037 -5.6788 30.5223 -1.4193 3.7861 -2.3662 -3.0765 -9.604 -28.3945c0.2975,0 0.5622,-0.0463 0.8072,-0.1322l-0.9042 0.1339 0 29.8127 -1.1831 4.4957 -0.9001 -1.5354 0.4352 2.176 1.0363 0.8062 4.2874 5.7157c3.4134,4.3965 3.637,10.1108 0.8802,14.8632 -0.4797,1.0397 -0.8614,2.0025 -1.4342,3.0758 -0.2552,0.4783 -0.5453,0.9431 -0.8232,1.4106 -0.059,0.4742 -0.1165,0.9486 -0.173,1.4235 4.8351,-0.6869 10.569,-6.3597 17.0398,-6.3597 6.2997,0 11.7264,5.3778 16.4305,6.296l0 -0.1686 -4.4182 -4.1856 0.158 -0.174 -0.1994 -0.1984 0.0862 -0.0897 -0.0073 -0.0073 2.0522 -2.1323zm-33.2673 -55.2244c-0.0891,0.0891 -0.2114,0.1447 -0.3421,0.1794l0.3421 -0.1794z"/>
     <path id="_58522656" class="fil14" d="M61.4287 79.6708c-1.4432,-4.2723 -1.2636,-8.8038 0.5388,-13.0118l0.642 -1.4985 4.8274 -6.0336 1.8836 -9.6472 -0.9855 -25.0289 0 0 -8.9907 28.156 -2.603 3.5493 -1.656 -3.0758 -5.442 -30.9958c0.0605,0 0.1212,-0.0012 0.1817,-0.0037l-0.1817 0.0037 -5.6788 30.5223 -1.4193 3.7861 -2.3662 -3.0765 -9.604 -28.3945c0.2975,0 0.5622,-0.0463 0.8072,-0.1322l-0.9042 0.1339 0 29.8127 -0.3611 1.3723 0.5284 2.6423 0.6603 0.5137 4.4383 5.917c3.8844,5.0141 4.1788,11.563 1.0675,16.9973 -0.4793,1.0425 -0.8741,2.0224 -1.4472,3.0961 -0.2031,0.3807 -0.4294,0.7538 -0.6537,1.1262l-0.0262 0.2152c4.3725,-1.6113 9.3931,-5.8085 14.959,-5.8085 4.2614,0 8.1235,2.4604 11.6326,4.3371l-2.4173 -2.2901 0.1899 -0.2091 -0.2391 -0.2379 0.0897 -0.0932 -0.0076 -0.0076 2.5372 -2.6363zm-30.9507 -54.7472c-0.0891,0.0891 -0.2114,0.1447 -0.3421,0.1794l0.3421 -0.1794z"/>
     <path id="_58523512" class="fil13" d="M59.1738 79.1296c-1.195,-4.387 -0.8766,-8.9814 0.9553,-13.2582l0.749 -1.7482 4.6901 -5.8623 3.4103 -17.4665 -0.6435 -16.3436 0 0 -8.9907 28.156 -2.603 3.5493 -1.656 -3.0758 -5.442 -30.9958c0.0605,0 0.1212,-0.0012 0.1817,-0.0037l-0.1817 0.0037 -5.6788 30.5223 -1.4193 3.7861 -2.3662 -3.0765 -9.604 -28.3945c0.2975,0 0.5622,-0.0463 0.8072,-0.1322l-0.9042 0.1339 0 22.685 0.45 2.3579 1.5326 7.6627 0.2843 0.2212 4.5899 6.119c4.3424,5.6155 4.7171,12.972 1.2834,19.0779 -0.3011,0.7884 -0.6306,1.5019 -0.9963,2.2243 3.6401,-1.8905 7.6636,-4.4637 12.0214,-4.4637 2.2393,0 4.3683,0.6798 6.3937,1.597l0.0607 -0.0631 -0.0078 -0.0079 3.0839 -3.2043zm-28.6958 -54.206c-0.0891,0.0891 -0.2114,0.1447 -0.3421,0.1794l0.3421 -0.1794z"/>
     <path id="_58524368" class="fil12" d="M56.9698 78.5354c-0.9749,-4.4784 -0.5346,-9.1197 1.3209,-13.4516l0.856 -1.9979 4.5527 -5.6906 4.9372 -25.286 -0.1076 -2.7327c-0.2216,-1.1374 -0.4476,-2.2742 -0.678,-3.4101l-8.5067 26.6403 -2.603 3.5493 -1.656 -3.0758 -5.442 -30.9958c0.0605,0 0.1212,-0.0012 0.1817,-0.0037l-0.1817 0.0037 -5.6788 30.5223 -1.4193 3.7861 -2.3662 -3.0765 -9.604 -28.3945c0.2975,0 0.5622,-0.0463 0.8072,-0.1322l-0.9042 0.1339 0 12.0166 2.4129 12.6427 1.3988 6.9939 4.6364 6.181c4.7541,6.1575 5.2443,14.2239 1.6039,20.9624 2.8411,-1.5005 5.8854,-2.9123 9.1133,-2.9123 1.5089,0 2.9678,0.3086 4.3786,0.7905l2.9479 -3.063zm-26.4918 -53.6118c-0.0891,0.0891 -0.2114,0.1447 -0.3421,0.1794l0.3421 -0.1794z"/>
     <path id="_58525104" class="fil11" d="M54.8088 77.8966c-0.7784,-4.5502 -0.2306,-9.225 1.6435,-13.6003l0.9629 -2.2477 4.4155 -5.519 4.9799 -25.505c-0.0717,-0.3739 -0.1441,-0.7476 -0.2167,-1.1213l-7.2496 22.7035 -2.603 3.5493 -1.656 -3.0758 -5.442 -30.9958c0.0605,0 0.1212,-0.0012 0.1817,-0.0037l-0.1817 0.0037 -5.6788 30.5223 -1.4193 3.7861 -2.3662 -3.0765 -8.6037 -25.437c-0.0791,0.9747 -0.1566,1.9493 -0.2324,2.9242l3.5109 18.3958 1.3081 6.5402 4.356 5.8072c4.6891,6.0814 5.6194,13.8739 2.8718,20.7726 1.9978,-0.8738 4.0841,-1.5115 6.2536,-1.5115 0.7341,0 1.4564,0.0738 2.1671,0.2043l2.9984 -3.1156z"/>
     <path id="_58482056" class="fil10" d="M52.6845 77.2197c-0.602,-4.6051 0.0411,-9.3025 1.9294,-13.711l1.0699 -2.4974 4.2781 -5.3473 2.5084 -12.8467 -3.126 9.7895 -2.603 3.5493 -1.656 -3.0758 -5.442 -30.9958c0.0605,0 0.1212,-0.0012 0.1817,-0.0037l-0.1817 0.0037 -5.6788 30.5223 -1.4193 3.7861 -2.3662 -3.0765 -5.745 -16.9854 2.3827 12.4848 1.2174 6.0867 4.0759 5.4338c4.748,6.1648 5.9722,13.9554 3.7261,21.0721 1.1046,-0.331 2.2338,-0.5484 3.3867,-0.5918l3.4617 -3.5969z"/>
     <path id="_58483328" class="fil8" d="M50.5919 76.5099c-0.4429,-4.6456 0.2849,-9.3561 2.1836,-13.7888l1.1769 -2.7471 4.1408 -5.1757 0.1292 -0.6618 -1.4811 2.0196 -1.656 -3.0758 -5.442 -30.9958c0.0605,0 0.1212,-0.0012 0.1817,-0.0037l-0.1817 0.0037 -5.6788 30.5223 -1.4193 3.7861 -2.3662 -3.0765 -1.0339 -3.0569 0.7611 3.8058 3.7962 5.0609c4.4011,5.7203 6.0138,12.7424 4.8633,19.489l2.0262 -2.1053z"/>
     <path id="_58485032" class="fil7" d="M49.5487 65.8952c0.3686,-1.3382 0.8314,-2.6613 1.3884,-3.9617l1.2839 -2.9969 3.5968 -4.4957 -0.7325 -1.3606 -5.442 -30.9958c0.0605,0 0.1212,-0.0012 0.1817,-0.0037l-0.1817 0.0037 -5.6788 30.5223 -0.8838 2.3576 2.2144 2.952c1.8983,2.4696 3.3158,5.1659 4.2536,7.9788z"/>
     <path id="_57169768" class="fil6" d="M49.3711 60.5101l1.1185 -2.6108 3.8661 -4.8323 0.3829 -1.9612 -5.0953 -29.0213c0.0605,0 0.1212,-0.0012 0.1817,-0.0037l-0.1817 0.0037 -5.6788 30.5223 -0.0507 0.1351 2.9742 3.9651c0.9368,1.2197 1.7645,2.4913 2.4831,3.8031z"/>
     <path id="_57170968" class="fil5" d="M49.1389 56.3862l3.348 -4.1848 1.2869 -6.5909 -4.1305 -23.526c0.0605,0 0.1212,-0.0012 0.1817,-0.0037l-0.1817 0.0037 -4.8263 25.9404 0.7058 3.529 2.9584 3.944c0.2251,0.2933 0.4443,0.5895 0.6577,0.8883z"/>
     <path id="_57172432" class="fil4" d="M49.1943 53.1155l1.4239 -1.7798 2.1908 -11.2203 -3.1657 -18.0309c0.0605,0 0.1212,-0.0012 0.1817,-0.0037l-0.1817 0.0037 -3.8246 20.5562 0.8125 4.2571 0.7637 3.8189 1.7994 2.3988z"/>
     <path id="_57173864" class="fil3" d="M49.0635 48.8616l2.7807 -14.2416 -2.2009 -12.5355c0.0605,0 0.1212,-0.0012 0.1817,-0.0037l-0.1817 0.0037 -2.8195 15.1542 1.7702 9.2755 0.4695 2.3474z"/>
     <path id="_57175240" class="fil2" d="M49.075 38.366l1.4333 -7.3406c-0.4273,-2.1458 -0.8713,-4.2882 -1.3327,-6.4271l-1.3467 7.2384 1.2461 6.5293z"/>
    </g>
    <g>
     <path id="_57350848" class="fil18" d="M29.7272 78.4425c-0.4779,1.0224 -0.888,2.0676 -1.4211,3.0665 -0.3914,0.7335 -0.8102,1.451 -1.2233,2.1723 -0.0405,0.0707 -0.0842,0.1432 -0.1275,0.2165l0 0.0525 -0.032 0.2516c-0.0791,0.6212 -0.1558,1.2427 -0.2308,1.8649 1.1008,0.3661 2.4413,0.7257 4.0223,1.0851 5.2053,0.9464 11.5937,-6.344 18.9285,-6.344 7.3348,0 13.4864,7.2904 18.6917,6.344 1.4478,-0.3291 2.6937,-0.6585 3.7388,-0.9927l0 -1.8047 -2.0273 -1.9206 0.0613 -0.0676 -0.0811 -0.0804 0.0712 -0.0739 -0.0062 -0.006 0.8564 -0.8897 -1.5927 -3.3077 -0.0344 -0.0806c-1.1402,-2.6617 -1.1401,-5.4568 0,-8.1182l0.2138 -0.4998 3.5005 -4.3753 0.002 -0.0014 0.0623 -0.078 0.4065 -0.3051c0.3367,-0.2525 0.6538,-0.5371 0.9235,-0.861 0.1429,-0.181 0.2694,-0.3726 0.3796,-0.5741l3.8408 -19.6707 -6.2921 12.0015 -1.6566 2.3662 -1.1831 -3.3126 -1.1832 -30.0487 0 0 -8.9907 28.156 -2.603 3.5493 -1.656 -3.0758 -5.442 -30.9958c0.0605,0 0.1212,-0.0012 0.1817,-0.0037l-0.1817 0.0037 -5.6788 30.5223 -1.4193 3.7861 -2.3662 -3.0765 -9.604 -28.3945c0.2975,0 0.5622,-0.0463 0.8072,-0.1322l-0.9042 0.1339 0 29.8127 -1.1831 4.4957 -10.0515 -17.1464 1.8702 9.7989 2.1607 10.8031c0.4089,0.7065 1.2519,1.4387 1.8515,1.9052l0.4225 0.3287 3.8398 5.1188c1.9905,2.5357 1.9959,5.7086 0.3391,8.4022zm0.7508 -53.5189c-0.0891,0.0891 -0.2114,0.1447 -0.3421,0.1794l0.3421 -0.1794z"/>
     <path id="_57353048" class="fil17" d="M31.4936 79.3868c-0.475,1.0244 -0.8881,2.0615 -1.423,3.0637 -0.3762,0.7051 -0.7766,1.3955 -1.174,2.0883 -0.089,0.7006 -0.175,1.4017 -0.2587,2.1036 0.639,0.1702 1.331,0.34 2.0769,0.5095 5.2053,0.9464 11.5937,-6.344 18.9285,-6.344 7.3348,0 13.4864,7.2904 18.6917,6.344 0.6163,-0.1401 1.1955,-0.2804 1.7388,-0.4208l0 -1.5164 -2.8233 -2.6747 0.0914 -0.1008 -0.1227 -0.1217 0.0661 -0.0686 -0.0055 -0.0055 1.2631 -1.3122 -1.0091 -2.0956 -0.0515 -0.1205c-1.3556,-3.1647 -1.3553,-6.5283 0,-9.6923l0.3209 -0.7498 3.8335 -4.7916 0.0015 -0.0011 0.0577 -0.0722 0.61 -0.4577c0.2036,-0.1527 0.4039,-0.3259 0.5698,-0.5207 0.0136,-0.0178 0.027,-0.0357 0.0401,-0.0539l2.4871 -12.7379 -3.045 5.808 -1.6566 2.3662 -1.1831 -3.3126 -1.1832 -30.0487 0 0 -8.9907 28.156 -2.603 3.5493 -1.656 -3.0758 -5.442 -30.9958c0.0605,0 0.1212,-0.0012 0.1817,-0.0037l-0.1817 0.0037 -5.6788 30.5223 -1.4193 3.7861 -2.3662 -3.0765 -9.604 -28.3945c0.2975,0 0.5622,-0.0463 0.8072,-0.1322l-0.9042 0.1339 0 29.8127 -1.1831 4.4957 -7.0325 -11.9963 0.8141 4.2652 2.0813 10.4063c0.3169,0.3916 0.9092,0.8839 1.1962,1.1071l0.6337 0.493 3.9878 5.3162c2.4701,3.1616 2.5452,7.1844 0.5181,10.5633zm-1.0156 -54.4632c-0.0891,0.0891 -0.2114,0.1447 -0.3421,0.1794l0.3421 -0.1794z"/>
     <path id="_57355192" class="fil16" d="M33.2651 80.3207c-0.4744,1.0287 -0.8917,2.0628 -1.43,3.0714 -0.3231,0.6054 -0.6632,1.2003 -1.0045,1.7948 -0.081,0.6453 -0.1595,1.291 -0.236,1.9374l0.1202 0.0276c5.2053,0.9464 11.5937,-6.344 18.9285,-6.344 7.2126,0 13.2808,7.049 18.4305,6.384l0 -1.1169 -3.6192 -3.4288 0.1215 -0.1341 -0.1643 -0.1631 0.061 -0.0633 -0.005 -0.0049 1.6698 -1.7348 -0.4253 -0.8833 -0.0686 -0.1606c-1.571,-3.6676 -1.5706,-7.5997 0,-11.2664l0.4278 -0.9997 4.1665 -5.2078 0.0012 -0.0008 0.0531 -0.0665 0.7812 -0.5862 1.1086 -5.6777 -1.4808 2.1151 -1.1831 -3.3126 -1.1832 -30.0487 0 0 -8.9907 28.156 -2.603 3.5493 -1.656 -3.0758 -5.442 -30.9958c0.0605,0 0.1212,-0.0012 0.1817,-0.0037l-0.1817 0.0037 -5.6788 30.5223 -1.4193 3.7861 -2.3662 -3.0765 -9.604 -28.3945c0.2975,0 0.5622,-0.0463 0.8072,-0.1322l-0.9042 0.1339 0 29.8127 -1.1831 4.4957 -3.9958 -6.8163 1.7079 8.5394c0.1949,0.1814 0.42,0.36 0.5751,0.4807l0.8449 0.6573 4.1372 5.5153c2.9461,3.7841 3.0908,8.6498 0.7009,12.7123zm-2.7871 -55.3971c-0.0891,0.0891 -0.2114,0.1447 -0.3421,0.1794l0.3421 -0.1794z"/>
     <path id="_57356984" class="fil15" d="M35.0402 81.2469c-0.4753,1.0348 -0.8977,2.0696 -1.4406,3.0868 -0.2695,0.5051 -0.5504,1.0028 -0.8341,1.4992 -0.0552,0.4447 -0.1091,0.8895 -0.1621,1.3347 4.8351,-0.687 10.5691,-6.3597 17.0399,-6.3597 6.2997,0 11.7264,5.3778 16.4305,6.296l0 -0.1687 -4.4152 -4.1828 0.1517 -0.1673 -0.206 -0.2045 0.0559 -0.0581 -0.0043 -0.0043 2.0893 -2.1706c-1.7263,-4.1306 -1.7059,-8.5768 0.0598,-12.6989l0.5348 -1.2497 4.4996 -5.624 0.0007 -0.0006 0.0486 -0.0607 0.3692 -0.2771 0.8162 -4.1805 -0.5559 -1.5566 -1.1832 -30.0487 0 0 -8.9907 28.156 -2.603 3.5493 -1.656 -3.0758 -5.442 -30.9958c0.0605,0 0.1212,-0.0012 0.1817,-0.0037l-0.1817 0.0037 -5.6788 30.5223 -1.4193 3.7861 -2.3662 -3.0765 -9.604 -28.3945c0.2975,0 0.5622,-0.0463 0.8072,-0.1322l-0.9042 0.1339 0 29.8127 -1.1831 4.4957 -0.9 -1.5353 0.4352 2.176 1.0362 0.8062 4.2874 5.7155c3.4194,4.4041 3.6341,10.1076 0.8865,14.8525zm-4.5622 -56.3233c-0.0891,0.0891 -0.2114,0.1447 -0.3421,0.1794l0.3421 -0.1794z"/>
     <path id="_57702440" class="fil14" d="M36.8182 82.167c-0.4776,1.0427 -0.9058,2.081 -1.4541,3.1082 -0.2153,0.4035 -0.4375,0.8023 -0.6626,1.1994l-0.0172 0.1418c4.3726,-1.6113 9.3931,-5.8085 14.959,-5.8085 4.2619,0 8.124,2.4609 11.6334,4.3377l-2.4141 -2.287 0.1819 -0.2006 -0.2477 -0.2458 0.0509 -0.0528 -0.0038 -0.0037 2.5847 -2.6853c-1.4432,-4.272 -1.2639,-8.8025 0.5378,-13.0087l0.6418 -1.4997 4.8287 -6.0355 1.8836 -9.6472 -0.9855 -25.0285 0 0 -8.9907 28.156 -2.603 3.5493 -1.656 -3.0758 -5.442 -30.9958c0.0605,0 0.1212,-0.0012 0.1817,-0.0037l-0.1817 0.0037 -5.6788 30.5223 -1.4193 3.7861 -2.3662 -3.0765 -9.604 -28.3945c0.2975,0 0.5622,-0.0463 0.8072,-0.1322l-0.9042 0.1339 0 29.8127 -0.3611 1.3723 0.5285 2.6424 0.6602 0.5137 4.4383 5.9167c3.8909,5.0222 4.1757,11.5595 1.0743,16.9856zm-6.3402 -57.2434c-0.0891,0.0891 -0.2114,0.1447 -0.3421,0.1794l0.3421 -0.1794z"/>
     <path id="_57703296" class="fil13" d="M38.5984 83.0824c-0.3372,0.7374 -0.6513,1.4707 -1.0001,2.2013 3.6462,-1.8916 7.6777,-4.4758 12.045,-4.4758 2.2367,0 4.363,0.6785 6.3863,1.5941l0.0055 -0.0058 -0.0031 -0.0031 3.1416 -3.264c-1.195,-4.3865 -0.8769,-8.9797 0.9542,-13.2544l0.7487 -1.7497 4.6917 -5.8641 3.4103 -17.4665 -0.6435 -16.3436 0 0 -8.9907 28.156 -2.603 3.5493 -1.656 -3.0758 -5.442 -30.9958c0.0605,0 0.1212,-0.0012 0.1817,-0.0037l-0.1817 0.0037 -5.6788 30.5223 -1.4193 3.7861 -2.3662 -3.0765 -9.604 -28.3945c0.2975,0 0.5622,-0.0463 0.8072,-0.1322l-0.9042 0.1339 0 22.6851 0.45 2.3578 1.5327 7.6628 0.2843 0.2213 4.5897 6.1185c4.3605,5.6386 4.7156,13.0072 1.2637,19.1133zm-8.1204 -58.1588c-0.0891,0.0891 -0.2114,0.1447 -0.3421,0.1794l0.3421 -0.1794z"/>
     <path id="_57704968" class="fil12" d="M54.0206 81.5987l2.949 -3.0638c-0.975,-4.4778 -0.5351,-9.1176 1.3195,-13.4472l0.8557 -1.9997 4.5546 -5.6928 4.9372 -25.2858 -0.1076 -2.7328c-0.2216,-1.1375 -0.4476,-2.2742 -0.678,-3.4101l-8.5067 26.6403 -2.603 3.5493 -1.656 -3.0758 -5.442 -30.9958c0.0605,0 0.1212,-0.0012 0.1817,-0.0037l-0.1817 0.0037 -5.6788 30.5223 -1.4193 3.7861 -2.3662 -3.0765 -9.604 -28.3945c0.2975,0 0.5622,-0.0463 0.8072,-0.1322l-0.9042 0.1339 0 12.0165 2.4129 12.6428 1.3989 6.9941 4.6362 6.1805c4.7643,6.1701 5.2419,14.2314 1.6044,20.9627 2.8409,-1.5003 5.8853,-2.9123 9.1129,-2.9123 1.5086,0 2.9667,0.3091 4.3773,0.7908zm-23.5426 -56.6751c-0.0891,0.0891 -0.2114,0.1447 -0.3421,0.1794l0.3421 -0.1794z"/>
     <path id="_57707136" class="fil11" d="M51.8089 81.0125l2.9996 -3.1164c-0.7785,-4.5494 -0.2312,-9.2226 1.642,-13.5955l0.9627 -2.2496 4.4175 -5.5214 4.9799 -25.505c-0.0717,-0.3739 -0.1441,-0.7476 -0.2167,-1.1213l-7.2496 22.7035 -2.603 3.5493 -1.656 -3.0758 -5.442 -30.9958c0.0605,0 0.1212,-0.0012 0.1817,-0.0037l-0.1817 0.0037 -5.6788 30.5223 -1.4193 3.7861 -2.3662 -3.0765 -8.6037 -25.4371c-0.0791,0.9747 -0.1566,1.9494 -0.2324,2.9242l3.5109 18.3958 1.3082 6.5405 4.3557 5.8066c4.6985,6.093 5.6185,13.8815 2.872,20.7733 1.9976,-0.8737 4.0843,-1.5118 6.2536,-1.5118 0.7338,0 1.4552,0.0742 2.1656,0.2046z"/>
     <path id="_57464912" class="fil10" d="M49.2212 80.8169l3.4629 -3.5977c-0.6021,-4.604 0.0404,-9.2996 1.9277,-13.7056l1.0697 -2.4995 4.2804 -5.3502 2.5083 -12.8465 -3.1259 9.7894 -2.603 3.5493 -1.656 -3.0758 -5.442 -30.9958c0.0605,0 0.1212,-0.0012 0.1817,-0.0037l-0.1817 0.0037 -5.6788 30.5223 -1.4193 3.7861 -2.3662 -3.0765 -5.7452 -16.9857 2.3829 12.485 1.2174 6.0869 4.0756 5.4331c4.7569,6.1757 5.9727,13.963 3.7271,21.0729 1.1038,-0.3307 2.2322,-0.5484 3.3844,-0.5917z"/>
     <path id="_57466184" class="fil8" d="M39.1451 50.2598l1.0339 3.0566 2.3662 3.0765 1.4193 -3.7861 5.6788 -30.5223 0.1817 -0.0037c-0.0605,0.0025 -0.1212,0.0037 -0.1817,0.0037l5.442 30.9958 1.656 3.0758 1.4811 -2.0195 -0.1292 0.6616 -4.1434 5.1789 -1.1766 2.7495c-1.8976,4.4299 -2.6249,9.1385 -2.1818,13.7828l-2.0232 2.1019c1.1497,-6.7394 -0.4582,-13.7574 -4.8662,-19.4858l-3.7957 -5.06 -0.7612 -3.8057z"/>
     <path id="_57467880" class="fil7" d="M43.0807 54.9643l0.8838 -2.3575 5.6788 -30.5223 0.1817 -0.0037c-0.0605,0.0025 -0.1212,0.0037 -0.1817,0.0037l5.442 30.9958 0.7325 1.3605 -3.5996 4.4993 -1.2836 2.9995c-0.5555,1.2968 -1.0173,2.6163 -1.3853,3.9509 -0.9379,-2.8097 -2.3554,-5.5044 -4.2547,-7.9749l-2.2139 -2.9513z"/>
     <path id="_57468736" class="fil6" d="M43.9138 52.742l0.0507 -0.1352 5.6788 -30.5223 0.1817 -0.0037c-0.0605,0.0025 -0.1212,0.0037 -0.1817,0.0037l5.0953 29.0212 -0.3829 1.9612 -3.8692 4.8362 -1.1151 2.6058c-0.7188,-1.3113 -1.5467,-2.5827 -2.484,-3.8028l-2.9736 -3.9641z"/>
     <path id="_57469936" class="fil5" d="M44.817 48.025l4.8263 -25.9405 0.1817 -0.0037c-0.0605,0.0025 -0.1212,0.0037 -0.1817,0.0037l4.1305 23.5259 -1.2869 6.5909 -3.348 4.1847c-0.2135,-0.2991 -0.433,-0.5956 -0.6584,-0.8892l-2.9577 -3.9428 -0.7058 -3.529z"/>
     <path id="_57471400" class="fil4" d="M49.1943 53.1154l1.4239 -1.7798 2.1908 -11.2204 -3.1657 -18.0307c0.0605,0 0.1212,-0.0012 0.1817,-0.0037l-0.1817 0.0037 -3.8246 20.5564 0.8124 4.2568 0.7639 3.8191 1.7993 2.3986z"/>
     <path id="_57360448" class="fil3" d="M49.0635 48.8615l2.7807 -14.2415 -2.2009 -12.5355c0.0605,0 0.1212,-0.0012 0.1817,-0.0037l-0.1817 0.0037 -2.8195 15.1543 1.7702 9.2753 0.4695 2.3474z"/>
     <path id="_57361824" class="fil2" d="M49.075 38.366l1.4333 -7.3406c-0.4272,-2.1458 -0.8713,-4.288 -1.3327,-6.4269l-1.3468 7.2383 1.2462 6.5292z"/>
    </g>
   </g>
   <path id="_57021200" class="fil1" d="M49.6433 11.9675c2.7933,0 5.0585,2.2652 5.0585,5.0585 0,2.7933 -2.2652,5.0585 -5.0585,5.0585 -2.7933,0 -5.0585,-2.2652 -5.0585,-5.0585 0,-2.7933 2.2652,-5.0585 5.0585,-5.0585zm-37.0564 10.5646c-2.7933,0 -5.0585,2.2652 -5.0585,5.0585 0,2.7933 2.2652,5.0585 5.0585,5.0585 2.7933,0 5.0585,-2.2652 5.0585,-5.0585 0,-2.7933 -2.2652,-5.0585 -5.0585,-5.0585zm17.4841 -7.2121c-2.7933,0 -5.0585,2.2652 -5.0585,5.0585 0,2.7933 2.2652,5.0585 5.0585,5.0585 2.7933,0 5.0585,-2.2652 5.0585,-5.0585 0,-2.7933 -2.2652,-5.0585 -5.0585,-5.0585zm56.6049 6.1536c2.7933,0 5.0585,2.2652 5.0585,5.0585 0,2.7933 -2.2652,5.0585 -5.0585,5.0585 -2.7933,0 -5.0585,-2.2652 -5.0585,-5.0585 0,-2.7933 2.2652,-5.0585 5.0585,-5.0585zm-17.4841 -7.2121c2.7933,0 5.0585,2.2652 5.0585,5.0585 0,2.7933 -2.2652,5.0585 -5.0585,5.0585 -2.7933,0 -5.0585,-2.2652 -5.0585,-5.0585 0,-2.7933 2.2652,-5.0585 5.0585,-5.0585z"/>
   <g>
    <path id="_57364264" class="fil11" d="M49.6433 13.9675c-1.6894,0 -3.0585,1.3691 -3.0585,3.0585 0,1.6894 1.3691,3.0585 3.0585,3.0585 1.6894,0 3.0585,-1.3691 3.0585,-3.0585 0,-1.6894 -1.3691,-3.0585 -3.0585,-3.0585zm-37.0564 10.5646c-1.6894,0 -3.0585,1.3691 -3.0585,3.0585 0,1.6894 1.3691,3.0585 3.0585,3.0585 1.6894,0 3.0585,-1.3691 3.0585,-3.0585 0,-1.6894 -1.3691,-3.0585 -3.0585,-3.0585zm17.4841 -7.2121c-1.6894,0 -3.0585,1.3691 -3.0585,3.0585 0,1.6894 1.3691,3.0585 3.0585,3.0585 1.6894,0 3.0585,-1.3691 3.0585,-3.0585 0,-1.6894 -1.3691,-3.0585 -3.0585,-3.0585zm56.6049 6.1536c-1.6894,0 -3.0585,1.3691 -3.0585,3.0585 0,1.6894 1.3691,3.0585 3.0585,3.0585 1.6894,0 3.0585,-1.3691 3.0585,-3.0585 0,-1.6894 -1.3691,-3.0585 -3.0585,-3.0585zm-17.4841 -7.2121c-1.6894,0 -3.0585,1.3691 -3.0585,3.0585 0,1.6894 1.3691,3.0585 3.0585,3.0585 1.6894,0 3.0585,-1.3691 3.0585,-3.0585 0,-1.6894 -1.3691,-3.0585 -3.0585,-3.0585z"/>
    <path id="_57364624" class="fil2" d="M49.6433 15.9675c-0.5854,0 -1.0585,0.4731 -1.0585,1.0585 0,0.5854 0.4731,1.0585 1.0585,1.0585 0.5854,0 1.0585,-0.4731 1.0585,-1.0585 0,-0.5854 -0.4731,-1.0585 -1.0585,-1.0585zm-37.0564 10.5646c-0.5854,0 -1.0585,0.4731 -1.0585,1.0585 0,0.5854 0.4731,1.0585 1.0585,1.0585 0.5854,0 1.0585,-0.4731 1.0585,-1.0585 0,-0.5854 -0.4731,-1.0585 -1.0585,-1.0585zm17.4841 -7.2121c-0.5854,0 -1.0585,0.4731 -1.0585,1.0585 0,0.5854 0.4731,1.0585 1.0585,1.0585 0.5854,0 1.0585,-0.4731 1.0585,-1.0585 0,-0.5854 -0.4731,-1.0585 -1.0585,-1.0585zm56.6049 6.1536c-0.5854,0 -1.0585,0.4731 -1.0585,1.0585 0,0.5854 0.4731,1.0585 1.0585,1.0585 0.5854,0 1.0585,-0.4731 1.0585,-1.0585 0,-0.5854 -0.4731,-1.0585 -1.0585,-1.0585zm-17.4841 -7.2121c-0.5854,0 -1.0585,0.4731 -1.0585,1.0585 0,0.5854 0.4731,1.0585 1.0585,1.0585 0.5854,0 1.0585,-0.4731 1.0585,-1.0585 0,-0.5854 -0.4731,-1.0585 -1.0585,-1.0585z"/>
   </g>
   <path id="_57364120" class="fil19 str1" d="M23.7912 81.5104c-0.2368,0.2368 -0.4735,0.4736 -0.4735,0.9464 0,1.4199 2.6029,2.603 7.8083,3.7861 5.2053,0.9464 11.5937,1.656 18.9285,1.656 7.3348,0 13.4864,-0.7096 18.6917,-1.656 5.2053,-1.1831 7.8083,-2.3662 7.8083,-3.7861 0,-0.2367 0,-0.4728 0,-0.7096 -0.7096,-1.1831 -3.3126,-2.3662 -7.8083,-3.3126 -5.2053,-0.9463 -11.3569,-1.4199 -18.6917,-1.4199 -7.3348,0 -13.7232,0.4736 -18.9285,1.4199 -4.0222,0.9464 -6.6252,1.8927 -7.3348,3.0758z"/>
   <path id="_57367296" class="fil0 str1" d="M26.4969 71.7645c0.9463,1.1831 0.9463,2.603 0,4.0228l-2.7218 5.6708c-0.1133,0.2361 -0.1797,0.2978 0.0161,0.0523 0.8646,-1.0952 3.3992,-1.9899 7.2014,-2.884 5.2053,-0.9463 11.5937,-1.4199 18.9285,-1.4199 7.3348,0 13.4864,0.4736 18.6917,1.4199 2.9498,0.6204 5.0853,1.3441 6.4059,2.1027 1.5211,0.8739 1.7277,1.886 0.6224,-0.4105l-2.2958 -4.768c-0.7096,-1.6566 -0.7096,-3.3126 0,-4.9692l2.8391 -3.5487c-17.7454,-4.7325 -35.4908,-4.7325 -53.2369,0l3.5494 4.7318z"/>
   <path id="_57231464" class="fil0 str1" d="M16.7958 26.5727c0,-1.4199 -0.4728,-2.3663 -1.4198,-3.3126 -0.7096,-0.9464 -1.8928,-1.4199 -3.0759,-1.4199 -1.4192,0 -2.3662,0.4735 -3.5487,1.4199 -0.7102,0.9463 -1.1831,1.8927 -1.1831,3.3126 0,1.1831 0.4729,2.3662 1.1831,3.0758 1.1825,0.9463 2.1295,1.4199 3.5487,1.4199 0.4735,0 0.9464,0 1.1831,0l5.9156 30.9951c0.2361,1.6566 1.4192,3.3126 3.5487,4.9692 17.7461,-4.7325 35.4915,-4.7325 53.2369,0 1.8927,-1.4199 2.8397,-3.0759 3.3126,-4.9692 1.8927,-10.6474 4.0222,-21.058 5.9156,-31.7054 0.7096,0.2367 1.1824,0.4735 1.8927,0.4735 1.4192,0 2.6023,-0.4735 3.5486,-1.4199 0.9471,-0.9463 1.4199,-2.1294 1.4199,-3.5493 0,-1.1825 -0.4728,-2.3656 -1.4199,-3.3119 -0.9463,-0.9471 -2.1294,-1.4199 -3.5486,-1.4199 -1.1831,0 -2.3663,0.4728 -3.3126,1.4199 -0.9464,0.9463 -1.4199,2.1294 -1.4199,3.3119 0,1.4199 0.4735,2.603 1.4199,3.5493 0.4728,0.4735 0.9463,0.7096 1.4199,0.9464l-12.7769 24.3706 -1.6566 2.3662 -1.1831 -3.3126 -1.1832 -30.0487c0.2368,0.2361 0.4736,0.2361 0.9464,0.2361 1.1831,0 2.3662,-0.4729 3.0765,-1.4192 0.9464,-0.9471 1.4192,-1.8934 1.4192,-3.3126 0,-1.1831 -0.4728,-2.3663 -1.4192,-3.3126 -0.7103,-0.7103 -1.8934,-1.1831 -3.0765,-1.1831 -1.4192,0 -2.3656,0.4728 -3.3119,1.1831 -0.9471,0.9463 -1.4199,2.1295 -1.4199,3.3126 0,1.4192 0.4728,2.3655 1.4199,3.3126 0.7096,0.7096 1.4192,1.1831 2.3655,1.1831l-8.9907 28.156 -2.603 3.5493 -1.656 -3.0758 -5.442 -30.9958c1.1831,0 2.3662,-0.4735 3.3126,-1.4198 0.9463,-0.9464 1.4192,-2.1295 1.4192,-3.3126 0,-1.4199 -0.4729,-2.6023 -1.4192,-3.5487 -0.9464,-0.7103 -2.1295,-1.1831 -3.3126,-1.1831 -1.4199,0 -2.603,0.4728 -3.5494,1.1831 -0.9463,0.9464 -1.1831,2.1288 -1.1831,3.5487 0,1.1831 0.2368,2.3662 1.1831,3.3126 0.9464,0.9463 2.1295,1.4198 3.5494,1.4198l-5.6788 30.5223 -1.4193 3.7861 -2.3662 -3.0765 -9.701 -28.3928c0.9464,0 1.656,-0.4728 2.3662,-1.1831 0.9464,-0.9464 1.4192,-2.1295 1.4192,-3.3126 0,-1.4192 -0.4728,-2.6023 -1.4192,-3.5487 -0.9463,-0.7102 -2.1294,-1.1831 -3.3126,-1.1831 -1.4198,0 -2.6029,0.4729 -3.5493,1.1831 -0.9464,0.9464 -1.1831,2.1295 -1.1831,3.5487 0,1.1831 0.2367,2.3662 1.1831,3.3126 0.9464,0.9464 2.1295,1.4199 3.5493,1.4199 0.2368,0 0.7096,0 0.9464,-0.2368l0 29.8127 -1.1831 4.4957 -16.0895 -27.4464c0.7096,-0.2368 1.1832,-0.7103 1.8928,-1.4199 0.947,-0.7096 1.4198,-1.8927 1.4198,-3.0758z"/>
  </g>
 </g>
</svg>
