<?xml version="1.0" encoding="UTF-8"?>
<!DOCTYPE svg PUBLIC "-//W3C//DTD SVG 1.1//EN" "http://www.w3.org/Graphics/SVG/1.1/DTD/svg11.dtd">
<!-- Creator: CorelDRAW -->
<svg xmlns="http://www.w3.org/2000/svg" xml:space="preserve" width="99.8022mm" height="99.8022mm" style="shape-rendering:geometricPrecision; text-rendering:geometricPrecision; image-rendering:optimizeQuality; fill-rule:evenodd; clip-rule:evenodd"
viewBox="0 0 99.8022 99.8022"
 xmlns:xlink="http://www.w3.org/1999/xlink">
 <defs>
  <style type="text/css">
   <![CDATA[
    .str0 {stroke:white;stroke-width:0.0762}
    .str2 {stroke:#1F1A17;stroke-width:1.4111}
    .str1 {stroke:#1F1A17;stroke-width:1.4111;stroke-linecap:round;stroke-linejoin:round}
    .fil0 {fill:none}
    .fil1 {fill:#AAA9A9}
    .fil2 {fill:#BDBDBC}
    .fil3 {fill:#C7C7C6}
    .fil4 {fill:#D0CFCF}
    .fil5 {fill:#D5D4D4}
    .fil6 {fill:#DBDBDB}
    .fil7 {fill:#E2E1E1}
    .fil8 {fill:#E6E5E5}
    .fil9 {fill:#E8E8E7}
    .fil11 {fill:#F2F2F2}
    .fil12 {fill:whitesmoke}
    .fil13 {fill:#F9F9F9}
    .fil10 {fill:#EFEEEE}
   ]]>
  </style>
 </defs>
 <g id="Layer_x0020_1">
  <metadata id="CorelCorpID_0Corel-Layer"/>
  <rect class="fil0 str0" x="0.0381" y="0.0381" width="99.726" height="99.726"/>
  <path class="fil1" d="M23.6877 82.7623l-7.8076 0 0 6.6245 66.7233 0 0 -6.6245 -7.5715 0 -1.9942 0 1.9942 -0.7103 0.0013 -0.0466 0.0001 -0.0046 0 -0.003 0.0002 -0.0049 0.0001 -0.0011 0 -0.003 0 -0.003 0.0002 -0.0052 0.0001 -0.0008 0 -0.003 0.0002 -0.0085 0.0001 -0.0005 0 -0.003 0.0001 -0.003 0.0001 -0.0046 0.0002 -0.0047 0 -0.003 0.0002 -0.0048 0.0001 -0.0012 0 -0.003 0 -0.003 0.0002 -0.0052 0.0001 -0.0008 0 -0.003 0 -0.003 0.0002 -0.0055 0.0001 -0.0005 0 -0.003 0.0003 -0.009 0 -0.0002 0 -0.003 0.0003 -0.009 0 -0.003 0.001 -0.0331 0 -0.0002 0 -0.0019c0.0228,-0.8724 0.0022,-1.7161 -0.0612,-2.5309l-0.0007 -0.0097c-0.0078,-0.0999 -0.0164,-0.1993 -0.0255,-0.2984l-0.0002 -0.0027c-0.0091,-0.0978 -0.0187,-0.1949 -0.0289,-0.2918l-0.002 -0.0187c-0.0208,-0.1946 -0.044,-0.3879 -0.0698,-0.5792l-0.0022 -0.0161c-0.0259,-0.1902 -0.0542,-0.3786 -0.085,-0.5654l-0.0041 -0.0247c-0.0309,-0.1855 -0.0641,-0.3694 -0.0998,-0.5514l-0.0052 -0.0258c-0.0165,-0.0837 -0.0336,-0.167 -0.0512,-0.25l-0.0087 -0.0403c-0.0172,-0.0802 -0.0348,-0.1601 -0.053,-0.2397l-0.0093 -0.0405c-0.0404,-0.1754 -0.0832,-0.349 -0.1283,-0.5211l-0.0066 -0.0246c-0.0218,-0.0821 -0.044,-0.1639 -0.0667,-0.2454l-0.0076 -0.0271c-0.0231,-0.0821 -0.0468,-0.1638 -0.0709,-0.2451l-0.0066 -0.0223c-0.0249,-0.0831 -0.0501,-0.1656 -0.0761,-0.2479l-0.0045 -0.0141c-0.0254,-0.0806 -0.0514,-0.1608 -0.078,-0.2406l-0.0137 -0.0405c-0.026,-0.0775 -0.0525,-0.1545 -0.0796,-0.2313l-0.0039 -0.0109c-0.0295,-0.0834 -0.0595,-0.1666 -0.0903,-0.2492l-0.0031 -0.0082c-0.0305,-0.082 -0.0617,-0.1635 -0.0934,-0.2446l-0.007 -0.0178c-0.0298,-0.0761 -0.0601,-0.1519 -0.091,-0.2273l-0.0182 -0.0438c-0.0298,-0.072 -0.06,-0.1437 -0.0908,-0.215l-0.0079 -0.0181c-0.0324,-0.075 -0.0652,-0.1496 -0.0987,-0.2238l-0.0173 -0.038c-0.0322,-0.0709 -0.0648,-0.1415 -0.098,-0.2117l-0.0111 -0.0232c-0.0339,-0.0716 -0.0683,-0.1429 -0.1033,-0.2137l-0.0224 -0.0448c-0.0332,-0.0667 -0.0669,-0.1332 -0.101,-0.1993l-0.0153 -0.0293c-0.0356,-0.0686 -0.0717,-0.137 -0.1083,-0.2049l-0.0214 -0.0393c-0.0361,-0.0667 -0.0727,-0.1331 -0.1098,-0.1991l-0.014 -0.0247c-0.038,-0.0672 -0.0763,-0.1342 -0.1152,-0.2008l-0.0298 -0.0503c-0.0364,-0.0616 -0.0731,-0.1229 -0.1103,-0.1839l-0.0179 -0.029c-0.0394,-0.0644 -0.0792,-0.1285 -0.1196,-0.1923l-0.03 -0.0467c-0.0397,-0.0621 -0.0796,-0.124 -0.1201,-0.1854l-0.008 -0.012c-0.0449,-0.0679 -0.0902,-0.1357 -0.1363,-0.2029l-0.0307 -0.0442c-0.0403,-0.0583 -0.081,-0.1164 -0.1221,-0.1742l-0.0275 -0.0382c-0.042,-0.0585 -0.0841,-0.1169 -0.1269,-0.1749l-0.038 -0.0508c-0.0408,-0.0548 -0.0819,-0.1095 -0.1235,-0.1638l-0.0322 -0.0415c-0.0427,-0.0554 -0.0856,-0.1106 -0.1291,-0.1654l-0.0484 -0.06c-0.0402,-0.05 -0.0806,-0.1 -0.1214,-0.1496l-0.0429 -0.0513c-0.0414,-0.0499 -0.083,-0.0997 -0.1251,-0.149l-0.0653 -0.0754c-0.037,-0.0427 -0.0739,-0.0853 -0.1113,-0.1277l-0.0612 -0.0684c-0.0384,-0.0429 -0.0767,-0.0859 -0.1156,-0.1284 -0.0304,-0.0332 -0.0614,-0.0661 -0.0922,-0.099l-0.0891 -0.0954c-0.031,-0.0327 -0.0625,-0.065 -0.0938,-0.0974 -0.0319,-0.033 -0.0636,-0.0662 -0.0958,-0.099l-0.0883 -0.0886c-0.0344,-0.0345 -0.0686,-0.069 -0.1033,-0.1032l-0.0839 -0.0814c-0.0368,-0.0358 -0.0736,-0.0718 -0.1109,-0.1073l-0.0823 -0.0769c-0.0403,-0.0378 -0.0806,-0.0756 -0.1214,-0.1131l-0.047 -0.0426c-0.0511,-0.0466 -0.1022,-0.0932 -0.1541,-0.1392l-0.0673 -0.0589c-0.0459,-0.0404 -0.0917,-0.0807 -0.1382,-0.1206 -0.0313,-0.0269 -0.0631,-0.0534 -0.0946,-0.0801 -0.0372,-0.0315 -0.0742,-0.0633 -0.1118,-0.0945 -0.0385,-0.032 -0.0776,-0.0635 -0.1165,-0.0952 -0.0337,-0.0275 -0.0671,-0.0551 -0.101,-0.0823l-0.0783 -0.062c-0.0469,-0.0373 -0.0938,-0.0746 -0.1413,-0.1115l-0.0674 -0.0516c-0.0509,-0.0391 -0.1018,-0.0783 -0.1533,-0.117l-0.0033 -0.0025c-0.0715,-0.0537 -0.1437,-0.1072 -0.2164,-0.1601l-0.0006 -0.0004c-0.0638,-0.0465 -0.1283,-0.0923 -0.193,-0.138l-0.0371 -0.0265 -0.0065 -0.0046c-0.0754,-0.053 -0.1513,-0.1056 -0.2279,-0.1577l-0.0044 -0.003c-0.0774,-0.0526 -0.1553,-0.1048 -0.2339,-0.1565l-0.0022 -0.0015c-0.0793,-0.0522 -0.1592,-0.104 -0.2397,-0.1553l0 -30.2862 0 -0.2361 9.4643 -6.3884 0 -14.9063 -11.1202 0 0 6.6245 -11.1209 0 0 -6.6245 -11.1203 0 0 6.6245 -10.4112 0 0 -6.6245 -11.357 0 0 14.6696 9.701 6.8612 0 30.1862 0 0.1c-5.4421,3.3126 -8.0444,8.7546 -7.8083,16.3262z"/>
  <g id="_59395768">
   <path id="_57897464" class="fil2" d="M18.0127 84.8949l0 4.4919 62.4581 0 0 -4.4919 -7.5715 0 0 -2.8792 0.0013 -0.0363c0.002,-0.0589 0.0031,-0.1177 0.0046,-0.1764 0.1491,-5.6925 -1.6993,-10.4555 -6.5899,-13.5677l-0.9876 -0.6285 0 -32.8265 9.4643 -6.3884 0 -13.7728 -8.9876 0 0 6.6245 -11.1209 0 0 -6.6245 -11.1203 0 0 6.6245 -10.4112 0 0 -6.6245 -9.2244 0 0 13.5658 9.701 6.8612 0 32.5885 -1.0238 0.6231c-5.283,3.2158 -6.9722,8.4512 -6.7856,14.4381l0.0686 2.1991 -7.8751 0z"/>
   <path id="_59394816" class="fil3" d="M20.1363 87.0185l0 2.3683 58.2109 0 0 -2.3683 -7.5715 0 0 -5.039 0.0025 -0.0724c0.0018,-0.0535 0.0028,-0.1068 0.0042,-0.1598 0.1296,-4.9497 -1.3458,-9.0086 -5.6072,-11.7205l-1.9711 -1.2543 0 -35.1208 9.4643 -6.3884 0 -12.6442 -6.864 0 0 6.6245 -11.1209 0 0 -6.6245 -11.1203 0 0 6.6245 -10.4112 0 0 -6.6245 -7.1008 0 0 12.4667 9.701 6.8612 0 34.881 -2.0432 1.2437c-4.6099,2.8061 -5.9294,7.3551 -5.7672,12.5579l0.1369 4.3889 -7.9424 0z"/>
   <path id="_57955136" class="fil4" d="M22.2509 89.1331l0 0.2537 53.9817 0 0 -0.2537 -7.5715 0 0 -7.1896 0.0037 -0.1083c0.0016,-0.0482 0.0024,-0.096 0.0037,-0.1434 0.11,-4.2008 -1.0029,-7.5736 -4.6286,-9.8809l-2.9504 -1.8776 0 -37.4056 9.4643 -6.3884 0 -11.5202 -4.7494 0 0 6.6245 -11.1209 0 0 -6.6245 -11.1203 0 0 6.6245 -10.4112 0 0 -6.6245 -4.9862 0 0 11.3722 9.701 6.8612 0 37.1639 -3.0583 1.8616c-3.9401,2.3984 -4.891,6.2611 -4.7531,10.6857l0.2049 6.5694 -8.0094 0z"/>
   <path id="_41552208" class="fil5" d="M66.5553 89.3868l0 -7.4791 0.0048 -0.1431c0.0014,-0.0436 0.0022,-0.0856 0.0033,-0.128 0.0901,-3.4412 -0.6749,-6.1532 -3.6541,-8.0492l-3.9256 -2.4982 0 -39.6807 9.4643 -6.3884 0 -10.401 -2.6436 0 0 6.6245 -11.1209 0 0 -6.6245 -11.1203 0 0 6.6245 -10.4112 0 0 -6.6245 -2.8804 0 0 10.2823 9.701 6.8612 0 39.4373 -4.0692 2.4769c-3.2516,1.9793 -3.8563,5.1946 -3.7432,8.8213l0.2148 6.8887 34.1803 0z"/>
   <path id="_57897344" class="fil6" d="M64.4582 89.3868l0 -7.5148 0.0059 -0.1727c0.0011,-0.0399 0.002,-0.0792 0.003,-0.1178 0.07,-2.6726 -0.362,-4.7474 -2.6837,-6.2249l-4.8968 -3.1162 0 -41.9464 9.4643 -6.3884 0 -9.2865 -0.5465 0 0 6.6245 -11.1209 0 0 -6.6245 -11.1203 0 0 6.6245 -10.4112 0 0 -6.6245 -0.7833 0 0 9.197 9.701 6.8612 0 41.7011 -5.0759 3.0897c-2.5396,1.5458 -2.8249,4.1629 -2.7376,6.9646l0.2169 6.9541 29.9851 0z"/>
   <path id="_58082520" class="fil7" d="M62.3699 89.3868l0 -7.5503 0.0068 -0.2009c0.0027,-0.0956 -0.0014,0.0473 0.0028,-0.1089 0.0493,-1.8834 -0.0768,-3.3643 -1.7173,-4.4083l-5.8639 -3.7317 0 -44.2027 9.4643 -6.3884 0 -1.552 -9.5791 0 0 -6.6245 -11.1203 0 0 6.6245 -9.1062 0 0 1.4916 9.701 6.8612 0 43.9556 -6.0784 3.6999c-1.7901,1.0897 -1.7961,3.189 -1.7361,5.1158l0.2189 7.0191 25.8075 0z"/>
   <path id="_59394888" class="fil8" d="M60.2902 89.3868l0 -7.5857 0.0078 -0.2276c0.002,-0.0752 -0.0011,0.0343 0.0025,-0.1014 0.0269,-1.0269 0.1528,-2.0215 -0.7548,-2.5991l-6.8271 -4.3446 0 -46.4497 9.4643 -6.3884 0 -0.4467 -7.4994 0 0 -6.6245 -11.1203 0 0 6.6245 -7.0265 0 0 0.4152 9.701 6.8612 0 46.2008 -7.0768 4.3076c-0.9304,0.5663 -0.7678,2.3394 -0.7387,3.2744l0.2209 7.084 21.6471 0z"/>
   <path id="_58082832" class="fil9" d="M58.2191 89.3868l0 -7.621 0.0086 -0.2526c0.0008,-0.0325 0.0016,-0.0643 0.0024,-0.0954 0.0061,-0.2322 0.0081,-0.6189 -0.0261,-0.9437l-7.5565 -4.8088 0 -48.6874 8.4953 -5.7343 -4.4593 0 0 -6.6245 -11.1203 0 0 6.6245 -4.0269 0 8.7725 6.2045 0 48.4366 -7.7498 4.7174c-0.0813,0.5292 -0.0785,1.255 -0.0667,1.6362l0.2229 7.1485 17.5039 0z"/>
   <path id="_59394672" class="fil10" d="M56.1564 89.3868l0 -7.6561 0.0039 -0.1123 -6.5041 -4.1391 -7.1092 4.3274c0.0006,0.1355 0.0037,0.262 0.007,0.3673l0.2249 7.2128 13.3775 0zm-7.0183 -63.8786l6.3178 -4.2646 -0.7724 0 0 -6.6245 -11.1203 0 0 6.6245 -0.4547 0 6.0296 4.2646z"/>
   <path id="_59394720" class="fil10" d="M54.1022 89.3868l0 -6.6432 -4.4702 -2.8447 -4.9989 3.0428 0.201 6.4451 9.2681 0zm-4.9369 -66.3754l5.5182 -3.7248 0 -4.6675 -11.1203 0 0 4.4301 5.6021 3.9622z"/>
   <path id="_57897888" class="fil11" d="M52.0564 89.3868l0 -5.5201 -2.4484 -1.5581 -2.8928 1.7608 0.1658 5.3174 5.1754 0zm-2.8639 -68.8621l4.7566 -3.2106 0 -2.695 -9.1786 0 0 2.7781 4.422 3.1275z"/>
   <path id="_58080944" class="fil12" d="M50.0188 89.3868l0 -4.4016 -0.4347 -0.2767 -0.7953 0.4841 0.1308 4.1942 1.0992 0zm-0.7993 -71.3386l2.692 -1.8171 0 -1.612 -5.1034 0 0 1.7236 2.4114 1.7055z"/>
   <polygon id="_57897392" class="fil13" points="49.2465,15.5816 49.8821,15.1525 49.8821,14.6191 48.8375,14.6191 48.8375,15.2923 "/>
  </g>
  <g id="_55544352">
   <polygon id="_57897912" class="fil0 str1" points="24.1605,82.5262 16.3529,82.5262 16.3529,89.1507 83.0762,89.1507 83.0762,82.5262 75.5047,82.5262 "/>
   <path id="_57897320" class="fil0 str1" d="M75.5047 81.8159c0.2367,-7.098 -2.3663,-12.3033 -7.5716,-15.6159"/>
   <polyline id="_58080840" class="fil0 str1" points="67.9331,66.2 67.9331,35.9138 67.9331,35.6777 "/>
   <polyline id="_58080768" class="fil0 str1" points="67.9331,35.6777 77.3974,29.2893 77.3974,14.383 66.2772,14.383 66.2772,21.0075 55.1563,21.0075 55.1563,14.383 44.036,14.383 44.036,21.0075 33.6248,21.0075 33.6248,14.383 22.2678,14.383 22.2678,29.0526 31.9688,35.9138 "/>
   <polygon id="_59395792" class="fil0 str2" points="67.9331,35.6777 67.4603,35.9138 67.9331,35.9138 "/>
   <polyline id="_58082472" class="fil0 str1" points="31.9688,35.9138 67.4603,35.9138 67.9331,35.6777 "/>
   <path id="_58083032" class="fil0 str1" d="M31.9688 66.2c-5.4421,3.3126 -8.0444,8.7546 -7.8083,16.3262"/>
   <line id="_58081720" class="fil0 str1" x1="31.9688" y1="66.2" x2="67.9331" y2= "66.2" />
   <line id="_57897416" class="fil0 str1" x1="31.9688" y1="35.9138" x2="31.9688" y2= "66.2" />
  </g>
 </g>
</svg>
